<?xml version="1.0" encoding="UTF-8"?>
<svg width="57.974mm" height="22.947mm" version="1.1" viewBox="0 0 57.974 22.947" xmlns="http://www.w3.org/2000/svg"><g transform="translate(-31.974 -136.39)"><g aria-label="#un1eet"><g transform="matrix(1.0332 0 0 1.0332 -4.2361 -5.5112)"><path d="m42.642 141.54c-0.35674-8e-3 -0.73022 0.0351-1.1189 0.1379-0.24608-4e-3 -0.49244-0.089-0.73843-0.0343-3.4465 1.0247-4.1648 5.38-3.3736 8.4261 1.008 2.1688 2.6747 4.0562 5.3052 3.391 1.1596 0.0514 2.0612-0.40705 2.7415-1.1375 1.2003 2.2836 4.1435 3.3232 7.0055 2.5305 0.28486-0.13932 0.54291-0.32145 0.7767-0.53582 0.16876 0.17038 0.34964 0.32269 0.54425 0.45083 2.1226 0.30951 3.319-0.79742 5.3649 0.16153 0.34862-0.14256 0.65239-0.33019 0.92247-0.54763 0.05503 0.0415 0.10845 0.083 0.16885 0.12438 2.4434 1.3679 5.5468 1.0025 7.1884-0.61742 0.87322 0.91014 2.1197 1.406 3.709 1.0789 1.5743 0.34028 2.6406-0.13357 3.3044-1.0182 0.87021 0.87193 2.0981 1.3381 3.6522 1.0182 1.7956 0.38754 2.9362-0.28938 3.5683-1.4296 2.2598 2.3502 7.7769 1.8497 7.3995-2.5226-1.3405-1.9693 0.44896-5.5604-3.144-6.0858-0.47909-0.89141-1.4997-1.4728-2.5147-1.3744-1.1383 0.2417-2.2483 1.2489-2.8625 2.4477-1.0432-0.81855-2.4277-0.97977-3.7614-0.81385-1.1645 0.0894-2.0484 0.57984-2.6774 1.2934-1.0945-1.2154-2.6863-1.4962-4.2769-1.2956-1.4827 0.11408-2.5165 0.87296-3.1389 1.9226-0.47685-1.6015-0.05516-3.5426-1.4639-3.9775-1.2182 0.0147-2.4392-0.0234-3.6567 8e-3 -1.4705 0.013-2.3124 1.2232-2.4027 2.4787-0.97657-0.66298-2.2026-0.8832-3.6004-0.33882-0.31156-0.0942-0.66516-0.15079-0.98945-0.0996-0.511 0.12109-0.9479 0.35438-1.3187 0.66751-0.29332-0.26624-0.62551-0.48353-1.0018-0.63149-0.26547-0.0132-0.53232-0.10474-0.79809-0.036-1.1751 0.73843-3.1373 0.0574-4.546 0.31912-0.61592-2.0356-2.1441-3.9115-4.2668-3.9606z" fill="#fff" stroke="#000" stroke-width=".28862"/><g stroke-width=".28817"><path d="m41.552 149.35v1.3981q0 0.23638-0.16885 0.41198-0.16209 0.16885-0.39848 0.16885-0.23639 0-0.40524-0.16885-0.16209-0.1756-0.16209-0.41198v-1.3981h-0.58084q-0.23639 0-0.40524-0.16209-0.1621-0.16885-0.1621-0.40524 0-0.22963 0.1621-0.39848 0.16885-0.16885 0.40524-0.16885h0.56733v-1.2968h-0.56733q-0.23639 0-0.40524-0.16209-0.1621-0.16884-0.1621-0.40524 0-0.24314 0.1621-0.40523 0.16885-0.16209 0.40524-0.16209h0.58084v-1.3981q0-0.23639 0.16209-0.39848 0.16885-0.16885 0.40524-0.16885 0.22963 0 0.39848 0.16885t0.16885 0.39848v1.3981h1.1347v-1.3981q0-0.23639 0.16885-0.39848 0.16885-0.16885 0.39848-0.16885 0.23639 0 0.40524 0.16885 0.1756 0.16885 0.1756 0.39848v1.3981h0.58084q0.22963 0 0.39848 0.16884 0.16885 0.1621 0.16885 0.39848 0 0.24315-0.18236 0.412-0.18236 0.16884-0.38497 0.16884h-0.56733v1.2832h0.56733q0.22288 0 0.39173 0.16885 0.1756 0.16885 0.1756 0.39848 0 0.22287-0.16209 0.39849-0.15534 0.16884-0.40524 0.16884h-0.58084v1.3981q0 0.23638-0.1756 0.41198-0.16885 0.16885-0.40524 0.16885-0.22963 0-0.39848-0.16885-0.16885-0.1756-0.16885-0.41198v-1.3981zm0-2.4179v1.2832h1.1347v-1.2832z" fill="#800080"/><path d="m49.63 151.83 1.5928-1.0131v-2.9886q0-0.197 0.13508-0.3377 0.14071-0.14634 0.3377-0.14634 0.19699 0 0.33207 0.14634 0.14071 0.1407 0.14071 0.3377v4.4857q0 0.19136-0.14071 0.33207-0.14071 0.1407-0.33207 0.1407-0.19136 0-0.33207-0.1407-0.14071-0.14071-0.14071-0.33207v-0.37146l-0.82173 0.53468q-0.48403 0.30955-0.97932 0.30955h-0.439q-0.57971 0-0.9962-0.40523-0.41649-0.40524-0.44463-0.99057l-0.13508-3.5627q-0.01125-0.18573 0.12945-0.32644 0.14634-0.14634 0.34332-0.14634 0.19136 0 0.32644 0.14071 0.14071 0.1407 0.14634 0.33207l0.12382 3.4952q0.01688 0.50654 0.57971 0.50654z"/><path d="m56.575 148.46-1.2889 0.83861v3.0224q0 0.19136-0.14071 0.33207-0.14071 0.1407-0.33207 0.1407-0.19136 0-0.33207-0.1407-0.14071-0.14071-0.14071-0.33207v-4.4857q0-0.197 0.13508-0.3377 0.14071-0.14634 0.3377-0.14634 0.19136 0 0.33207 0.14634 0.14071 0.1407 0.14071 0.3377v0.31518l0.86112-0.52343q0.43338-0.27579 0.97932-0.27579h0.43901q0.56283 0 0.97369 0.39961t0.43338 0.98495l0.12945 3.5852q0.0057 0.19136-0.13508 0.33207-0.14071 0.1407-0.3377 0.1407-0.18573 0-0.32644-0.12382-0.14071-0.12945-0.14634-0.34895l-0.14071-3.5289q-0.01688-0.49528-0.5178-0.49528h-0.46152q-0.21387 0-0.46152 0.16322z"/><path d="m61.736 151.83h1.4521v-5.5776h-1.4296q-0.19699 0-0.3377-0.13509-0.13508-0.1407-0.13508-0.33768 0-0.19699 0.13508-0.33207 0.14071-0.14072 0.3377-0.14072h2.3751v6.5232h0.94555v-1.9699q0-0.19136 0.13508-0.33206 0.14071-0.14071 0.3377-0.14071 0.19699 0 0.33207 0.14071 0.14071 0.13507 0.14071 0.33206v2.4427q0 0.19699-0.14071 0.33769-0.13508 0.13509-0.33207 0.13509h-3.816q-0.19699 0-0.3377-0.14071-0.13508-0.14633-0.13508-0.34332 0-0.19137 0.13508-0.32644 0.14071-0.13509 0.3377-0.13509z"/><path d="m73.015 149.14v1.1425q0 0.19136-0.14071 0.33207t-0.33207 0.14071h-3.3432v0.27578q0 0.24202 0.20825 0.41087l0.27578 0.23076q0.22513 0.17448 0.42775 0.17448h2.4314q0.19136 0 0.33207 0.1407 0.14071 0.13508 0.14071 0.33207 0 0.19136-0.14634 0.33207-0.14071 0.1407-0.32644 0.1407h-2.4933q-0.24764 0-0.52343-0.10129-0.27016-0.10695-0.39961-0.21949l-0.42212-0.37147q-0.19699-0.15759-0.33207-0.439-0.12945-0.28143-0.12945-0.51781v-2.1669q0-0.18573 0.14071-0.50092 0.14634-0.31519 0.36584-0.48967l0.39398-0.30955q0.38835-0.31517 0.86112-0.31517h1.3283q0.50092 0 0.94555 0.41648l0.35458 0.3377q0.38272 0.34333 0.38272 1.0243zm-3.8047-0.0732v0.73168h2.8704v-0.65851q0-0.26453-0.16322-0.40523l-0.27579-0.24202q-0.21387-0.17447-0.38272-0.17447h-1.1876q-0.2195 0-0.39961 0.15196l-0.27578 0.23076q-0.18573 0.14071-0.18573 0.36583z"/><path d="m79.972 149.14v1.1425q0 0.19136-0.14071 0.33207t-0.33207 0.14071h-3.3432v0.27578q0 0.24202 0.20825 0.41087l0.27578 0.23076q0.22513 0.17448 0.42775 0.17448h2.4314q0.19136 0 0.33207 0.1407 0.14071 0.13508 0.14071 0.33207 0 0.19136-0.14634 0.33207-0.14071 0.1407-0.32644 0.1407h-2.4933q-0.24764 0-0.52343-0.10129-0.27016-0.10695-0.39961-0.21949l-0.42212-0.37147q-0.19699-0.15759-0.33207-0.439-0.12945-0.28143-0.12945-0.51781v-2.1669q0-0.18573 0.14071-0.50092 0.14634-0.31519 0.36584-0.48967l0.39398-0.30955q0.38835-0.31517 0.86113-0.31517h1.3283q0.50092 0 0.94555 0.41648l0.35458 0.3377q0.38272 0.34333 0.38272 1.0243zm-3.8047-0.0732v0.73168h2.8704v-0.65851q0-0.26453-0.16322-0.40523l-0.27579-0.24202q-0.21387-0.17447-0.38272-0.17447h-1.1876q-0.2195 0-0.39961 0.15196l-0.27578 0.23076q-0.18573 0.14071-0.18573 0.36583z"/><path d="m85.487 152.79h-0.94555q-0.58534 0-1.0075-0.41649-0.42212-0.41649-0.42212-1.0018v-3.0674h-0.48403q-0.19699 0-0.3377-0.13508-0.13508-0.13508-0.13508-0.33769 0-0.197 0.13508-0.33207 0.14071-0.14071 0.3377-0.14071h0.49529v-1.1594q0-0.19699 0.13508-0.33206 0.14071-0.14071 0.3377-0.14071 0.18573 0 0.32644 0.14071 0.14633 0.1407 0.14633 0.33206v1.1594h1.9024q0.19136 0 0.33207 0.14071 0.14071 0.1407 0.14071 0.33207 0 0.19699-0.14071 0.33769-0.14071 0.13508-0.33207 0.13508h-1.9136v3.0674q0 0.19136 0.14071 0.33207 0.14634 0.14071 0.34332 0.14071h0.92304q0.37709 0 0.50092-0.40524 0.12382-0.41087 0.4784-0.41087 0.20825 0 0.3377 0.14071 0.13508 0.13507 0.13508 0.34333 0 0.42775-0.40524 0.85549-0.39961 0.42212-1.0243 0.42212z"/></g></g></g></g></svg>
