<?xml version="1.0" encoding="UTF-8" standalone="no"?>
<!-- Created with Inkscape (http://www.inkscape.org/) -->

<svg
   xmlns:dc="http://purl.org/dc/elements/1.1/"
   xmlns:cc="http://creativecommons.org/ns#"
   xmlns:rdf="http://www.w3.org/1999/02/22-rdf-syntax-ns#"
   xmlns:svg="http://www.w3.org/2000/svg"
   xmlns="http://www.w3.org/2000/svg"
   xmlns:sodipodi="http://sodipodi.sourceforge.net/DTD/sodipodi-0.dtd"
   xmlns:inkscape="http://www.inkscape.org/namespaces/inkscape"
   width="57.974438mm"
   height="22.94735mm"
   viewBox="0 0 57.974438 22.94735"
   version="1.1"
   id="svg8"
   inkscape:version="0.92.3 (2405546, 2018-03-11)"
   sodipodi:docname="hashtag_saot.svg">
  <defs
     id="defs2" />
  <sodipodi:namedview
     id="base"
     pagecolor="#ffffff"
     bordercolor="#666666"
     borderopacity="1.0"
     inkscape:pageopacity="0.0"
     inkscape:pageshadow="2"
     inkscape:zoom="3.959798"
     inkscape:cx="91.193429"
     inkscape:cy="36.631842"
     inkscape:document-units="mm"
     inkscape:current-layer="text817"
     showgrid="false"
     fit-margin-top="5"
     fit-margin-left="5"
     fit-margin-right="5"
     fit-margin-bottom="5"
     inkscape:window-width="2085"
     inkscape:window-height="1068"
     inkscape:window-x="2288"
     inkscape:window-y="155"
     inkscape:window-maximized="0" />
  <metadata
     id="metadata5">
    <rdf:RDF>
      <cc:Work
         rdf:about="">
        <dc:format>image/svg+xml</dc:format>
        <dc:type
           rdf:resource="http://purl.org/dc/dcmitype/StillImage" />
        <dc:title />
      </cc:Work>
    </rdf:RDF>
  </metadata>
  <g
     inkscape:label="Layer 1"
     inkscape:groupmode="layer"
     id="layer1"
     transform="translate(-31.973808,-136.39439)">
    <g
       aria-label="#un1eet"
       style="font-style:normal;font-weight:normal;font-size:10.58333302px;line-height:1.25;font-family:sans-serif;letter-spacing:0px;word-spacing:0px;fill:#000000;fill-opacity:1;stroke:none;stroke-width:0.26458332"
       id="text817">
      <path
         style="font-size:12.69999981px;fill:#000000;stroke:none;stroke-width:0.29821754;stroke-miterlimit:4;stroke-dasharray:none;stroke-opacity:1"
         d="m 56.958625,134.21417 v 0.001 c -0.368598,-0.008 -0.754399,0.0359 -1.156002,0.14211 -0.254263,-0.004 -0.509093,-0.0917 -0.763261,-0.0351 -3.5611,1.0588 -4.30306,5.55863 -3.485575,8.70593 1.041563,2.2409 2.763326,4.19147 5.481319,3.50418 1.198126,0.0531 2.129993,-0.42093 2.832902,-1.17564 1.240216,2.35952 4.281099,3.43387 7.238318,2.61483 0.294336,-0.14395 0.560974,-0.33248 0.802535,-0.55398 0.174374,0.17604 0.361154,0.33373 0.562239,0.46613 2.193144,0.3198 3.429455,-0.82393 5.543331,0.16691 0.360213,-0.1473 0.674365,-0.34119 0.95343,-0.56586 0.05686,0.0429 0.111742,0.086 0.17415,0.12868 2.524604,1.41342 5.731217,1.03553 7.427452,-0.63821 0.902253,0.9404 2.190184,1.45257 3.832326,1.11467 1.62665,0.35158 2.728425,-0.13763 3.414262,-1.05162 0.899145,0.90092 2.167705,1.38218 3.773411,1.05162 1.855311,0.40042 3.033975,-0.29881 3.687114,-1.47692 2.334932,2.42838 8.035534,1.91111 7.645534,-2.60656 -1.38512,-2.03482 0.46399,-5.74508 -3.24839,-6.28798 -0.49502,-0.92105 -1.54949,-1.52169 -2.598286,-1.42007 -1.176179,0.24974 -2.323341,1.29036 -2.95796,2.52904 -1.077838,-0.84577 -2.508038,-1.01221 -3.886068,-0.84077 -1.203182,0.0924 -2.116891,0.59909 -2.766756,1.33635 -1.130853,-1.25577 -2.775315,-1.54621 -4.418851,-1.33894 -1.531953,0.11788 -2.600095,0.90188 -3.243212,1.98644 -0.492704,-1.65477 -0.05697,-3.66046 -1.51257,-4.10982 -1.258731,0.0152 -2.520651,-0.0239 -3.778581,0.008 -1.519424,0.0134 -2.389176,1.2638 -2.482535,2.56108 -1.009036,-0.68502 -2.275957,-0.91285 -3.720187,-0.35037 -0.321915,-0.0973 -0.68709,-0.15572 -1.02216,-0.10283 -0.527988,0.12512 -0.979574,0.36634 -1.362707,0.68988 -0.303068,-0.27509 -0.646243,-0.4998 -1.035079,-0.65268 -0.274298,-0.0136 -0.550155,-0.10822 -0.824756,-0.0372 -1.214147,0.76299 -3.241391,0.0593 -4.696871,0.32969 -0.636393,-2.10324 -2.215234,-4.04146 -4.408516,-4.09225 z m 19.752283,3.8964 h 2.454114 v 6.73964 h 0.977201 v -2.03502 c 0,-0.13181 0.04648,-0.24621 0.139526,-0.34313 0.09692,-0.0969 0.213124,-0.14573 0.348816,-0.14573 0.135694,0 0.250084,0.0488 0.34313,0.14573 0.09692,0.093 0.145211,0.20744 0.145211,0.34313 v 2.52388 c 0,0.13569 -0.04829,0.2519 -0.145211,0.34881 -0.09305,0.0931 -0.207436,0.13953 -0.34313,0.13953 h -3.942911 c -0.135694,0 -0.251894,-0.0483 -0.348816,-0.14521 -0.09305,-0.1008 -0.139528,-0.21932 -0.139528,-0.35502 0,-0.13182 0.04648,-0.24389 0.139528,-0.33693 0.09692,-0.0931 0.213122,-0.14004 0.348816,-0.14004 h 1.500682 v -5.76296 h -1.477428 c -0.135694,0 -0.251893,-0.0465 -0.348816,-0.13952 -0.09305,-0.0969 -0.139528,-0.21313 -0.139528,-0.34882 0,-0.13569 0.04648,-0.25008 0.139528,-0.34313 0.09692,-0.0969 0.213122,-0.14521 0.348816,-0.14521 z m 22.563998,0.42995 c 0.127939,0 0.240006,0.0488 0.336928,0.14572 0.100801,0.0969 0.151413,0.21132 0.151413,0.34314 v 1.19786 h 1.965773 c 0.13181,0 0.2462,0.0483 0.34313,0.14521 0.0969,0.0969 0.14521,0.2113 0.14521,0.34313 0,0.13569 -0.0483,0.25189 -0.14521,0.34881 -0.0969,0.0931 -0.21132,0.14005 -0.34313,0.14005 h -1.977142 v 3.16931 c 0,0.13182 0.04829,0.24621 0.145211,0.34313 0.100798,0.0969 0.218811,0.14522 0.354501,0.14522 h 0.95395 c 0.25975,0 0.43198,-0.13944 0.51728,-0.41858 0.0853,-0.28302 0.25029,-0.42478 0.49454,-0.42478 0.14345,0 0.25965,0.0488 0.34882,0.14572 0.093,0.093 0.13952,0.21105 0.13952,0.3545 0,0.29465 -0.13944,0.58955 -0.41858,0.88419 -0.27526,0.29077 -0.62799,0.43615 -1.05833,0.43615 h -0.9772 c -0.403203,0 -0.749992,-0.14357 -1.040764,-0.43047 -0.290772,-0.28689 -0.43615,-0.63188 -0.43615,-1.03508 v -3.16931 H 98.27445 c -0.135694,0 -0.251894,-0.047 -0.348816,-0.14005 -0.09305,-0.0931 -0.139528,-0.20925 -0.139528,-0.34881 0,-0.1357 0.04648,-0.25009 0.139528,-0.34313 0.09692,-0.0969 0.213122,-0.14521 0.348816,-0.14521 h 0.511596 v -1.19786 c 0,-0.1357 0.04699,-0.2501 0.140043,-0.34314 0.09692,-0.0969 0.213122,-0.14572 0.348817,-0.14572 z m -32.961813,1.67483 c 0.135691,0 0.250086,0.0506 0.343131,0.15141 0.09692,0.0969 0.145211,0.21312 0.145211,0.34882 v 4.63486 c 0,0.13181 -0.04829,0.2462 -0.145211,0.34313 -0.09692,0.0969 -0.211317,0.14573 -0.343131,0.14573 -0.131817,0 -0.246209,-0.0488 -0.343132,-0.14573 -0.09692,-0.0969 -0.145211,-0.21132 -0.145211,-0.34313 V 144.967 l -0.849044,0.55242 c -0.333416,0.21323 -0.670654,0.31988 -1.011824,0.31988 h -0.453719 c -0.399325,0 -0.742501,-0.13997 -1.029395,-0.4191 -0.28689,-0.27915 -0.440018,-0.62 -0.459403,-1.02319 l -0.139526,-3.68143 c -0.0077,-0.12794 0.03692,-0.24001 0.133841,-0.33693 0.1008,-0.1008 0.218808,-0.15141 0.354501,-0.15141 0.131816,0 0.244401,0.0483 0.337447,0.14521 0.09692,0.0969 0.147018,0.2113 0.150895,0.34313 l 0.128158,3.61166 c 0.01163,0.34892 0.211231,0.52297 0.598929,0.52297 h 0.593246 l 1.645894,-1.04645 v -3.08818 c 0,-0.1357 0.04648,-0.2519 0.139527,-0.34882 0.09692,-0.1008 0.213123,-0.15141 0.348816,-0.15141 z m 3.221508,0 c 0.131817,0 0.246209,0.0506 0.343132,0.15141 0.09692,0.0969 0.145727,0.21312 0.145727,0.34882 v 0.32556 l 0.889352,-0.54054 c 0.298524,-0.18997 0.636278,-0.28525 1.012341,-0.28525 h 0.453202 c 0.387694,0 0.723124,0.13763 1.00614,0.4129 0.283017,0.27526 0.432528,0.61482 0.448035,1.01802 l 0.133842,3.70417 c 0.0039,0.13181 -0.04306,0.2462 -0.140043,0.34313 -0.09692,0.0969 -0.213123,0.14573 -0.348816,0.14573 -0.127938,0 -0.240008,-0.0429 -0.33693,-0.12816 -0.09692,-0.0892 -0.147535,-0.2095 -0.151412,-0.3607 l -0.145211,-3.64629 c -0.01163,-0.34117 -0.190317,-0.5116 -0.535368,-0.5116 h -0.476457 c -0.147322,0 -0.306387,0.056 -0.476973,0.16847 l -1.331702,0.86661 v 3.12281 c 0,0.13181 -0.0488,0.2462 -0.145727,0.34313 -0.09692,0.0969 -0.211315,0.14573 -0.343132,0.14573 -0.131815,0 -0.246208,-0.0488 -0.343131,-0.14573 -0.09692,-0.0969 -0.145211,-0.21132 -0.145211,-0.34313 v -4.63486 c 0,-0.1357 0.04648,-0.2519 0.139526,-0.34882 0.09692,-0.1008 0.213124,-0.15141 0.348816,-0.15141 z m 15.6962,0.0119 h 1.372008 c 0.345048,0 0.670925,0.14357 0.977201,0.43046 l 0.366387,0.34882 c 0.263631,0.2365 0.395325,0.58923 0.395325,1.05833 v 1.18081 c 0,0.13181 -0.04829,0.24568 -0.145212,0.34261 -0.09692,0.0969 -0.211314,0.14573 -0.34313,0.14573 h -3.454569 v 0.28474 c 0,0.1667 0.07204,0.30846 0.21549,0.42478 l 0.284737,0.23822 c 0.155077,0.12019 0.302262,0.18036 0.441833,0.18036 h 2.512509 c 0.131816,0 0.246208,0.0483 0.34313,0.14521 0.09692,0.093 0.145212,0.20743 0.145212,0.34313 0,0.13181 -0.0501,0.2462 -0.150895,0.34313 -0.09692,0.0969 -0.20951,0.14573 -0.337447,0.14573 h -2.57607 c -0.170585,0 -0.351084,-0.0351 -0.541052,-0.10491 -0.186092,-0.0737 -0.323726,-0.14933 -0.412896,-0.22686 l -0.436149,-0.38395 c -0.135695,-0.10856 -0.250084,-0.25936 -0.343131,-0.4532 -0.08917,-0.19386 -0.133842,-0.37255 -0.133842,-0.53537 v -2.23863 c 0,-0.12794 0.0488,-0.30068 0.145728,-0.51779 0.100801,-0.21712 0.226554,-0.38573 0.377753,-0.50592 l 0.407212,-0.31987 c 0.267507,-0.2171 0.564206,-0.32556 0.889868,-0.32556 z m 7.187674,0 h 1.372526 c 0.345048,0 0.670406,0.14357 0.976685,0.43046 l 0.366385,0.34882 c 0.263633,0.2365 0.395327,0.58923 0.395327,1.05833 v 1.18081 c 0,0.13181 -0.04829,0.24568 -0.145211,0.34261 -0.09692,0.0969 -0.211318,0.14573 -0.343133,0.14573 h -3.454051 v 0.28474 c 0,0.1667 0.07153,0.30846 0.214974,0.42478 l 0.284737,0.23822 c 0.155077,0.12019 0.302778,0.18036 0.442349,0.18036 h 2.511991 c 0.131815,0 0.246208,0.0483 0.343133,0.14521 0.09692,0.093 0.145211,0.20743 0.145211,0.34313 0,0.13181 -0.0501,0.2462 -0.150897,0.34313 -0.09692,0.0969 -0.209508,0.14573 -0.337447,0.14573 h -2.576071 c -0.170585,0 -0.351081,-0.0351 -0.541052,-0.10491 -0.186092,-0.0737 -0.323723,-0.14933 -0.412893,-0.22686 l -0.436149,-0.38395 c -0.135694,-0.10856 -0.250087,-0.25936 -0.343133,-0.4532 -0.08917,-0.19386 -0.133324,-0.37255 -0.133324,-0.53537 v -2.23863 c 0,-0.12794 0.04829,-0.30068 0.145212,-0.51779 0.100798,-0.21712 0.226552,-0.38573 0.377753,-0.50592 l 0.40721,-0.31987 c 0.267509,-0.2171 0.564205,-0.32556 0.889868,-0.32556 z m -7.117911,0.98857 c -0.151202,0 -0.288832,0.0524 -0.412896,0.15709 l -0.285252,0.23823 c -0.127939,0.0969 -0.19172,0.2232 -0.19172,0.37827 v 0.75603 h 2.965709 v -0.68058 c 0,-0.18221 -0.05603,-0.32166 -0.168465,-0.41858 l -0.285253,-0.25011 c -0.147322,-0.1202 -0.279016,-0.18035 -0.395324,-0.18035 z m 7.187673,0 c -0.151196,0 -0.288829,0.0524 -0.412893,0.15709 l -0.284736,0.23823 c -0.127939,0.0969 -0.192239,0.2232 -0.192239,0.37827 v 0.75603 h 2.965712 v -0.68058 c 0,-0.18221 -0.05604,-0.32166 -0.168465,-0.41858 l -0.284737,-0.25011 c -0.147325,-0.1202 -0.279532,-0.18035 -0.395843,-0.18035 z"
         id="path854"
         inkscape:connector-curvature="0" />
      <path
         sodipodi:type="inkscape:offset"
         inkscape:radius="0.47476596"
         inkscape:original="M 39.824219 140.73438 C 39.455621 140.72637 39.069572 140.77076 38.667969 140.87695 C 38.413706 140.87295 38.158465 140.7852 37.904297 140.8418 C 34.343196 141.9006 33.600484 146.39957 34.417969 149.54688 C 35.459532 151.78778 37.182398 153.73807 39.900391 153.05078 C 41.098517 153.10388 42.029512 152.63166 42.732422 151.87695 C 43.972638 154.23647 47.013483 155.30927 49.970703 154.49023 C 50.265039 154.34628 50.531876 154.159 50.773438 153.9375 C 50.947814 154.11354 51.134852 154.26994 51.335938 154.40234 C 53.529083 154.72214 54.76503 153.57947 56.878906 154.57031 C 57.239119 154.42301 57.552966 154.22858 57.832031 154.00391 C 57.888891 154.04681 57.945404 154.09009 58.007812 154.13281 C 60.532418 155.54623 63.737358 155.16788 65.433594 153.49414 C 66.335847 154.43454 67.625437 154.94728 69.267578 154.60938 C 70.894229 154.96096 71.995806 154.47063 72.681641 153.55664 C 73.580785 154.45756 74.84937 154.93994 76.455078 154.60938 C 78.310389 155.00981 79.487484 154.31092 80.140625 153.13281 C 82.475556 155.56119 88.17711 155.04306 87.787109 150.52539 C 86.401994 148.49057 88.251439 144.78118 84.539062 144.23828 C 84.04404 143.31723 82.988246 142.71674 81.939453 142.81836 C 80.763274 143.0681 79.61704 144.10898 78.982422 145.34766 C 77.904584 144.50189 76.473732 144.33442 75.095703 144.50586 C 73.892521 144.59826 72.979941 145.10454 72.330078 145.8418 C 71.199225 144.58603 69.553693 144.29664 67.910156 144.50391 C 66.378203 144.62179 65.311088 145.40567 64.667969 146.49023 C 64.175265 144.83546 64.609895 142.83022 63.154297 142.38086 C 61.895565 142.39606 60.634882 142.35647 59.376953 142.38867 C 57.85753 142.40207 56.98789 143.65194 56.894531 144.94922 C 55.885496 144.2642 54.618058 144.03713 53.173828 144.59961 C 52.851913 144.50231 52.487414 144.4432 52.152344 144.49609 C 51.624356 144.62121 51.172195 144.86201 50.789062 145.18555 C 50.485994 144.91046 50.142742 144.68608 49.753906 144.5332 C 49.479608 144.5196 49.204288 144.42507 48.929688 144.49609 C 47.715541 145.25908 45.687902 144.55574 44.232422 144.82617 C 43.596029 142.72293 42.017501 140.78516 39.824219 140.73438 z "
         style="font-size:12.69999981px;fill:none;stroke:#000000;stroke-width:0.29821756;stroke-miterlimit:4;stroke-dasharray:none;stroke-opacity:1"
         id="path844"
         d="m 39.833984,140.25977 c -0.372443,-0.008 -0.761941,0.0492 -1.158203,0.14257 -3.34e-4,0 -0.0016,1e-5 -0.002,0 -0.150412,-0.003 -0.452374,-0.11711 -0.873047,-0.0234 a 0.47481343,0.47481343 0 0 0 -0.03125,0.008 c -1.947985,0.57918 -3.141023,2.12389 -3.703125,3.8789 -0.562101,1.75502 -0.538798,3.7396 -0.107422,5.4004 a 0.47481343,0.47481343 0 0 0 0.0293,0.0801 c 0.540765,1.16345 1.261744,2.27678 2.25586,3.0293 0.994115,0.75252 2.287852,1.11198 3.773437,0.73633 l -0.138672,0.0137 c 1.126902,0.0499 2.031897,-0.39122 2.769532,-1.01562 1.493258,2.25695 4.503663,3.2533 7.449218,2.4375 a 0.47481343,0.47481343 0 0 0 0.08203,-0.0312 c 0.209144,-0.10229 0.380955,-0.25242 0.564453,-0.38868 0.109473,0.0913 0.210582,0.19281 0.330078,0.27149 a 0.47481343,0.47481343 0 0 0 0.193359,0.0742 c 1.189066,0.17338 2.120004,-0.0504 2.9375,-0.16797 0.817496,-0.11754 1.511422,-0.15564 2.472656,0.29492 a 0.47481343,0.47481343 0 0 0 0.38086,0.01 c 0.286285,-0.11707 0.516357,-0.28705 0.753906,-0.44922 2.550306,1.40916 5.665229,1.10832 7.587891,-0.48438 0.965615,0.84468 2.287298,1.29781 3.859375,1.00586 1.493956,0.29579 2.664564,-0.11216 3.455078,-0.89844 0.957337,0.77762 2.237144,1.18379 3.748047,0.89844 1.708819,0.33147 2.985008,-0.26966 3.763671,-1.29297 1.322425,1.08556 3.207376,1.49608 4.867188,1.10742 0.917251,-0.21478 1.768799,-0.67598 2.363281,-1.41992 0.594483,-0.74394 0.908827,-1.76324 0.802735,-2.99218 a 0.47481343,0.47481343 0 0 0 -0.08008,-0.22657 c -0.561734,-0.82522 -0.488091,-2.17439 -0.673829,-3.50195 -0.09287,-0.66378 -0.266822,-1.3362 -0.71875,-1.89258 -0.41451,-0.51031 -1.082651,-0.85725 -1.964843,-1.0293 -0.6219,-0.97952 -1.746586,-1.60272 -2.927735,-1.48828 a 0.47481343,0.47481343 0 0 0 -0.05273,0.008 c -1.223854,0.25986 -2.259161,1.23097 -2.972656,2.38086 -1.145151,-0.70795 -2.51895,-0.85888 -3.81836,-0.69922 -1.129814,0.0886 -2.011365,0.56656 -2.708984,1.20898 -1.235041,-1.1207 -2.88448,-1.40851 -4.474609,-1.21094 -1.213736,0.0949 -2.183836,0.59497 -2.900391,1.31641 -0.06477,-0.48817 -0.140884,-0.96371 -0.226563,-1.44922 -0.07257,-0.41122 -0.178347,-0.81154 -0.40039,-1.16992 -0.222044,-0.35838 -0.579566,-0.65907 -1.044922,-0.80274 a 0.47481343,0.47481343 0 0 0 -0.146484,-0.0215 c -1.242382,0.015 -2.502088,-0.0245 -3.775391,0.008 -0.889078,0.008 -1.63086,0.39284 -2.128906,0.95899 -0.345122,0.39231 -0.54134,0.87491 -0.671875,1.375 -0.996487,-0.4746 -2.183677,-0.58329 -3.455078,-0.1211 -0.323434,-0.082 -0.667006,-0.15833 -1.039063,-0.0996 a 0.47481343,0.47481343 0 0 0 -0.03516,0.006 c -0.472243,0.11191 -0.853756,0.36253 -1.22461,0.61914 -0.2764,-0.2129 -0.552733,-0.42769 -0.890625,-0.56054 a 0.47481343,0.47481343 0 0 0 -0.15039,-0.0332 c -0.181315,-0.009 -0.518846,-0.13733 -0.966797,-0.0215 a 0.47481343,0.47481343 0 0 0 -0.132813,0.0566 c -0.450616,0.28317 -1.162304,0.32276 -1.980468,0.27734 -0.693623,-0.0385 -1.436888,-0.10043 -2.160157,-0.0332 -0.348859,-0.98516 -0.861224,-1.93024 -1.58789,-2.66211 -0.815293,-0.82112 -1.879569,-1.38745 -3.113281,-1.41601 a 0.47481343,0.47481343 0 0 0 -0.002,0 z"
         transform="translate(-24.121075,19.310224)" />
      <path
         d="m 17.449446,150.94308 v 1.44455 q 0,0.24424 -0.174462,0.42568 -0.167483,0.17446 -0.41173,0.17446 -0.244247,0 -0.418709,-0.17446 -0.167484,-0.18144 -0.167484,-0.42568 v -1.44455 h -0.600149 q -0.244247,0 -0.418709,-0.16748 -0.167484,-0.17447 -0.167484,-0.41872 0,-0.23726 0.167484,-0.41173 0.174462,-0.17446 0.418709,-0.17446 h 0.586192 v -1.33988 h -0.586192 q -0.244247,0 -0.418709,-0.16747 -0.167484,-0.17446 -0.167484,-0.41872 0,-0.25122 0.167484,-0.4187 0.174462,-0.16748 0.418709,-0.16748 h 0.600149 v -1.44455 q 0,-0.24425 0.167484,-0.41173 0.174462,-0.17447 0.418709,-0.17447 0.237268,0 0.41173,0.17447 0.174462,0.17446 0.174462,0.41173 v 1.44455 h 1.172386 v -1.44455 q 0,-0.24425 0.174463,-0.41173 0.174462,-0.17447 0.411731,-0.17447 0.244246,0 0.418708,0.17447 0.181441,0.17446 0.181441,0.41173 v 1.44455 h 0.600149 q 0.237268,0 0.41173,0.17445 0.174463,0.16749 0.174463,0.41173 0,0.25124 -0.188419,0.4257 -0.18842,0.17445 -0.397774,0.17445 h -0.586192 v 1.32592 h 0.586192 q 0.230291,0 0.404752,0.17446 0.181441,0.17447 0.181441,0.41173 0,0.23028 -0.167483,0.41174 -0.160505,0.17446 -0.41871,0.17446 h -0.600149 v 1.44455 q 0,0.24424 -0.181441,0.42568 -0.174462,0.17446 -0.418708,0.17446 -0.237269,0 -0.411731,-0.17446 -0.174463,-0.18144 -0.174463,-0.42568 v -1.44455 z m 0,-2.49831 v 1.32592 h 1.172386 v -1.32592 z"
         style="font-size:12.69999981px;fill:#000000;stroke-width:0.29774868"
         id="path829"
         inkscape:connector-curvature="0" />
    </g>
  </g>
</svg>
