<?xml version="1.0" encoding="UTF-8" standalone="no"?>
<!-- Created with Inkscape (http://www.inkscape.org/) -->

<svg
   xmlns:dc="http://purl.org/dc/elements/1.1/"
   xmlns:cc="http://creativecommons.org/ns#"
   xmlns:rdf="http://www.w3.org/1999/02/22-rdf-syntax-ns#"
   xmlns:svg="http://www.w3.org/2000/svg"
   xmlns="http://www.w3.org/2000/svg"
   xmlns:sodipodi="http://sodipodi.sourceforge.net/DTD/sodipodi-0.dtd"
   xmlns:inkscape="http://www.inkscape.org/namespaces/inkscape"
   width="57.974438mm"
   height="22.94735mm"
   viewBox="0 0 57.974438 22.94735"
   version="1.1"
   id="svg8"
   inkscape:version="0.92.3 (2405546, 2018-03-11)"
   sodipodi:docname="hashtag_unleet.svg">
  <defs
     id="defs2" />
  <sodipodi:namedview
     id="base"
     pagecolor="#ffffff"
     bordercolor="#666666"
     borderopacity="1.0"
     inkscape:pageopacity="0.0"
     inkscape:pageshadow="2"
     inkscape:zoom="1.979899"
     inkscape:cx="79.134762"
     inkscape:cy="37.60828"
     inkscape:document-units="mm"
     inkscape:current-layer="text817"
     showgrid="false"
     fit-margin-top="5"
     fit-margin-left="5"
     fit-margin-right="5"
     fit-margin-bottom="5"
     inkscape:window-width="1520"
     inkscape:window-height="1068"
     inkscape:window-x="2024"
     inkscape:window-y="104"
     inkscape:window-maximized="0" />
  <metadata
     id="metadata5">
    <rdf:RDF>
      <cc:Work
         rdf:about="">
        <dc:format>image/svg+xml</dc:format>
        <dc:type
           rdf:resource="http://purl.org/dc/dcmitype/StillImage" />
        <dc:title></dc:title>
      </cc:Work>
    </rdf:RDF>
  </metadata>
  <g
     inkscape:label="Layer 1"
     inkscape:groupmode="layer"
     id="layer1"
     transform="translate(-31.973808,-136.39439)">
    <g
       aria-label="#un1eet"
       style="font-style:normal;font-weight:normal;font-size:10.58333302px;line-height:1.25;font-family:sans-serif;letter-spacing:0px;word-spacing:0px;fill:#000000;fill-opacity:1;stroke:none;stroke-width:0.26458332"
       id="text817">
      <g
         id="g881"
         transform="matrix(1.0332484,0,0,1.0332484,-4.2361035,-5.511195)">
        <path
           sodipodi:nodetypes="ccccccccccccccccccccccccccccccccccc"
           inkscape:connector-curvature="0"
           id="path844"
           d="m 42.641656,141.53968 c -0.356737,-0.008 -0.73022,0.0351 -1.1189,0.1379 -0.246081,-0.004 -0.492441,-0.089 -0.73843,-0.0343 -3.44651,1.02473 -4.164765,5.38005 -3.373586,8.42608 1.008047,2.16879 2.674676,4.05622 5.305208,3.39104 1.159572,0.0514 2.06124,-0.40705 2.741531,-1.13748 1.200308,2.2836 4.143452,3.32316 7.005513,2.53048 0.284865,-0.13932 0.542913,-0.32145 0.776701,-0.53582 0.168765,0.17038 0.349639,0.32269 0.544253,0.45083 2.122573,0.30951 3.319016,-0.79742 5.364871,0.16153 0.348622,-0.14256 0.652388,-0.33019 0.922473,-0.54763 0.05503,0.0415 0.108449,0.083 0.168849,0.12438 2.443367,1.36794 5.546776,1.00246 7.188429,-0.61742 0.87322,0.91014 2.119735,1.40598 3.709034,1.07894 1.574308,0.34028 2.640592,-0.13357 3.304357,-1.01815 0.870211,0.87193 2.098148,1.33808 3.652187,1.01815 1.79561,0.38754 2.936203,-0.28938 3.568327,-1.42958 2.259796,2.35024 7.77694,1.84971 7.399489,-2.52259 -1.340544,-1.96934 0.448963,-5.56042 -3.143954,-6.08585 -0.479093,-0.89141 -1.499667,-1.47278 -2.514712,-1.37443 -1.138331,0.2417 -2.248341,1.24892 -2.862538,2.44774 -1.043155,-0.81855 -2.427691,-0.97977 -3.761377,-0.81385 -1.164465,0.0894 -2.048416,0.57984 -2.677367,1.29338 -1.094464,-1.21536 -2.686276,-1.49623 -4.276926,-1.29563 -1.482657,0.11408 -2.516464,0.87296 -3.138888,1.92262 -0.476849,-1.60152 -0.05516,-3.5426 -1.463915,-3.9775 -1.218228,0.0147 -2.439237,-0.0234 -3.656688,0.008 -1.47053,0.013 -2.312354,1.22315 -2.402709,2.47869 -0.976566,-0.66298 -2.202649,-0.8832 -3.600406,-0.33882 -0.311556,-0.0942 -0.665163,-0.15079 -0.98945,-0.0996 -0.510999,0.12109 -0.947901,0.35438 -1.318706,0.66751 -0.293315,-0.26624 -0.625508,-0.48353 -1.001832,-0.63149 -0.265472,-0.0132 -0.532324,-0.10474 -0.798089,-0.036 -1.175078,0.73843 -3.137312,0.0574 -4.545956,0.31912 -0.615915,-2.03557 -2.144088,-3.91146 -4.266793,-3.96061 z"
           style="font-size:12.69999981px;fill:#ffffff;stroke:#000000;stroke-width:0.28862137;stroke-miterlimit:4;stroke-dasharray:none;stroke-opacity:1" />
        <path
           inkscape:connector-curvature="0"
           id="path829"
           style="font-size:12.69999981px;fill:#800080;stroke-width:0.28816757"
           d="m 41.551941,149.34525 v 1.39807 q 0,0.23638 -0.168848,0.41198 -0.162094,0.16885 -0.398481,0.16885 -0.236388,0 -0.405236,-0.16885 -0.162094,-0.1756 -0.162094,-0.41198 v -1.39807 h -0.580838 q -0.236387,0 -0.405235,-0.16209 -0.162095,-0.16885 -0.162095,-0.40524 0,-0.22963 0.162095,-0.39848 0.168848,-0.16885 0.405235,-0.16885 h 0.56733 v -1.29676 h -0.56733 q -0.236387,0 -0.405235,-0.16209 -0.162095,-0.16884 -0.162095,-0.40524 0,-0.24314 0.162095,-0.40523 0.168848,-0.16209 0.405235,-0.16209 h 0.580838 v -1.39807 q 0,-0.23639 0.162094,-0.39848 0.168848,-0.16885 0.405236,-0.16885 0.229633,0 0.398481,0.16885 0.168848,0.16885 0.168848,0.39848 v 1.39807 h 1.13466 v -1.39807 q 0,-0.23639 0.168849,-0.39848 0.168848,-0.16885 0.398482,-0.16885 0.236387,0 0.405235,0.16885 0.175603,0.16885 0.175603,0.39848 v 1.39807 h 0.580837 q 0.229633,0 0.398481,0.16884 0.168849,0.1621 0.168849,0.39848 0,0.24315 -0.182356,0.412 -0.182357,0.16884 -0.384974,0.16884 h -0.56733 v 1.28325 h 0.56733 q 0.22288,0 0.391727,0.16885 0.175603,0.16885 0.175603,0.39848 0,0.22287 -0.162094,0.39849 -0.15534,0.16884 -0.405236,0.16884 H 43.83477 v 1.39807 q 0,0.23638 -0.175603,0.41198 -0.168848,0.16885 -0.405235,0.16885 -0.229634,0 -0.398482,-0.16885 -0.168849,-0.1756 -0.168849,-0.41198 v -1.39807 z m 0,-2.41791 v 1.28325 h 1.13466 v -1.28325 z" />
        <path
           inkscape:connector-curvature="0"
           id="path831"
           style="font-style:normal;font-variant:normal;font-weight:normal;font-stretch:normal;font-family:'OCR A Extended';-inkscape-font-specification:'OCR A Extended';stroke-width:0.28816757"
           d="m 49.629639,151.83294 1.592801,-1.01308 v -2.98861 q 0,-0.197 0.135079,-0.3377 0.140707,-0.14634 0.337696,-0.14634 0.19699,0 0.332068,0.14634 0.140707,0.1407 0.140707,0.3377 v 4.48573 q 0,0.19136 -0.140707,0.33207 -0.140706,0.1407 -0.332068,0.1407 -0.191361,0 -0.332068,-0.1407 -0.140707,-0.14071 -0.140707,-0.33207 v -0.37146 l -0.821728,0.53468 q -0.484031,0.30955 -0.979319,0.30955 h -0.439005 q -0.579712,0 -0.996205,-0.40523 -0.416491,-0.40524 -0.444633,-0.99057 l -0.135079,-3.5627 q -0.01125,-0.18573 0.129451,-0.32644 0.146335,-0.14634 0.343324,-0.14634 0.191362,0 0.32644,0.14071 0.140706,0.1407 0.146335,0.33207 l 0.123822,3.49515 q 0.01688,0.50654 0.579713,0.50654 z" />
        <path
           inkscape:connector-curvature="0"
           id="path833"
           style="font-style:normal;font-variant:normal;font-weight:normal;font-stretch:normal;font-family:'OCR A Extended';-inkscape-font-specification:'OCR A Extended';stroke-width:0.28816757"
           d="m 56.574927,148.45599 -1.288874,0.83861 v 3.02238 q 0,0.19136 -0.140707,0.33207 -0.140706,0.1407 -0.332068,0.1407 -0.191361,0 -0.332068,-0.1407 -0.140707,-0.14071 -0.140707,-0.33207 v -4.48573 q 0,-0.197 0.135079,-0.3377 0.140707,-0.14634 0.337696,-0.14634 0.191362,0 0.332068,0.14634 0.140707,0.1407 0.140707,0.3377 v 0.31518 l 0.861125,-0.52343 q 0.433378,-0.27579 0.97932,-0.27579 h 0.439006 q 0.562827,0 0.973691,0.39961 0.410864,0.39961 0.433377,0.98495 l 0.12945,3.58521 q 0.0057,0.19136 -0.135078,0.33207 -0.140707,0.1407 -0.337697,0.1407 -0.185733,0 -0.326439,-0.12382 -0.140707,-0.12945 -0.146336,-0.34895 l -0.140707,-3.52893 q -0.01688,-0.49528 -0.5178,-0.49528 h -0.461519 q -0.213874,0 -0.461519,0.16322 z" />
        <path
           inkscape:connector-curvature="0"
           id="path835"
           style="font-style:normal;font-variant:normal;font-weight:normal;font-stretch:normal;font-family:'OCR A Extended';-inkscape-font-specification:'OCR A Extended';stroke-width:0.28816757"
           d="m 61.736054,151.83294 h 1.452094 v -5.57761 h -1.429581 q -0.19699,0 -0.337696,-0.13509 -0.135079,-0.1407 -0.135079,-0.33768 0,-0.19699 0.135079,-0.33207 0.140706,-0.14072 0.337696,-0.14072 h 2.375131 v 6.52317 h 0.94555 v -1.96989 q 0,-0.19136 0.135079,-0.33206 0.140707,-0.14071 0.337696,-0.14071 0.19699,0 0.332068,0.14071 0.140707,0.13507 0.140707,0.33206 v 2.44267 q 0,0.19699 -0.140707,0.33769 -0.135078,0.13509 -0.332068,0.13509 h -3.815969 q -0.196989,0 -0.337696,-0.14071 -0.135079,-0.14633 -0.135079,-0.34332 0,-0.19137 0.135079,-0.32644 0.140707,-0.13509 0.337696,-0.13509 z" />
        <path
           inkscape:connector-curvature="0"
           id="path837"
           style="font-style:normal;font-variant:normal;font-weight:normal;font-stretch:normal;font-family:'OCR A Extended';-inkscape-font-specification:'OCR A Extended';stroke-width:0.28816757"
           d="m 73.015113,149.137 v 1.14254 q 0,0.19136 -0.140707,0.33207 -0.140707,0.14071 -0.332068,0.14071 h -3.343194 v 0.27578 q 0,0.24202 0.208246,0.41087 l 0.275785,0.23076 q 0.225131,0.17448 0.427749,0.17448 h 2.431414 q 0.191361,0 0.332068,0.1407 0.140707,0.13508 0.140707,0.33207 0,0.19136 -0.146335,0.33207 -0.140707,0.1407 -0.32644,0.1407 h -2.493325 q -0.247644,0 -0.52343,-0.10129 -0.270156,-0.10695 -0.399606,-0.21949 l -0.42212,-0.37147 q -0.196991,-0.15759 -0.332069,-0.439 -0.12945,-0.28143 -0.12945,-0.51781 v -2.16688 q 0,-0.18573 0.140707,-0.50092 0.146335,-0.31519 0.365838,-0.48967 l 0.393979,-0.30955 q 0.38835,-0.31517 0.861125,-0.31517 h 1.328273 q 0.500916,0 0.945549,0.41648 l 0.354581,0.3377 q 0.382723,0.34333 0.382723,1.02434 z M 69.2104,149.0638 v 0.73168 h 2.870419 v -0.65851 q 0,-0.26453 -0.163219,-0.40523 l -0.275786,-0.24202 q -0.213874,-0.17447 -0.382722,-0.17447 h -1.187565 q -0.219503,0 -0.399608,0.15196 l -0.275785,0.23076 Q 69.2104,148.83868 69.2104,149.0638 Z" />
        <path
           inkscape:connector-curvature="0"
           id="path839"
           style="font-style:normal;font-variant:normal;font-weight:normal;font-stretch:normal;font-family:'OCR A Extended';-inkscape-font-specification:'OCR A Extended';stroke-width:0.28816757"
           d="m 79.971661,149.137 v 1.14254 q 0,0.19136 -0.140707,0.33207 -0.140707,0.14071 -0.332068,0.14071 h -3.343194 v 0.27578 q 0,0.24202 0.208246,0.41087 l 0.275785,0.23076 q 0.225131,0.17448 0.427749,0.17448 h 2.431414 q 0.191361,0 0.332068,0.1407 0.140707,0.13508 0.140707,0.33207 0,0.19136 -0.146336,0.33207 -0.140707,0.1407 -0.326439,0.1407 h -2.493325 q -0.247644,0 -0.52343,-0.10129 -0.270156,-0.10695 -0.399607,-0.21949 l -0.42212,-0.37147 q -0.19699,-0.15759 -0.332068,-0.439 -0.12945,-0.28143 -0.12945,-0.51781 v -2.16688 q 0,-0.18573 0.140706,-0.50092 0.146336,-0.31519 0.365838,-0.48967 l 0.393979,-0.30955 q 0.388351,-0.31517 0.861126,-0.31517 h 1.328272 q 0.500916,0 0.94555,0.41648 l 0.354581,0.3377 q 0.382723,0.34333 0.382723,1.02434 z m -3.804713,-0.0732 v 0.73168 h 2.870419 v -0.65851 q 0,-0.26453 -0.163219,-0.40523 l -0.275786,-0.24202 q -0.213874,-0.17447 -0.382723,-0.17447 h -1.187565 q -0.219502,0 -0.399608,0.15196 l -0.275784,0.23076 q -0.185734,0.14071 -0.185734,0.36583 z" />
        <path
           inkscape:connector-curvature="0"
           id="path841"
           style="font-style:normal;font-variant:normal;font-weight:normal;font-stretch:normal;font-family:'OCR A Extended';-inkscape-font-specification:'OCR A Extended';stroke-width:0.28816757"
           d="m 85.487369,152.78975 h -0.945551 q -0.585339,0 -1.007461,-0.41649 -0.42212,-0.41649 -0.42212,-1.00183 v -3.06741 h -0.484031 q -0.19699,0 -0.337697,-0.13508 -0.135078,-0.13508 -0.135078,-0.33769 0,-0.197 0.135078,-0.33207 0.140707,-0.14071 0.337697,-0.14071 h 0.495287 v -1.15943 q 0,-0.19699 0.135079,-0.33206 0.140707,-0.14071 0.337696,-0.14071 0.185734,0 0.326441,0.14071 0.146334,0.1407 0.146334,0.33206 v 1.15943 H 85.9714 q 0.191361,0 0.332068,0.14071 0.140707,0.1407 0.140707,0.33207 0,0.19699 -0.140707,0.33769 -0.140707,0.13508 -0.332068,0.13508 h -1.913613 v 3.06741 q 0,0.19136 0.140707,0.33207 0.146335,0.14071 0.343324,0.14071 h 0.923037 q 0.377094,0 0.500916,-0.40524 0.123822,-0.41087 0.478404,-0.41087 0.208246,0 0.337696,0.14071 0.135079,0.13507 0.135079,0.34333 0,0.42775 -0.405236,0.85549 -0.399607,0.42212 -1.024345,0.42212 z" />
      </g>
    </g>
  </g>
</svg>
