G04 #@! TF.FileFunction,Legend,Top*
%FSLAX46Y46*%
G04 Gerber Fmt 4.6, Leading zero omitted, Abs format (unit mm)*
G04 Created by KiCad (PCBNEW 4.0.7) date 07/12/18 15:29:07*
%MOMM*%
%LPD*%
G01*
G04 APERTURE LIST*
%ADD10C,0.100000*%
%ADD11C,0.150000*%
%ADD12C,0.010000*%
G04 APERTURE END LIST*
D10*
D11*
X130520000Y-82720000D02*
G75*
G03X130520000Y-82720000I-400000J0D01*
G01*
D12*
G36*
X155415125Y-87169474D02*
X155827884Y-87170324D01*
X156178734Y-87171797D01*
X156473364Y-87174009D01*
X156717463Y-87177080D01*
X156916722Y-87181125D01*
X157076829Y-87186264D01*
X157203473Y-87192612D01*
X157302344Y-87200289D01*
X157379132Y-87209412D01*
X157439525Y-87220098D01*
X157489214Y-87232465D01*
X157533886Y-87246631D01*
X157537334Y-87247818D01*
X157915388Y-87422652D01*
X158257750Y-87671029D01*
X158559207Y-87987504D01*
X158814551Y-88366631D01*
X159014066Y-88791219D01*
X159116550Y-89082457D01*
X159207999Y-89399370D01*
X159290469Y-89752425D01*
X159366015Y-90152088D01*
X159436690Y-90608824D01*
X159504551Y-91133099D01*
X159547208Y-91506667D01*
X159615676Y-92094324D01*
X159688066Y-92643827D01*
X159762950Y-93146348D01*
X159838902Y-93593064D01*
X159914495Y-93975149D01*
X159988302Y-94283779D01*
X160007148Y-94351333D01*
X160059552Y-94532332D01*
X160286376Y-94194250D01*
X160761200Y-93559323D01*
X161289572Y-92988373D01*
X161868152Y-92483658D01*
X162493599Y-92047438D01*
X163162574Y-91681973D01*
X163871734Y-91389523D01*
X164617741Y-91172348D01*
X164818667Y-91128216D01*
X165247278Y-91053318D01*
X165729859Y-90991500D01*
X166248949Y-90943410D01*
X166787091Y-90909693D01*
X167326826Y-90890997D01*
X167850696Y-90887967D01*
X168341243Y-90901251D01*
X168781008Y-90931495D01*
X169094334Y-90969848D01*
X169929872Y-91133959D01*
X170708376Y-91358699D01*
X171433697Y-91645868D01*
X172109691Y-91997266D01*
X172740212Y-92414692D01*
X173329114Y-92899947D01*
X173431806Y-92995403D01*
X173821608Y-93364311D01*
X174135554Y-93045743D01*
X174661784Y-92570202D01*
X175248273Y-92147124D01*
X175884941Y-91781845D01*
X176561710Y-91479701D01*
X177268500Y-91246029D01*
X177753258Y-91130546D01*
X178210004Y-91051830D01*
X178717056Y-90987747D01*
X179256484Y-90938981D01*
X179810355Y-90906219D01*
X180360740Y-90890146D01*
X180889706Y-90891450D01*
X181379323Y-90910816D01*
X181811660Y-90948930D01*
X181963667Y-90969446D01*
X182735638Y-91115687D01*
X183464745Y-91312925D01*
X184143307Y-91558307D01*
X184763646Y-91848979D01*
X185318083Y-92182086D01*
X185422618Y-92255149D01*
X185562173Y-92353359D01*
X185672891Y-92427653D01*
X185739205Y-92467772D01*
X185751065Y-92471623D01*
X185774804Y-92432306D01*
X185832310Y-92334775D01*
X185914783Y-92194005D01*
X186007098Y-92035834D01*
X186497770Y-91274572D01*
X187051001Y-90565653D01*
X187661925Y-89914476D01*
X188325673Y-89326442D01*
X188719925Y-89025805D01*
X188981714Y-88852261D01*
X189292561Y-88670490D01*
X189630571Y-88491383D01*
X189973847Y-88325833D01*
X190300493Y-88184729D01*
X190588612Y-88078966D01*
X190677960Y-88051844D01*
X190843875Y-88006997D01*
X190981335Y-87977002D01*
X191113547Y-87959775D01*
X191263715Y-87953228D01*
X191455046Y-87955277D01*
X191672794Y-87962418D01*
X191973350Y-87977788D01*
X192216272Y-88001230D01*
X192428471Y-88036290D01*
X192636860Y-88086516D01*
X192657386Y-88092191D01*
X193237868Y-88295128D01*
X193794058Y-88569850D01*
X194314779Y-88908340D01*
X194788850Y-89302575D01*
X195205092Y-89744536D01*
X195484560Y-90120458D01*
X195619954Y-90312470D01*
X195730075Y-90442921D01*
X195809316Y-90505338D01*
X195821292Y-90509154D01*
X195900346Y-90525665D01*
X196039455Y-90555508D01*
X196215991Y-90593809D01*
X196335834Y-90619998D01*
X196993286Y-90797165D01*
X197584914Y-91026897D01*
X198112511Y-91310808D01*
X198577875Y-91650514D01*
X198982801Y-92047630D01*
X199329084Y-92503771D01*
X199618521Y-93020553D01*
X199852907Y-93599591D01*
X199933744Y-93856167D01*
X200005790Y-94128345D01*
X200072060Y-94433502D01*
X200133717Y-94779792D01*
X200191923Y-95175366D01*
X200247842Y-95628377D01*
X200302637Y-96146976D01*
X200357471Y-96739315D01*
X200376241Y-96957909D01*
X200420161Y-97467731D01*
X200459872Y-97903647D01*
X200496640Y-98276242D01*
X200531729Y-98596099D01*
X200566404Y-98873801D01*
X200601931Y-99119933D01*
X200639574Y-99345079D01*
X200680598Y-99559822D01*
X200696364Y-99636268D01*
X200854960Y-100261382D01*
X201057200Y-100840538D01*
X201297949Y-101359699D01*
X201381685Y-101509842D01*
X201574304Y-101839851D01*
X201551981Y-102737509D01*
X201528260Y-103275309D01*
X201482984Y-103748756D01*
X201411995Y-104176356D01*
X201311137Y-104576614D01*
X201176253Y-104968037D01*
X201003186Y-105369131D01*
X200924129Y-105532809D01*
X200669682Y-105998669D01*
X200390357Y-106410594D01*
X200064127Y-106799267D01*
X199870347Y-107000667D01*
X199331038Y-107479845D01*
X198735445Y-107896200D01*
X198084478Y-108249337D01*
X197379048Y-108538862D01*
X196620064Y-108764379D01*
X195808438Y-108925493D01*
X195277500Y-108993040D01*
X194941319Y-109016013D01*
X194548889Y-109024628D01*
X194127268Y-109019630D01*
X193703517Y-109001761D01*
X193304694Y-108971766D01*
X192957859Y-108930387D01*
X192949167Y-108929073D01*
X192070408Y-108759271D01*
X191233543Y-108524567D01*
X190442807Y-108226863D01*
X189702433Y-107868060D01*
X189016657Y-107450059D01*
X188389712Y-106974762D01*
X188173864Y-106785092D01*
X188037423Y-106662824D01*
X187925562Y-106567336D01*
X187851704Y-106509791D01*
X187829125Y-106498414D01*
X187801171Y-106537809D01*
X187736524Y-106632695D01*
X187645362Y-106768054D01*
X187556762Y-106900504D01*
X187139602Y-107458276D01*
X186681207Y-107942195D01*
X186180762Y-108352800D01*
X185637455Y-108690634D01*
X185050471Y-108956236D01*
X184418999Y-109150147D01*
X184059167Y-109225249D01*
X183682104Y-109273507D01*
X183250309Y-109297957D01*
X182790239Y-109298805D01*
X182328353Y-109276259D01*
X181891107Y-109230524D01*
X181737097Y-109207137D01*
X181511682Y-109170307D01*
X181346291Y-109147491D01*
X181217526Y-109138252D01*
X181101986Y-109142155D01*
X180976272Y-109158763D01*
X180816984Y-109187640D01*
X180805763Y-109189769D01*
X180641553Y-109216521D01*
X180460136Y-109236337D01*
X180246800Y-109250005D01*
X179986833Y-109258308D01*
X179665525Y-109262032D01*
X179444834Y-109262403D01*
X179113788Y-109261129D01*
X178851418Y-109257281D01*
X178641748Y-109249777D01*
X178468800Y-109237539D01*
X178316597Y-109219487D01*
X178169163Y-109194543D01*
X178036258Y-109167244D01*
X177290253Y-108969398D01*
X176598088Y-108709623D01*
X175952353Y-108384447D01*
X175345637Y-107990395D01*
X175063334Y-107773531D01*
X174908184Y-107644834D01*
X174763707Y-107519345D01*
X174652931Y-107417278D01*
X174621497Y-107385732D01*
X174523340Y-107299166D01*
X174441364Y-107256199D01*
X174392605Y-107263895D01*
X174386000Y-107288084D01*
X174356767Y-107342202D01*
X174277400Y-107440440D01*
X174160396Y-107569947D01*
X174018254Y-107717873D01*
X173863471Y-107871367D01*
X173708545Y-108017578D01*
X173565974Y-108143655D01*
X173505986Y-108192940D01*
X172978638Y-108558492D01*
X172407574Y-108853034D01*
X171796253Y-109075865D01*
X171148133Y-109226285D01*
X170466670Y-109303590D01*
X169755322Y-109307081D01*
X169017548Y-109236054D01*
X168659799Y-109176190D01*
X168487143Y-109146502D01*
X168350202Y-109134144D01*
X168215488Y-109139404D01*
X168049511Y-109162568D01*
X167936332Y-109182399D01*
X167633107Y-109224799D01*
X167272653Y-109255362D01*
X166879607Y-109273632D01*
X166478607Y-109279155D01*
X166094291Y-109271476D01*
X165751297Y-109250141D01*
X165546641Y-109226495D01*
X164786489Y-109077484D01*
X164073467Y-108859744D01*
X163401385Y-108570310D01*
X162764049Y-108206219D01*
X162155269Y-107764507D01*
X161738762Y-107403803D01*
X161431691Y-107119453D01*
X161194557Y-107336181D01*
X160584855Y-107838197D01*
X159911594Y-108290018D01*
X159181381Y-108688834D01*
X158400822Y-109031833D01*
X157576525Y-109316204D01*
X156715097Y-109539136D01*
X155823144Y-109697818D01*
X155567352Y-109730525D01*
X155271769Y-109756791D01*
X154914409Y-109775327D01*
X154516433Y-109786149D01*
X154099003Y-109789276D01*
X153683281Y-109784724D01*
X153290429Y-109772511D01*
X152941608Y-109752655D01*
X152681800Y-109728142D01*
X151964262Y-109618056D01*
X151229693Y-109462204D01*
X150508235Y-109268074D01*
X149830029Y-109043157D01*
X149648966Y-108974502D01*
X149307905Y-108835275D01*
X148969871Y-108686515D01*
X148652044Y-108536477D01*
X148371606Y-108393416D01*
X148145737Y-108265587D01*
X148060996Y-108211557D01*
X147937572Y-108132595D01*
X147839588Y-108077471D01*
X147791921Y-108059000D01*
X147735761Y-108083428D01*
X147642429Y-108145274D01*
X147593110Y-108182745D01*
X147416579Y-108310915D01*
X147188948Y-108459507D01*
X146935818Y-108613100D01*
X146682796Y-108756274D01*
X146455484Y-108873608D01*
X146411444Y-108894434D01*
X146101721Y-109037824D01*
X145628277Y-108847640D01*
X145173530Y-108678250D01*
X144728708Y-108541738D01*
X144283811Y-108437573D01*
X143828838Y-108365225D01*
X143353790Y-108324161D01*
X142848664Y-108313851D01*
X142303461Y-108333763D01*
X141708181Y-108383366D01*
X141052822Y-108462128D01*
X140343778Y-108566914D01*
X139859163Y-108641976D01*
X139442120Y-108701998D01*
X139077179Y-108748460D01*
X138748874Y-108782839D01*
X138441734Y-108806617D01*
X138140293Y-108821270D01*
X137829081Y-108828280D01*
X137598334Y-108829431D01*
X137316622Y-108826707D01*
X137040199Y-108819519D01*
X136789381Y-108808724D01*
X136584484Y-108795179D01*
X136455391Y-108781235D01*
X136288763Y-108750731D01*
X136146917Y-108708082D01*
X136012159Y-108643427D01*
X135866793Y-108546907D01*
X135693124Y-108408661D01*
X135521006Y-108260597D01*
X135353585Y-108113890D01*
X135237141Y-108016197D01*
X135157765Y-107962142D01*
X135101550Y-107946345D01*
X135054588Y-107963430D01*
X135002971Y-108008018D01*
X134964372Y-108045363D01*
X134817608Y-108171515D01*
X134621230Y-108321509D01*
X134399745Y-108478271D01*
X134177664Y-108624727D01*
X133979496Y-108743803D01*
X133902948Y-108784769D01*
X133709581Y-108865178D01*
X133443901Y-108949578D01*
X133117976Y-109034998D01*
X132743872Y-109118466D01*
X132333657Y-109197012D01*
X132010334Y-109250782D01*
X131707267Y-109288256D01*
X131342174Y-109317663D01*
X130932480Y-109338891D01*
X130495610Y-109351828D01*
X130048991Y-109356361D01*
X129610048Y-109352378D01*
X129196209Y-109339767D01*
X128824898Y-109318414D01*
X128513542Y-109288209D01*
X128412000Y-109273986D01*
X127406501Y-109080246D01*
X126455948Y-108822197D01*
X125560059Y-108499706D01*
X124718554Y-108112639D01*
X123931152Y-107660864D01*
X123197571Y-107144245D01*
X122517531Y-106562650D01*
X122335356Y-106386834D01*
X121787216Y-105800526D01*
X121314831Y-105201112D01*
X120909301Y-104577108D01*
X120840962Y-104458171D01*
X120804175Y-104391293D01*
X120773148Y-104327210D01*
X120746615Y-104257284D01*
X120723313Y-104172878D01*
X120701976Y-104065353D01*
X120681342Y-103926074D01*
X120660144Y-103746403D01*
X120637119Y-103517701D01*
X120611003Y-103231332D01*
X120580531Y-102878658D01*
X120544439Y-102451042D01*
X120540781Y-102407500D01*
X120457439Y-101373786D01*
X120385023Y-100388222D01*
X120323619Y-99453923D01*
X120273312Y-98574009D01*
X120234187Y-97751596D01*
X120206332Y-96989803D01*
X120189830Y-96291746D01*
X120185996Y-95813560D01*
X124339016Y-95813560D01*
X124339549Y-96026318D01*
X124344066Y-96313594D01*
X124352608Y-96677019D01*
X124365212Y-97118226D01*
X124381918Y-97638845D01*
X124402766Y-98240509D01*
X124427794Y-98924850D01*
X124432051Y-99038442D01*
X124456465Y-99685804D01*
X124478148Y-100254283D01*
X124497412Y-100749605D01*
X124514570Y-101177498D01*
X124529934Y-101543689D01*
X124543816Y-101853907D01*
X124556529Y-102113879D01*
X124568386Y-102329333D01*
X124579698Y-102505996D01*
X124590778Y-102649597D01*
X124601938Y-102765861D01*
X124613492Y-102860519D01*
X124625751Y-102939296D01*
X124639028Y-103007921D01*
X124651612Y-103063667D01*
X124786546Y-103456096D01*
X124994725Y-103829978D01*
X125265048Y-104174111D01*
X125586414Y-104477293D01*
X125947719Y-104728321D01*
X126337863Y-104915994D01*
X126558201Y-104987476D01*
X126707948Y-105013910D01*
X126923741Y-105033682D01*
X127187226Y-105046806D01*
X127480045Y-105053302D01*
X127783843Y-105053185D01*
X128080264Y-105046474D01*
X128350953Y-105033184D01*
X128577552Y-105013333D01*
X128741707Y-104986938D01*
X128747962Y-104985443D01*
X128996937Y-104909530D01*
X129275165Y-104794923D01*
X129590274Y-104637683D01*
X129949889Y-104433874D01*
X130361637Y-104179559D01*
X130571000Y-104044299D01*
X131354167Y-103532352D01*
X131378792Y-103964759D01*
X131395730Y-104165798D01*
X131421033Y-104351153D01*
X131450592Y-104493980D01*
X131467737Y-104545995D01*
X131557017Y-104687486D01*
X131692757Y-104833521D01*
X131844751Y-104955057D01*
X131954292Y-105013836D01*
X132105116Y-105045272D01*
X132295320Y-105050961D01*
X132483985Y-105031990D01*
X132614943Y-104996305D01*
X132765514Y-104900840D01*
X132915120Y-104753286D01*
X133038652Y-104582703D01*
X133109506Y-104423883D01*
X133117831Y-104356292D01*
X133125056Y-104218462D01*
X133131192Y-104008884D01*
X133136252Y-103726051D01*
X133140245Y-103368455D01*
X133143185Y-102934588D01*
X133145081Y-102422941D01*
X133145946Y-101832006D01*
X133145792Y-101160277D01*
X133144628Y-100406243D01*
X133143784Y-100049982D01*
X137175000Y-100049982D01*
X137175000Y-104405017D01*
X137272663Y-104591592D01*
X137397591Y-104763562D01*
X137570708Y-104913663D01*
X137573781Y-104915750D01*
X137711900Y-104999005D01*
X137834370Y-105040249D01*
X137985900Y-105053006D01*
X138028553Y-105053334D01*
X138212520Y-105039794D01*
X138369225Y-105003934D01*
X138415352Y-104984882D01*
X138640423Y-104831904D01*
X138803535Y-104627413D01*
X138830120Y-104578770D01*
X138845837Y-104544996D01*
X138859371Y-104505299D01*
X138870887Y-104453463D01*
X138880549Y-104383276D01*
X138888521Y-104288522D01*
X138894968Y-104162989D01*
X138900054Y-104000461D01*
X138903944Y-103794726D01*
X138906801Y-103539570D01*
X138908791Y-103228777D01*
X138910078Y-102856135D01*
X138910827Y-102415430D01*
X138911200Y-101900447D01*
X138911323Y-101509603D01*
X138911980Y-98597500D01*
X140208593Y-97755031D01*
X140514746Y-97557560D01*
X140807178Y-97371681D01*
X141076242Y-97203320D01*
X141312292Y-97058407D01*
X141505683Y-96942868D01*
X141646768Y-96862632D01*
X141721353Y-96825380D01*
X141815925Y-96791480D01*
X141915428Y-96767509D01*
X142036704Y-96751818D01*
X142196592Y-96742759D01*
X142411930Y-96738682D01*
X142614834Y-96737905D01*
X142938538Y-96741878D01*
X143192468Y-96753874D01*
X143371206Y-96773544D01*
X143448124Y-96791500D01*
X143629727Y-96894136D01*
X143788424Y-97057225D01*
X143903740Y-97256587D01*
X143941547Y-97374220D01*
X143950551Y-97448609D01*
X143962275Y-97600728D01*
X143976377Y-97823693D01*
X143992515Y-98110624D01*
X144010348Y-98454637D01*
X144029533Y-98848850D01*
X144049728Y-99286381D01*
X144070592Y-99760349D01*
X144091782Y-100263870D01*
X144112956Y-100790064D01*
X144119087Y-100947000D01*
X144140082Y-101477008D01*
X144161051Y-101985250D01*
X144181666Y-102464976D01*
X144201598Y-102909435D01*
X144220518Y-103311875D01*
X144238098Y-103665548D01*
X144254008Y-103963702D01*
X144267920Y-104199585D01*
X144279506Y-104366449D01*
X144288437Y-104457542D01*
X144290611Y-104469325D01*
X144386532Y-104678652D01*
X144550039Y-104860360D01*
X144722571Y-104974910D01*
X144845792Y-105025551D01*
X144977659Y-105047888D01*
X145153105Y-105047335D01*
X145180526Y-105045888D01*
X145350763Y-105030384D01*
X145469488Y-105000121D01*
X145569762Y-104944380D01*
X145625958Y-104901467D01*
X145777891Y-104768558D01*
X145876511Y-104648316D01*
X145934146Y-104514859D01*
X145963125Y-104342304D01*
X145969986Y-104229163D01*
X150017949Y-104229163D01*
X150064651Y-104460978D01*
X150171508Y-104674555D01*
X150337741Y-104855173D01*
X150530804Y-104974383D01*
X150564137Y-104987877D01*
X150604551Y-104999704D01*
X150657517Y-105009977D01*
X150728510Y-105018804D01*
X150823004Y-105026297D01*
X150946471Y-105032567D01*
X151104385Y-105037722D01*
X151302219Y-105041875D01*
X151545447Y-105045135D01*
X151839543Y-105047613D01*
X152189979Y-105049420D01*
X152602230Y-105050666D01*
X153081768Y-105051462D01*
X153634067Y-105051917D01*
X154264600Y-105052143D01*
X154383500Y-105052168D01*
X155120024Y-105051856D01*
X155773719Y-105050612D01*
X156346416Y-105048415D01*
X156839949Y-105045243D01*
X157256149Y-105041074D01*
X157596849Y-105035887D01*
X157863882Y-105029658D01*
X158059079Y-105022368D01*
X158184273Y-105013993D01*
X158235834Y-105006342D01*
X158427629Y-104914163D01*
X158600433Y-104759256D01*
X158734615Y-104563553D01*
X158806590Y-104368581D01*
X158818335Y-104282311D01*
X158827906Y-104138979D01*
X158835353Y-103934727D01*
X158840731Y-103665696D01*
X158844091Y-103328030D01*
X158845487Y-102917868D01*
X158844972Y-102431354D01*
X158842597Y-101864629D01*
X158842084Y-101772500D01*
X158839238Y-101250692D01*
X158836608Y-100806566D01*
X158833378Y-100433141D01*
X158828729Y-100123440D01*
X158821847Y-99870482D01*
X158817509Y-99781739D01*
X162955986Y-99781739D01*
X162956000Y-100040058D01*
X162956109Y-100535546D01*
X162956614Y-100953972D01*
X162957783Y-101302940D01*
X162959883Y-101590053D01*
X162963181Y-101822917D01*
X162967945Y-102009135D01*
X162974443Y-102156311D01*
X162982941Y-102272050D01*
X162993708Y-102363956D01*
X163007010Y-102439632D01*
X163023115Y-102506683D01*
X163042292Y-102572714D01*
X163045436Y-102582958D01*
X163128039Y-102827816D01*
X163218663Y-103039770D01*
X163327387Y-103232652D01*
X163464289Y-103420293D01*
X163639447Y-103616524D01*
X163862939Y-103835176D01*
X164141334Y-104086982D01*
X164444407Y-104345235D01*
X164709346Y-104547942D01*
X164952090Y-104704704D01*
X165188578Y-104825124D01*
X165434749Y-104918805D01*
X165606514Y-104969640D01*
X165671681Y-104985856D01*
X165742197Y-104999705D01*
X165824992Y-105011380D01*
X165926998Y-105021074D01*
X166055146Y-105028981D01*
X166216366Y-105035294D01*
X166417589Y-105040206D01*
X166665747Y-105043910D01*
X166967769Y-105046600D01*
X167330588Y-105048469D01*
X167761133Y-105049710D01*
X168266336Y-105050517D01*
X168516436Y-105050786D01*
X169059107Y-105051123D01*
X169523546Y-105050894D01*
X169916187Y-105049949D01*
X170243463Y-105048135D01*
X170511809Y-105045299D01*
X170727658Y-105041290D01*
X170897443Y-105035956D01*
X171027599Y-105029144D01*
X171124560Y-105020702D01*
X171194758Y-105010478D01*
X171244628Y-104998319D01*
X171277691Y-104985482D01*
X171450259Y-104868780D01*
X171607863Y-104701605D01*
X171724877Y-104514195D01*
X171762727Y-104413159D01*
X171790235Y-104157032D01*
X171739585Y-103908370D01*
X171616975Y-103681882D01*
X171428603Y-103492277D01*
X171352631Y-103440038D01*
X171189834Y-103338834D01*
X168671000Y-103317667D01*
X166152167Y-103296500D01*
X165919334Y-103180614D01*
X165750653Y-103080938D01*
X165557128Y-102941843D01*
X165355842Y-102778410D01*
X165163879Y-102605722D01*
X164998324Y-102438863D01*
X164876260Y-102292915D01*
X164829250Y-102218236D01*
X164779130Y-102100812D01*
X164749764Y-101975608D01*
X164736394Y-101814623D01*
X164734000Y-101657697D01*
X164734000Y-101285667D01*
X167931853Y-101285667D01*
X168528866Y-101285600D01*
X169047124Y-101285304D01*
X169492538Y-101284633D01*
X169871022Y-101283443D01*
X170188485Y-101281589D01*
X170450842Y-101278927D01*
X170664002Y-101275312D01*
X170833878Y-101270600D01*
X170966381Y-101264645D01*
X171067424Y-101257304D01*
X171142918Y-101248431D01*
X171198774Y-101237882D01*
X171240906Y-101225512D01*
X171275224Y-101211177D01*
X171290778Y-101203494D01*
X171488122Y-101065088D01*
X171650203Y-100879441D01*
X171754321Y-100673470D01*
X171763388Y-100643039D01*
X171778503Y-100545141D01*
X171789338Y-100377655D01*
X171795951Y-100137413D01*
X171798404Y-99821244D01*
X171796756Y-99425979D01*
X171793013Y-99086733D01*
X171786787Y-98671371D01*
X171779300Y-98329843D01*
X171769159Y-98051317D01*
X171754968Y-97824961D01*
X171747102Y-97750834D01*
X175846500Y-97750834D01*
X175846500Y-102322834D01*
X175966034Y-102661094D01*
X176047243Y-102876411D01*
X176132331Y-103064318D01*
X176230321Y-103236221D01*
X176350231Y-103403528D01*
X176501082Y-103577648D01*
X176691895Y-103769988D01*
X176931690Y-103991955D01*
X177219362Y-104246133D01*
X177519791Y-104490616D01*
X177800191Y-104677836D01*
X178085624Y-104822191D01*
X178401153Y-104938078D01*
X178450000Y-104953105D01*
X178516160Y-104972617D01*
X178579845Y-104989285D01*
X178648005Y-105003339D01*
X178727588Y-105015010D01*
X178825544Y-105024527D01*
X178948822Y-105032121D01*
X179104372Y-105038023D01*
X179299143Y-105042463D01*
X179540084Y-105045672D01*
X179834145Y-105047879D01*
X180188275Y-105049315D01*
X180609423Y-105050211D01*
X181104539Y-105050797D01*
X181404852Y-105051065D01*
X181948891Y-105051351D01*
X182414667Y-105051099D01*
X182808583Y-105050157D01*
X183137043Y-105048372D01*
X183406449Y-105045592D01*
X183623204Y-105041662D01*
X183793712Y-105036431D01*
X183924375Y-105029746D01*
X184021597Y-105021453D01*
X184091780Y-105011401D01*
X184141328Y-104999436D01*
X184176643Y-104985405D01*
X184177686Y-104984882D01*
X184408524Y-104827904D01*
X184567375Y-104626398D01*
X184654512Y-104379913D01*
X184673000Y-104174308D01*
X184636482Y-103911064D01*
X184526994Y-103690748D01*
X184344635Y-103513516D01*
X184203896Y-103429716D01*
X183979043Y-103317667D01*
X181584938Y-103317431D01*
X181035690Y-103316589D01*
X180544165Y-103314223D01*
X180114328Y-103310399D01*
X179750145Y-103305186D01*
X179455583Y-103298651D01*
X179234607Y-103290862D01*
X179091182Y-103281886D01*
X179035228Y-103273976D01*
X178854587Y-103198285D01*
X178635265Y-103064490D01*
X178390099Y-102881675D01*
X178131928Y-102658924D01*
X178030210Y-102562918D01*
X177880108Y-102414919D01*
X177779837Y-102305332D01*
X177716711Y-102215473D01*
X177678042Y-102126658D01*
X177651143Y-102020202D01*
X177646629Y-101998007D01*
X177620895Y-101813128D01*
X177609985Y-101616398D01*
X177611592Y-101532340D01*
X177624500Y-101306834D01*
X184115424Y-101264500D01*
X184298962Y-101135620D01*
X184432507Y-101018135D01*
X184552876Y-100873912D01*
X184588334Y-100818120D01*
X184694167Y-100629500D01*
X184693283Y-99253667D01*
X184692425Y-98858315D01*
X184690088Y-98536852D01*
X184685787Y-98278506D01*
X184679038Y-98072506D01*
X184669355Y-97908081D01*
X184656255Y-97774457D01*
X184639253Y-97660864D01*
X184617863Y-97556530D01*
X184616707Y-97551522D01*
X184547635Y-97293271D01*
X184464101Y-97071298D01*
X184355220Y-96868054D01*
X184210104Y-96665991D01*
X184017867Y-96447561D01*
X183787010Y-96214111D01*
X183481065Y-95922712D01*
X183391775Y-95843562D01*
X188737236Y-95843562D01*
X188777122Y-96106846D01*
X188888397Y-96346290D01*
X189059959Y-96544389D01*
X189265804Y-96677049D01*
X189360126Y-96711543D01*
X189475177Y-96734566D01*
X189629148Y-96748118D01*
X189840230Y-96754201D01*
X189975250Y-96755070D01*
X190515000Y-96756000D01*
X190515735Y-99729917D01*
X190515966Y-100337449D01*
X190516651Y-100866792D01*
X190518259Y-101324421D01*
X190521259Y-101716814D01*
X190526120Y-102050446D01*
X190533313Y-102331795D01*
X190543305Y-102567337D01*
X190556567Y-102763549D01*
X190573567Y-102926908D01*
X190594776Y-103063889D01*
X190620661Y-103180971D01*
X190651693Y-103284629D01*
X190688340Y-103381340D01*
X190731072Y-103477580D01*
X190780358Y-103579827D01*
X190797145Y-103613968D01*
X190997479Y-103939313D01*
X191262348Y-104246489D01*
X191574398Y-104521427D01*
X191916274Y-104750054D01*
X192270623Y-104918300D01*
X192489636Y-104986278D01*
X192621340Y-105006785D01*
X192822812Y-105023670D01*
X193080121Y-105036921D01*
X193379341Y-105046526D01*
X193706543Y-105052474D01*
X194047798Y-105054753D01*
X194389179Y-105053352D01*
X194716757Y-105048257D01*
X195016603Y-105039459D01*
X195274791Y-105026944D01*
X195477390Y-105010701D01*
X195610474Y-104990719D01*
X195617856Y-104988918D01*
X196012529Y-104846864D01*
X196392273Y-104630624D01*
X196743036Y-104350678D01*
X197050762Y-104017503D01*
X197200953Y-103808666D01*
X197384229Y-103479076D01*
X197503175Y-103158017D01*
X197558977Y-102853217D01*
X197552819Y-102572408D01*
X197485886Y-102323320D01*
X197359363Y-102113683D01*
X197174435Y-101951227D01*
X196932286Y-101843683D01*
X196898384Y-101834569D01*
X196636649Y-101808636D01*
X196392187Y-101861427D01*
X196174530Y-101987352D01*
X195993213Y-102180824D01*
X195857771Y-102436252D01*
X195853722Y-102446931D01*
X195732109Y-102738654D01*
X195609793Y-102957048D01*
X195477872Y-103113049D01*
X195327441Y-103217598D01*
X195180936Y-103273471D01*
X195092968Y-103286178D01*
X194933767Y-103297373D01*
X194716756Y-103306557D01*
X194455363Y-103313228D01*
X194163013Y-103316885D01*
X194001751Y-103317431D01*
X192980002Y-103317667D01*
X192753571Y-103199378D01*
X192565388Y-103075171D01*
X192425345Y-102914718D01*
X192399487Y-102874662D01*
X192271834Y-102668234D01*
X192246908Y-96756000D01*
X194122037Y-96755070D01*
X194572597Y-96754639D01*
X194946505Y-96753625D01*
X195251778Y-96751717D01*
X195496431Y-96748605D01*
X195688479Y-96743977D01*
X195835936Y-96737522D01*
X195946819Y-96728930D01*
X196029143Y-96717888D01*
X196090923Y-96704087D01*
X196140174Y-96687216D01*
X196166500Y-96675742D01*
X196387039Y-96531339D01*
X196556360Y-96334106D01*
X196662932Y-96101453D01*
X196695667Y-95876672D01*
X196661052Y-95675745D01*
X196568402Y-95466001D01*
X196434509Y-95278234D01*
X196306350Y-95162703D01*
X196131504Y-95041500D01*
X194214078Y-95029678D01*
X192296653Y-95017855D01*
X192284243Y-93798817D01*
X192271834Y-92579778D01*
X192155055Y-92403417D01*
X191974464Y-92191529D01*
X191762610Y-92057301D01*
X191514447Y-91997887D01*
X191429338Y-91994215D01*
X191156910Y-92025633D01*
X190932475Y-92124314D01*
X190747585Y-92294410D01*
X190705500Y-92350064D01*
X190578500Y-92529754D01*
X190557334Y-93764460D01*
X190536167Y-94999167D01*
X189919041Y-95020334D01*
X189675483Y-95029568D01*
X189499860Y-95039757D01*
X189375463Y-95053754D01*
X189285581Y-95074416D01*
X189213505Y-95104597D01*
X189142524Y-95147152D01*
X189130494Y-95155074D01*
X188993022Y-95280663D01*
X188870345Y-95452988D01*
X188779660Y-95641944D01*
X188738162Y-95817425D01*
X188737236Y-95843562D01*
X183391775Y-95843562D01*
X183216612Y-95688291D01*
X182981969Y-95501942D01*
X182765451Y-95354758D01*
X182555373Y-95237835D01*
X182429334Y-95179271D01*
X182111834Y-95041500D01*
X180420374Y-95028643D01*
X178728915Y-95015786D01*
X178388374Y-95122170D01*
X178195311Y-95191193D01*
X178002986Y-95274241D01*
X177849856Y-95354546D01*
X177836939Y-95362567D01*
X177665985Y-95478784D01*
X177461177Y-95629701D01*
X177239703Y-95801422D01*
X177018747Y-95980054D01*
X176815495Y-96151702D01*
X176647134Y-96302474D01*
X176530848Y-96418474D01*
X176530779Y-96418550D01*
X176357794Y-96645370D01*
X176187234Y-96932193D01*
X176032369Y-97255055D01*
X175945410Y-97475667D01*
X175846500Y-97750834D01*
X171747102Y-97750834D01*
X171735333Y-97639942D01*
X171708859Y-97485428D01*
X171674152Y-97350587D01*
X171629816Y-97224586D01*
X171574457Y-97096592D01*
X171522880Y-96988719D01*
X171455226Y-96859673D01*
X171380713Y-96740859D01*
X171289309Y-96620800D01*
X171170987Y-96488018D01*
X171015717Y-96331034D01*
X170813469Y-96138370D01*
X170636152Y-95973899D01*
X170321164Y-95696143D01*
X170041169Y-95478143D01*
X169782045Y-95310689D01*
X169529671Y-95184572D01*
X169292209Y-95097415D01*
X169221520Y-95076955D01*
X169147954Y-95060356D01*
X169062506Y-95047302D01*
X168956168Y-95037477D01*
X168819936Y-95030566D01*
X168644803Y-95026255D01*
X168421762Y-95024227D01*
X168141808Y-95024168D01*
X167795935Y-95025762D01*
X167375137Y-95028694D01*
X167337500Y-95028980D01*
X166914139Y-95032323D01*
X166566532Y-95035605D01*
X166285767Y-95039348D01*
X166062933Y-95044076D01*
X165889119Y-95050312D01*
X165755414Y-95058579D01*
X165652907Y-95069400D01*
X165572686Y-95083297D01*
X165505840Y-95100795D01*
X165443459Y-95122416D01*
X165390167Y-95143277D01*
X165210881Y-95222174D01*
X165030385Y-95318538D01*
X164835042Y-95441216D01*
X164611218Y-95599056D01*
X164345277Y-95800907D01*
X164195544Y-95918495D01*
X163920277Y-96145044D01*
X163704362Y-96345131D01*
X163533905Y-96534765D01*
X163395013Y-96729952D01*
X163273792Y-96946703D01*
X163236105Y-97023990D01*
X163176913Y-97148909D01*
X163126704Y-97259201D01*
X163084738Y-97362821D01*
X163050277Y-97467721D01*
X163022583Y-97581854D01*
X163000917Y-97713175D01*
X162984540Y-97869636D01*
X162972713Y-98059191D01*
X162964698Y-98289793D01*
X162959757Y-98569395D01*
X162957150Y-98905951D01*
X162956139Y-99307415D01*
X162955986Y-99781739D01*
X158817509Y-99781739D01*
X158811913Y-99667290D01*
X158798112Y-99506883D01*
X158779626Y-99382283D01*
X158755639Y-99286510D01*
X158725334Y-99212587D01*
X158687895Y-99153532D01*
X158642504Y-99102368D01*
X158588345Y-99052115D01*
X158524601Y-98995794D01*
X158516267Y-98988294D01*
X158308377Y-98853189D01*
X158075265Y-98788778D01*
X157833502Y-98792120D01*
X157599660Y-98860279D01*
X157390310Y-98990315D01*
X157222024Y-99179289D01*
X157195552Y-99222499D01*
X157092834Y-99401834D01*
X157080650Y-101359750D01*
X157068466Y-103317667D01*
X155336000Y-103317667D01*
X155336000Y-91210334D01*
X153039417Y-91211263D01*
X152537626Y-91211614D01*
X152113374Y-91212381D01*
X151759535Y-91213793D01*
X151468982Y-91216080D01*
X151234587Y-91219469D01*
X151049224Y-91224192D01*
X150905765Y-91230477D01*
X150797084Y-91238553D01*
X150716054Y-91248649D01*
X150655547Y-91260996D01*
X150608437Y-91275822D01*
X150573500Y-91290592D01*
X150354007Y-91434190D01*
X150184949Y-91630217D01*
X150078070Y-91860976D01*
X150044747Y-92087390D01*
X150081011Y-92304377D01*
X150177492Y-92522602D01*
X150317320Y-92710572D01*
X150429537Y-92805692D01*
X150609493Y-92924834D01*
X152083747Y-92936980D01*
X153558000Y-92949126D01*
X153558000Y-103317667D01*
X152086917Y-103318363D01*
X151694955Y-103318688D01*
X151378399Y-103319612D01*
X151127988Y-103321675D01*
X150934459Y-103325419D01*
X150788554Y-103331384D01*
X150681010Y-103340109D01*
X150602566Y-103352136D01*
X150543961Y-103368004D01*
X150495934Y-103388254D01*
X150449225Y-103413426D01*
X150448261Y-103413972D01*
X150246557Y-103571515D01*
X150108123Y-103769709D01*
X150032180Y-103993832D01*
X150017949Y-104229163D01*
X145969986Y-104229163D01*
X145973460Y-104171884D01*
X145974707Y-104055712D01*
X145972720Y-103865216D01*
X145967799Y-103608772D01*
X145960243Y-103294751D01*
X145950352Y-102931529D01*
X145938428Y-102527478D01*
X145924770Y-102090972D01*
X145909678Y-101630386D01*
X145893453Y-101154092D01*
X145876394Y-100670464D01*
X145858803Y-100187877D01*
X145840978Y-99714703D01*
X145823222Y-99259316D01*
X145805832Y-98830090D01*
X145789111Y-98435399D01*
X145773358Y-98083616D01*
X145758873Y-97783115D01*
X145745956Y-97542270D01*
X145734908Y-97369454D01*
X145726163Y-97274019D01*
X145623153Y-96814628D01*
X145447677Y-96391134D01*
X145206238Y-96010282D01*
X144905334Y-95678817D01*
X144551466Y-95403485D01*
X144151136Y-95191031D01*
X143710843Y-95048201D01*
X143550321Y-95016212D01*
X143357643Y-94995497D01*
X143090228Y-94984701D01*
X142757450Y-94984058D01*
X142491988Y-94989734D01*
X142189144Y-95000813D01*
X141928168Y-95017499D01*
X141697066Y-95044056D01*
X141483842Y-95084749D01*
X141276499Y-95143841D01*
X141063042Y-95225598D01*
X140831475Y-95334283D01*
X140569803Y-95474160D01*
X140266030Y-95649494D01*
X139908160Y-95864549D01*
X139736167Y-95969374D01*
X138931834Y-96460757D01*
X138910667Y-96026295D01*
X138892275Y-95776790D01*
X138860296Y-95590848D01*
X138807397Y-95447595D01*
X138726245Y-95326158D01*
X138628696Y-95223663D01*
X138415760Y-95073698D01*
X138182421Y-94997676D01*
X137943050Y-94992348D01*
X137712024Y-95054461D01*
X137503714Y-95180766D01*
X137332495Y-95368011D01*
X137240746Y-95537557D01*
X137230016Y-95570597D01*
X137220501Y-95618570D01*
X137212128Y-95686348D01*
X137204829Y-95778803D01*
X137198531Y-95900807D01*
X137193163Y-96057231D01*
X137188654Y-96252947D01*
X137184934Y-96492826D01*
X137181932Y-96781739D01*
X137179576Y-97124560D01*
X137177796Y-97526159D01*
X137176520Y-97991407D01*
X137175678Y-98525177D01*
X137175198Y-99132340D01*
X137175010Y-99817768D01*
X137175000Y-100049982D01*
X133143784Y-100049982D01*
X133143534Y-99944734D01*
X133132167Y-95634167D01*
X133018427Y-95440696D01*
X132912282Y-95297394D01*
X132778924Y-95164327D01*
X132726755Y-95123918D01*
X132520110Y-95028378D01*
X132281330Y-94993857D01*
X132038165Y-95021518D01*
X131862167Y-95087604D01*
X131684552Y-95220763D01*
X131533687Y-95408712D01*
X131432011Y-95621687D01*
X131415902Y-95679620D01*
X131409251Y-95749945D01*
X131402932Y-95897396D01*
X131397047Y-96114432D01*
X131391695Y-96393513D01*
X131386978Y-96727100D01*
X131382997Y-97107651D01*
X131379852Y-97527626D01*
X131377643Y-97979484D01*
X131376473Y-98455687D01*
X131376322Y-98639834D01*
X131375292Y-101433834D01*
X130308507Y-102111167D01*
X130013753Y-102298192D01*
X129719425Y-102484720D01*
X129439551Y-102661880D01*
X129188156Y-102820798D01*
X128979267Y-102952602D01*
X128826912Y-103048419D01*
X128819470Y-103053084D01*
X128397216Y-103317667D01*
X127907191Y-103316816D01*
X127498962Y-103306492D01*
X127165664Y-103274845D01*
X126899490Y-103218525D01*
X126692637Y-103134183D01*
X126537296Y-103018471D01*
X126425664Y-102868038D01*
X126349933Y-102679535D01*
X126340342Y-102644523D01*
X126332549Y-102578260D01*
X126322391Y-102434338D01*
X126310175Y-102219720D01*
X126296212Y-101941370D01*
X126280809Y-101606254D01*
X126264275Y-101221336D01*
X126246920Y-100793580D01*
X126229051Y-100329950D01*
X126210978Y-99837411D01*
X126193010Y-99322928D01*
X126192814Y-99317167D01*
X126171171Y-98681770D01*
X126152077Y-98125392D01*
X126135194Y-97642437D01*
X126120182Y-97227306D01*
X126106703Y-96874402D01*
X126094417Y-96578126D01*
X126082986Y-96332882D01*
X126072070Y-96133071D01*
X126061331Y-95973096D01*
X126050429Y-95847360D01*
X126039026Y-95750264D01*
X126026781Y-95676210D01*
X126013357Y-95619602D01*
X125998415Y-95574841D01*
X125981614Y-95536330D01*
X125962617Y-95498471D01*
X125961381Y-95496063D01*
X125808328Y-95283404D01*
X125605656Y-95128200D01*
X125369897Y-95036604D01*
X125117583Y-95014771D01*
X124865246Y-95068855D01*
X124840434Y-95078765D01*
X124686429Y-95172055D01*
X124536002Y-95310690D01*
X124414453Y-95467533D01*
X124349748Y-95605069D01*
X124342429Y-95673687D01*
X124339016Y-95813560D01*
X120185996Y-95813560D01*
X120184768Y-95660543D01*
X120191231Y-95099312D01*
X120209306Y-94611170D01*
X120239077Y-94199235D01*
X120280630Y-93866624D01*
X120302870Y-93745233D01*
X120433659Y-93314446D01*
X120637887Y-92922159D01*
X120911872Y-92571927D01*
X121251934Y-92267302D01*
X121654393Y-92011841D01*
X122115567Y-91809098D01*
X122400667Y-91719208D01*
X122859246Y-91616504D01*
X123392620Y-91538929D01*
X123994647Y-91486761D01*
X124659182Y-91460277D01*
X125380085Y-91459754D01*
X126151213Y-91485470D01*
X126761000Y-91522299D01*
X127462344Y-91568105D01*
X128087751Y-91599140D01*
X128644761Y-91614764D01*
X129140915Y-91614337D01*
X129583756Y-91597219D01*
X129980823Y-91562771D01*
X130339659Y-91510352D01*
X130667804Y-91439323D01*
X130972800Y-91349043D01*
X131262187Y-91238874D01*
X131523500Y-91118215D01*
X131723794Y-91026272D01*
X131905492Y-90965003D01*
X132089323Y-90932104D01*
X132296019Y-90925272D01*
X132546310Y-90942204D01*
X132816337Y-90974564D01*
X133078824Y-91013911D01*
X133283270Y-91056175D01*
X133456208Y-91108229D01*
X133624172Y-91176947D01*
X133658131Y-91192651D01*
X134090654Y-91416370D01*
X134485695Y-91668238D01*
X134819020Y-91920732D01*
X134970615Y-92041586D01*
X135072275Y-92115711D01*
X135139286Y-92150365D01*
X135186931Y-92152808D01*
X135230498Y-92130298D01*
X135242353Y-92121763D01*
X135770023Y-91760911D01*
X136287642Y-91461503D01*
X136789393Y-91225791D01*
X137269463Y-91056026D01*
X137722035Y-90954460D01*
X138141295Y-90923343D01*
X138313790Y-90932558D01*
X138482094Y-90953646D01*
X138697317Y-90987306D01*
X138923722Y-91027757D01*
X139023357Y-91047373D01*
X139453547Y-91135132D01*
X139848857Y-91005256D01*
X140620774Y-90786038D01*
X141366833Y-90645307D01*
X142092769Y-90583000D01*
X142804321Y-90599056D01*
X143507225Y-90693412D01*
X144207218Y-90866004D01*
X144481053Y-90954641D01*
X144805152Y-91079134D01*
X145156291Y-91235289D01*
X145500236Y-91406790D01*
X145802751Y-91577324D01*
X145852763Y-91608297D01*
X145972260Y-91681941D01*
X146058567Y-91731901D01*
X146092134Y-91747126D01*
X146101510Y-91704985D01*
X146121870Y-91595683D01*
X146150258Y-91435568D01*
X146183720Y-91240991D01*
X146185330Y-91231500D01*
X146331141Y-90587692D01*
X146541463Y-89985088D01*
X146812611Y-89428393D01*
X147140901Y-88922308D01*
X147522647Y-88471536D01*
X147954165Y-88080781D01*
X148431769Y-87754745D01*
X148951775Y-87498131D01*
X149176500Y-87414036D01*
X149298470Y-87372712D01*
X149410915Y-87336374D01*
X149519894Y-87304698D01*
X149631465Y-87277360D01*
X149751687Y-87254037D01*
X149886617Y-87234403D01*
X150042314Y-87218134D01*
X150224838Y-87204908D01*
X150440245Y-87194399D01*
X150694595Y-87186284D01*
X150993945Y-87180239D01*
X151344355Y-87175938D01*
X151751882Y-87173060D01*
X152222585Y-87171279D01*
X152762523Y-87170271D01*
X153377753Y-87169712D01*
X153748500Y-87169480D01*
X154381123Y-87169169D01*
X154934768Y-87169128D01*
X155415125Y-87169474D01*
X155415125Y-87169474D01*
G37*
X155415125Y-87169474D02*
X155827884Y-87170324D01*
X156178734Y-87171797D01*
X156473364Y-87174009D01*
X156717463Y-87177080D01*
X156916722Y-87181125D01*
X157076829Y-87186264D01*
X157203473Y-87192612D01*
X157302344Y-87200289D01*
X157379132Y-87209412D01*
X157439525Y-87220098D01*
X157489214Y-87232465D01*
X157533886Y-87246631D01*
X157537334Y-87247818D01*
X157915388Y-87422652D01*
X158257750Y-87671029D01*
X158559207Y-87987504D01*
X158814551Y-88366631D01*
X159014066Y-88791219D01*
X159116550Y-89082457D01*
X159207999Y-89399370D01*
X159290469Y-89752425D01*
X159366015Y-90152088D01*
X159436690Y-90608824D01*
X159504551Y-91133099D01*
X159547208Y-91506667D01*
X159615676Y-92094324D01*
X159688066Y-92643827D01*
X159762950Y-93146348D01*
X159838902Y-93593064D01*
X159914495Y-93975149D01*
X159988302Y-94283779D01*
X160007148Y-94351333D01*
X160059552Y-94532332D01*
X160286376Y-94194250D01*
X160761200Y-93559323D01*
X161289572Y-92988373D01*
X161868152Y-92483658D01*
X162493599Y-92047438D01*
X163162574Y-91681973D01*
X163871734Y-91389523D01*
X164617741Y-91172348D01*
X164818667Y-91128216D01*
X165247278Y-91053318D01*
X165729859Y-90991500D01*
X166248949Y-90943410D01*
X166787091Y-90909693D01*
X167326826Y-90890997D01*
X167850696Y-90887967D01*
X168341243Y-90901251D01*
X168781008Y-90931495D01*
X169094334Y-90969848D01*
X169929872Y-91133959D01*
X170708376Y-91358699D01*
X171433697Y-91645868D01*
X172109691Y-91997266D01*
X172740212Y-92414692D01*
X173329114Y-92899947D01*
X173431806Y-92995403D01*
X173821608Y-93364311D01*
X174135554Y-93045743D01*
X174661784Y-92570202D01*
X175248273Y-92147124D01*
X175884941Y-91781845D01*
X176561710Y-91479701D01*
X177268500Y-91246029D01*
X177753258Y-91130546D01*
X178210004Y-91051830D01*
X178717056Y-90987747D01*
X179256484Y-90938981D01*
X179810355Y-90906219D01*
X180360740Y-90890146D01*
X180889706Y-90891450D01*
X181379323Y-90910816D01*
X181811660Y-90948930D01*
X181963667Y-90969446D01*
X182735638Y-91115687D01*
X183464745Y-91312925D01*
X184143307Y-91558307D01*
X184763646Y-91848979D01*
X185318083Y-92182086D01*
X185422618Y-92255149D01*
X185562173Y-92353359D01*
X185672891Y-92427653D01*
X185739205Y-92467772D01*
X185751065Y-92471623D01*
X185774804Y-92432306D01*
X185832310Y-92334775D01*
X185914783Y-92194005D01*
X186007098Y-92035834D01*
X186497770Y-91274572D01*
X187051001Y-90565653D01*
X187661925Y-89914476D01*
X188325673Y-89326442D01*
X188719925Y-89025805D01*
X188981714Y-88852261D01*
X189292561Y-88670490D01*
X189630571Y-88491383D01*
X189973847Y-88325833D01*
X190300493Y-88184729D01*
X190588612Y-88078966D01*
X190677960Y-88051844D01*
X190843875Y-88006997D01*
X190981335Y-87977002D01*
X191113547Y-87959775D01*
X191263715Y-87953228D01*
X191455046Y-87955277D01*
X191672794Y-87962418D01*
X191973350Y-87977788D01*
X192216272Y-88001230D01*
X192428471Y-88036290D01*
X192636860Y-88086516D01*
X192657386Y-88092191D01*
X193237868Y-88295128D01*
X193794058Y-88569850D01*
X194314779Y-88908340D01*
X194788850Y-89302575D01*
X195205092Y-89744536D01*
X195484560Y-90120458D01*
X195619954Y-90312470D01*
X195730075Y-90442921D01*
X195809316Y-90505338D01*
X195821292Y-90509154D01*
X195900346Y-90525665D01*
X196039455Y-90555508D01*
X196215991Y-90593809D01*
X196335834Y-90619998D01*
X196993286Y-90797165D01*
X197584914Y-91026897D01*
X198112511Y-91310808D01*
X198577875Y-91650514D01*
X198982801Y-92047630D01*
X199329084Y-92503771D01*
X199618521Y-93020553D01*
X199852907Y-93599591D01*
X199933744Y-93856167D01*
X200005790Y-94128345D01*
X200072060Y-94433502D01*
X200133717Y-94779792D01*
X200191923Y-95175366D01*
X200247842Y-95628377D01*
X200302637Y-96146976D01*
X200357471Y-96739315D01*
X200376241Y-96957909D01*
X200420161Y-97467731D01*
X200459872Y-97903647D01*
X200496640Y-98276242D01*
X200531729Y-98596099D01*
X200566404Y-98873801D01*
X200601931Y-99119933D01*
X200639574Y-99345079D01*
X200680598Y-99559822D01*
X200696364Y-99636268D01*
X200854960Y-100261382D01*
X201057200Y-100840538D01*
X201297949Y-101359699D01*
X201381685Y-101509842D01*
X201574304Y-101839851D01*
X201551981Y-102737509D01*
X201528260Y-103275309D01*
X201482984Y-103748756D01*
X201411995Y-104176356D01*
X201311137Y-104576614D01*
X201176253Y-104968037D01*
X201003186Y-105369131D01*
X200924129Y-105532809D01*
X200669682Y-105998669D01*
X200390357Y-106410594D01*
X200064127Y-106799267D01*
X199870347Y-107000667D01*
X199331038Y-107479845D01*
X198735445Y-107896200D01*
X198084478Y-108249337D01*
X197379048Y-108538862D01*
X196620064Y-108764379D01*
X195808438Y-108925493D01*
X195277500Y-108993040D01*
X194941319Y-109016013D01*
X194548889Y-109024628D01*
X194127268Y-109019630D01*
X193703517Y-109001761D01*
X193304694Y-108971766D01*
X192957859Y-108930387D01*
X192949167Y-108929073D01*
X192070408Y-108759271D01*
X191233543Y-108524567D01*
X190442807Y-108226863D01*
X189702433Y-107868060D01*
X189016657Y-107450059D01*
X188389712Y-106974762D01*
X188173864Y-106785092D01*
X188037423Y-106662824D01*
X187925562Y-106567336D01*
X187851704Y-106509791D01*
X187829125Y-106498414D01*
X187801171Y-106537809D01*
X187736524Y-106632695D01*
X187645362Y-106768054D01*
X187556762Y-106900504D01*
X187139602Y-107458276D01*
X186681207Y-107942195D01*
X186180762Y-108352800D01*
X185637455Y-108690634D01*
X185050471Y-108956236D01*
X184418999Y-109150147D01*
X184059167Y-109225249D01*
X183682104Y-109273507D01*
X183250309Y-109297957D01*
X182790239Y-109298805D01*
X182328353Y-109276259D01*
X181891107Y-109230524D01*
X181737097Y-109207137D01*
X181511682Y-109170307D01*
X181346291Y-109147491D01*
X181217526Y-109138252D01*
X181101986Y-109142155D01*
X180976272Y-109158763D01*
X180816984Y-109187640D01*
X180805763Y-109189769D01*
X180641553Y-109216521D01*
X180460136Y-109236337D01*
X180246800Y-109250005D01*
X179986833Y-109258308D01*
X179665525Y-109262032D01*
X179444834Y-109262403D01*
X179113788Y-109261129D01*
X178851418Y-109257281D01*
X178641748Y-109249777D01*
X178468800Y-109237539D01*
X178316597Y-109219487D01*
X178169163Y-109194543D01*
X178036258Y-109167244D01*
X177290253Y-108969398D01*
X176598088Y-108709623D01*
X175952353Y-108384447D01*
X175345637Y-107990395D01*
X175063334Y-107773531D01*
X174908184Y-107644834D01*
X174763707Y-107519345D01*
X174652931Y-107417278D01*
X174621497Y-107385732D01*
X174523340Y-107299166D01*
X174441364Y-107256199D01*
X174392605Y-107263895D01*
X174386000Y-107288084D01*
X174356767Y-107342202D01*
X174277400Y-107440440D01*
X174160396Y-107569947D01*
X174018254Y-107717873D01*
X173863471Y-107871367D01*
X173708545Y-108017578D01*
X173565974Y-108143655D01*
X173505986Y-108192940D01*
X172978638Y-108558492D01*
X172407574Y-108853034D01*
X171796253Y-109075865D01*
X171148133Y-109226285D01*
X170466670Y-109303590D01*
X169755322Y-109307081D01*
X169017548Y-109236054D01*
X168659799Y-109176190D01*
X168487143Y-109146502D01*
X168350202Y-109134144D01*
X168215488Y-109139404D01*
X168049511Y-109162568D01*
X167936332Y-109182399D01*
X167633107Y-109224799D01*
X167272653Y-109255362D01*
X166879607Y-109273632D01*
X166478607Y-109279155D01*
X166094291Y-109271476D01*
X165751297Y-109250141D01*
X165546641Y-109226495D01*
X164786489Y-109077484D01*
X164073467Y-108859744D01*
X163401385Y-108570310D01*
X162764049Y-108206219D01*
X162155269Y-107764507D01*
X161738762Y-107403803D01*
X161431691Y-107119453D01*
X161194557Y-107336181D01*
X160584855Y-107838197D01*
X159911594Y-108290018D01*
X159181381Y-108688834D01*
X158400822Y-109031833D01*
X157576525Y-109316204D01*
X156715097Y-109539136D01*
X155823144Y-109697818D01*
X155567352Y-109730525D01*
X155271769Y-109756791D01*
X154914409Y-109775327D01*
X154516433Y-109786149D01*
X154099003Y-109789276D01*
X153683281Y-109784724D01*
X153290429Y-109772511D01*
X152941608Y-109752655D01*
X152681800Y-109728142D01*
X151964262Y-109618056D01*
X151229693Y-109462204D01*
X150508235Y-109268074D01*
X149830029Y-109043157D01*
X149648966Y-108974502D01*
X149307905Y-108835275D01*
X148969871Y-108686515D01*
X148652044Y-108536477D01*
X148371606Y-108393416D01*
X148145737Y-108265587D01*
X148060996Y-108211557D01*
X147937572Y-108132595D01*
X147839588Y-108077471D01*
X147791921Y-108059000D01*
X147735761Y-108083428D01*
X147642429Y-108145274D01*
X147593110Y-108182745D01*
X147416579Y-108310915D01*
X147188948Y-108459507D01*
X146935818Y-108613100D01*
X146682796Y-108756274D01*
X146455484Y-108873608D01*
X146411444Y-108894434D01*
X146101721Y-109037824D01*
X145628277Y-108847640D01*
X145173530Y-108678250D01*
X144728708Y-108541738D01*
X144283811Y-108437573D01*
X143828838Y-108365225D01*
X143353790Y-108324161D01*
X142848664Y-108313851D01*
X142303461Y-108333763D01*
X141708181Y-108383366D01*
X141052822Y-108462128D01*
X140343778Y-108566914D01*
X139859163Y-108641976D01*
X139442120Y-108701998D01*
X139077179Y-108748460D01*
X138748874Y-108782839D01*
X138441734Y-108806617D01*
X138140293Y-108821270D01*
X137829081Y-108828280D01*
X137598334Y-108829431D01*
X137316622Y-108826707D01*
X137040199Y-108819519D01*
X136789381Y-108808724D01*
X136584484Y-108795179D01*
X136455391Y-108781235D01*
X136288763Y-108750731D01*
X136146917Y-108708082D01*
X136012159Y-108643427D01*
X135866793Y-108546907D01*
X135693124Y-108408661D01*
X135521006Y-108260597D01*
X135353585Y-108113890D01*
X135237141Y-108016197D01*
X135157765Y-107962142D01*
X135101550Y-107946345D01*
X135054588Y-107963430D01*
X135002971Y-108008018D01*
X134964372Y-108045363D01*
X134817608Y-108171515D01*
X134621230Y-108321509D01*
X134399745Y-108478271D01*
X134177664Y-108624727D01*
X133979496Y-108743803D01*
X133902948Y-108784769D01*
X133709581Y-108865178D01*
X133443901Y-108949578D01*
X133117976Y-109034998D01*
X132743872Y-109118466D01*
X132333657Y-109197012D01*
X132010334Y-109250782D01*
X131707267Y-109288256D01*
X131342174Y-109317663D01*
X130932480Y-109338891D01*
X130495610Y-109351828D01*
X130048991Y-109356361D01*
X129610048Y-109352378D01*
X129196209Y-109339767D01*
X128824898Y-109318414D01*
X128513542Y-109288209D01*
X128412000Y-109273986D01*
X127406501Y-109080246D01*
X126455948Y-108822197D01*
X125560059Y-108499706D01*
X124718554Y-108112639D01*
X123931152Y-107660864D01*
X123197571Y-107144245D01*
X122517531Y-106562650D01*
X122335356Y-106386834D01*
X121787216Y-105800526D01*
X121314831Y-105201112D01*
X120909301Y-104577108D01*
X120840962Y-104458171D01*
X120804175Y-104391293D01*
X120773148Y-104327210D01*
X120746615Y-104257284D01*
X120723313Y-104172878D01*
X120701976Y-104065353D01*
X120681342Y-103926074D01*
X120660144Y-103746403D01*
X120637119Y-103517701D01*
X120611003Y-103231332D01*
X120580531Y-102878658D01*
X120544439Y-102451042D01*
X120540781Y-102407500D01*
X120457439Y-101373786D01*
X120385023Y-100388222D01*
X120323619Y-99453923D01*
X120273312Y-98574009D01*
X120234187Y-97751596D01*
X120206332Y-96989803D01*
X120189830Y-96291746D01*
X120185996Y-95813560D01*
X124339016Y-95813560D01*
X124339549Y-96026318D01*
X124344066Y-96313594D01*
X124352608Y-96677019D01*
X124365212Y-97118226D01*
X124381918Y-97638845D01*
X124402766Y-98240509D01*
X124427794Y-98924850D01*
X124432051Y-99038442D01*
X124456465Y-99685804D01*
X124478148Y-100254283D01*
X124497412Y-100749605D01*
X124514570Y-101177498D01*
X124529934Y-101543689D01*
X124543816Y-101853907D01*
X124556529Y-102113879D01*
X124568386Y-102329333D01*
X124579698Y-102505996D01*
X124590778Y-102649597D01*
X124601938Y-102765861D01*
X124613492Y-102860519D01*
X124625751Y-102939296D01*
X124639028Y-103007921D01*
X124651612Y-103063667D01*
X124786546Y-103456096D01*
X124994725Y-103829978D01*
X125265048Y-104174111D01*
X125586414Y-104477293D01*
X125947719Y-104728321D01*
X126337863Y-104915994D01*
X126558201Y-104987476D01*
X126707948Y-105013910D01*
X126923741Y-105033682D01*
X127187226Y-105046806D01*
X127480045Y-105053302D01*
X127783843Y-105053185D01*
X128080264Y-105046474D01*
X128350953Y-105033184D01*
X128577552Y-105013333D01*
X128741707Y-104986938D01*
X128747962Y-104985443D01*
X128996937Y-104909530D01*
X129275165Y-104794923D01*
X129590274Y-104637683D01*
X129949889Y-104433874D01*
X130361637Y-104179559D01*
X130571000Y-104044299D01*
X131354167Y-103532352D01*
X131378792Y-103964759D01*
X131395730Y-104165798D01*
X131421033Y-104351153D01*
X131450592Y-104493980D01*
X131467737Y-104545995D01*
X131557017Y-104687486D01*
X131692757Y-104833521D01*
X131844751Y-104955057D01*
X131954292Y-105013836D01*
X132105116Y-105045272D01*
X132295320Y-105050961D01*
X132483985Y-105031990D01*
X132614943Y-104996305D01*
X132765514Y-104900840D01*
X132915120Y-104753286D01*
X133038652Y-104582703D01*
X133109506Y-104423883D01*
X133117831Y-104356292D01*
X133125056Y-104218462D01*
X133131192Y-104008884D01*
X133136252Y-103726051D01*
X133140245Y-103368455D01*
X133143185Y-102934588D01*
X133145081Y-102422941D01*
X133145946Y-101832006D01*
X133145792Y-101160277D01*
X133144628Y-100406243D01*
X133143784Y-100049982D01*
X137175000Y-100049982D01*
X137175000Y-104405017D01*
X137272663Y-104591592D01*
X137397591Y-104763562D01*
X137570708Y-104913663D01*
X137573781Y-104915750D01*
X137711900Y-104999005D01*
X137834370Y-105040249D01*
X137985900Y-105053006D01*
X138028553Y-105053334D01*
X138212520Y-105039794D01*
X138369225Y-105003934D01*
X138415352Y-104984882D01*
X138640423Y-104831904D01*
X138803535Y-104627413D01*
X138830120Y-104578770D01*
X138845837Y-104544996D01*
X138859371Y-104505299D01*
X138870887Y-104453463D01*
X138880549Y-104383276D01*
X138888521Y-104288522D01*
X138894968Y-104162989D01*
X138900054Y-104000461D01*
X138903944Y-103794726D01*
X138906801Y-103539570D01*
X138908791Y-103228777D01*
X138910078Y-102856135D01*
X138910827Y-102415430D01*
X138911200Y-101900447D01*
X138911323Y-101509603D01*
X138911980Y-98597500D01*
X140208593Y-97755031D01*
X140514746Y-97557560D01*
X140807178Y-97371681D01*
X141076242Y-97203320D01*
X141312292Y-97058407D01*
X141505683Y-96942868D01*
X141646768Y-96862632D01*
X141721353Y-96825380D01*
X141815925Y-96791480D01*
X141915428Y-96767509D01*
X142036704Y-96751818D01*
X142196592Y-96742759D01*
X142411930Y-96738682D01*
X142614834Y-96737905D01*
X142938538Y-96741878D01*
X143192468Y-96753874D01*
X143371206Y-96773544D01*
X143448124Y-96791500D01*
X143629727Y-96894136D01*
X143788424Y-97057225D01*
X143903740Y-97256587D01*
X143941547Y-97374220D01*
X143950551Y-97448609D01*
X143962275Y-97600728D01*
X143976377Y-97823693D01*
X143992515Y-98110624D01*
X144010348Y-98454637D01*
X144029533Y-98848850D01*
X144049728Y-99286381D01*
X144070592Y-99760349D01*
X144091782Y-100263870D01*
X144112956Y-100790064D01*
X144119087Y-100947000D01*
X144140082Y-101477008D01*
X144161051Y-101985250D01*
X144181666Y-102464976D01*
X144201598Y-102909435D01*
X144220518Y-103311875D01*
X144238098Y-103665548D01*
X144254008Y-103963702D01*
X144267920Y-104199585D01*
X144279506Y-104366449D01*
X144288437Y-104457542D01*
X144290611Y-104469325D01*
X144386532Y-104678652D01*
X144550039Y-104860360D01*
X144722571Y-104974910D01*
X144845792Y-105025551D01*
X144977659Y-105047888D01*
X145153105Y-105047335D01*
X145180526Y-105045888D01*
X145350763Y-105030384D01*
X145469488Y-105000121D01*
X145569762Y-104944380D01*
X145625958Y-104901467D01*
X145777891Y-104768558D01*
X145876511Y-104648316D01*
X145934146Y-104514859D01*
X145963125Y-104342304D01*
X145969986Y-104229163D01*
X150017949Y-104229163D01*
X150064651Y-104460978D01*
X150171508Y-104674555D01*
X150337741Y-104855173D01*
X150530804Y-104974383D01*
X150564137Y-104987877D01*
X150604551Y-104999704D01*
X150657517Y-105009977D01*
X150728510Y-105018804D01*
X150823004Y-105026297D01*
X150946471Y-105032567D01*
X151104385Y-105037722D01*
X151302219Y-105041875D01*
X151545447Y-105045135D01*
X151839543Y-105047613D01*
X152189979Y-105049420D01*
X152602230Y-105050666D01*
X153081768Y-105051462D01*
X153634067Y-105051917D01*
X154264600Y-105052143D01*
X154383500Y-105052168D01*
X155120024Y-105051856D01*
X155773719Y-105050612D01*
X156346416Y-105048415D01*
X156839949Y-105045243D01*
X157256149Y-105041074D01*
X157596849Y-105035887D01*
X157863882Y-105029658D01*
X158059079Y-105022368D01*
X158184273Y-105013993D01*
X158235834Y-105006342D01*
X158427629Y-104914163D01*
X158600433Y-104759256D01*
X158734615Y-104563553D01*
X158806590Y-104368581D01*
X158818335Y-104282311D01*
X158827906Y-104138979D01*
X158835353Y-103934727D01*
X158840731Y-103665696D01*
X158844091Y-103328030D01*
X158845487Y-102917868D01*
X158844972Y-102431354D01*
X158842597Y-101864629D01*
X158842084Y-101772500D01*
X158839238Y-101250692D01*
X158836608Y-100806566D01*
X158833378Y-100433141D01*
X158828729Y-100123440D01*
X158821847Y-99870482D01*
X158817509Y-99781739D01*
X162955986Y-99781739D01*
X162956000Y-100040058D01*
X162956109Y-100535546D01*
X162956614Y-100953972D01*
X162957783Y-101302940D01*
X162959883Y-101590053D01*
X162963181Y-101822917D01*
X162967945Y-102009135D01*
X162974443Y-102156311D01*
X162982941Y-102272050D01*
X162993708Y-102363956D01*
X163007010Y-102439632D01*
X163023115Y-102506683D01*
X163042292Y-102572714D01*
X163045436Y-102582958D01*
X163128039Y-102827816D01*
X163218663Y-103039770D01*
X163327387Y-103232652D01*
X163464289Y-103420293D01*
X163639447Y-103616524D01*
X163862939Y-103835176D01*
X164141334Y-104086982D01*
X164444407Y-104345235D01*
X164709346Y-104547942D01*
X164952090Y-104704704D01*
X165188578Y-104825124D01*
X165434749Y-104918805D01*
X165606514Y-104969640D01*
X165671681Y-104985856D01*
X165742197Y-104999705D01*
X165824992Y-105011380D01*
X165926998Y-105021074D01*
X166055146Y-105028981D01*
X166216366Y-105035294D01*
X166417589Y-105040206D01*
X166665747Y-105043910D01*
X166967769Y-105046600D01*
X167330588Y-105048469D01*
X167761133Y-105049710D01*
X168266336Y-105050517D01*
X168516436Y-105050786D01*
X169059107Y-105051123D01*
X169523546Y-105050894D01*
X169916187Y-105049949D01*
X170243463Y-105048135D01*
X170511809Y-105045299D01*
X170727658Y-105041290D01*
X170897443Y-105035956D01*
X171027599Y-105029144D01*
X171124560Y-105020702D01*
X171194758Y-105010478D01*
X171244628Y-104998319D01*
X171277691Y-104985482D01*
X171450259Y-104868780D01*
X171607863Y-104701605D01*
X171724877Y-104514195D01*
X171762727Y-104413159D01*
X171790235Y-104157032D01*
X171739585Y-103908370D01*
X171616975Y-103681882D01*
X171428603Y-103492277D01*
X171352631Y-103440038D01*
X171189834Y-103338834D01*
X168671000Y-103317667D01*
X166152167Y-103296500D01*
X165919334Y-103180614D01*
X165750653Y-103080938D01*
X165557128Y-102941843D01*
X165355842Y-102778410D01*
X165163879Y-102605722D01*
X164998324Y-102438863D01*
X164876260Y-102292915D01*
X164829250Y-102218236D01*
X164779130Y-102100812D01*
X164749764Y-101975608D01*
X164736394Y-101814623D01*
X164734000Y-101657697D01*
X164734000Y-101285667D01*
X167931853Y-101285667D01*
X168528866Y-101285600D01*
X169047124Y-101285304D01*
X169492538Y-101284633D01*
X169871022Y-101283443D01*
X170188485Y-101281589D01*
X170450842Y-101278927D01*
X170664002Y-101275312D01*
X170833878Y-101270600D01*
X170966381Y-101264645D01*
X171067424Y-101257304D01*
X171142918Y-101248431D01*
X171198774Y-101237882D01*
X171240906Y-101225512D01*
X171275224Y-101211177D01*
X171290778Y-101203494D01*
X171488122Y-101065088D01*
X171650203Y-100879441D01*
X171754321Y-100673470D01*
X171763388Y-100643039D01*
X171778503Y-100545141D01*
X171789338Y-100377655D01*
X171795951Y-100137413D01*
X171798404Y-99821244D01*
X171796756Y-99425979D01*
X171793013Y-99086733D01*
X171786787Y-98671371D01*
X171779300Y-98329843D01*
X171769159Y-98051317D01*
X171754968Y-97824961D01*
X171747102Y-97750834D01*
X175846500Y-97750834D01*
X175846500Y-102322834D01*
X175966034Y-102661094D01*
X176047243Y-102876411D01*
X176132331Y-103064318D01*
X176230321Y-103236221D01*
X176350231Y-103403528D01*
X176501082Y-103577648D01*
X176691895Y-103769988D01*
X176931690Y-103991955D01*
X177219362Y-104246133D01*
X177519791Y-104490616D01*
X177800191Y-104677836D01*
X178085624Y-104822191D01*
X178401153Y-104938078D01*
X178450000Y-104953105D01*
X178516160Y-104972617D01*
X178579845Y-104989285D01*
X178648005Y-105003339D01*
X178727588Y-105015010D01*
X178825544Y-105024527D01*
X178948822Y-105032121D01*
X179104372Y-105038023D01*
X179299143Y-105042463D01*
X179540084Y-105045672D01*
X179834145Y-105047879D01*
X180188275Y-105049315D01*
X180609423Y-105050211D01*
X181104539Y-105050797D01*
X181404852Y-105051065D01*
X181948891Y-105051351D01*
X182414667Y-105051099D01*
X182808583Y-105050157D01*
X183137043Y-105048372D01*
X183406449Y-105045592D01*
X183623204Y-105041662D01*
X183793712Y-105036431D01*
X183924375Y-105029746D01*
X184021597Y-105021453D01*
X184091780Y-105011401D01*
X184141328Y-104999436D01*
X184176643Y-104985405D01*
X184177686Y-104984882D01*
X184408524Y-104827904D01*
X184567375Y-104626398D01*
X184654512Y-104379913D01*
X184673000Y-104174308D01*
X184636482Y-103911064D01*
X184526994Y-103690748D01*
X184344635Y-103513516D01*
X184203896Y-103429716D01*
X183979043Y-103317667D01*
X181584938Y-103317431D01*
X181035690Y-103316589D01*
X180544165Y-103314223D01*
X180114328Y-103310399D01*
X179750145Y-103305186D01*
X179455583Y-103298651D01*
X179234607Y-103290862D01*
X179091182Y-103281886D01*
X179035228Y-103273976D01*
X178854587Y-103198285D01*
X178635265Y-103064490D01*
X178390099Y-102881675D01*
X178131928Y-102658924D01*
X178030210Y-102562918D01*
X177880108Y-102414919D01*
X177779837Y-102305332D01*
X177716711Y-102215473D01*
X177678042Y-102126658D01*
X177651143Y-102020202D01*
X177646629Y-101998007D01*
X177620895Y-101813128D01*
X177609985Y-101616398D01*
X177611592Y-101532340D01*
X177624500Y-101306834D01*
X184115424Y-101264500D01*
X184298962Y-101135620D01*
X184432507Y-101018135D01*
X184552876Y-100873912D01*
X184588334Y-100818120D01*
X184694167Y-100629500D01*
X184693283Y-99253667D01*
X184692425Y-98858315D01*
X184690088Y-98536852D01*
X184685787Y-98278506D01*
X184679038Y-98072506D01*
X184669355Y-97908081D01*
X184656255Y-97774457D01*
X184639253Y-97660864D01*
X184617863Y-97556530D01*
X184616707Y-97551522D01*
X184547635Y-97293271D01*
X184464101Y-97071298D01*
X184355220Y-96868054D01*
X184210104Y-96665991D01*
X184017867Y-96447561D01*
X183787010Y-96214111D01*
X183481065Y-95922712D01*
X183391775Y-95843562D01*
X188737236Y-95843562D01*
X188777122Y-96106846D01*
X188888397Y-96346290D01*
X189059959Y-96544389D01*
X189265804Y-96677049D01*
X189360126Y-96711543D01*
X189475177Y-96734566D01*
X189629148Y-96748118D01*
X189840230Y-96754201D01*
X189975250Y-96755070D01*
X190515000Y-96756000D01*
X190515735Y-99729917D01*
X190515966Y-100337449D01*
X190516651Y-100866792D01*
X190518259Y-101324421D01*
X190521259Y-101716814D01*
X190526120Y-102050446D01*
X190533313Y-102331795D01*
X190543305Y-102567337D01*
X190556567Y-102763549D01*
X190573567Y-102926908D01*
X190594776Y-103063889D01*
X190620661Y-103180971D01*
X190651693Y-103284629D01*
X190688340Y-103381340D01*
X190731072Y-103477580D01*
X190780358Y-103579827D01*
X190797145Y-103613968D01*
X190997479Y-103939313D01*
X191262348Y-104246489D01*
X191574398Y-104521427D01*
X191916274Y-104750054D01*
X192270623Y-104918300D01*
X192489636Y-104986278D01*
X192621340Y-105006785D01*
X192822812Y-105023670D01*
X193080121Y-105036921D01*
X193379341Y-105046526D01*
X193706543Y-105052474D01*
X194047798Y-105054753D01*
X194389179Y-105053352D01*
X194716757Y-105048257D01*
X195016603Y-105039459D01*
X195274791Y-105026944D01*
X195477390Y-105010701D01*
X195610474Y-104990719D01*
X195617856Y-104988918D01*
X196012529Y-104846864D01*
X196392273Y-104630624D01*
X196743036Y-104350678D01*
X197050762Y-104017503D01*
X197200953Y-103808666D01*
X197384229Y-103479076D01*
X197503175Y-103158017D01*
X197558977Y-102853217D01*
X197552819Y-102572408D01*
X197485886Y-102323320D01*
X197359363Y-102113683D01*
X197174435Y-101951227D01*
X196932286Y-101843683D01*
X196898384Y-101834569D01*
X196636649Y-101808636D01*
X196392187Y-101861427D01*
X196174530Y-101987352D01*
X195993213Y-102180824D01*
X195857771Y-102436252D01*
X195853722Y-102446931D01*
X195732109Y-102738654D01*
X195609793Y-102957048D01*
X195477872Y-103113049D01*
X195327441Y-103217598D01*
X195180936Y-103273471D01*
X195092968Y-103286178D01*
X194933767Y-103297373D01*
X194716756Y-103306557D01*
X194455363Y-103313228D01*
X194163013Y-103316885D01*
X194001751Y-103317431D01*
X192980002Y-103317667D01*
X192753571Y-103199378D01*
X192565388Y-103075171D01*
X192425345Y-102914718D01*
X192399487Y-102874662D01*
X192271834Y-102668234D01*
X192246908Y-96756000D01*
X194122037Y-96755070D01*
X194572597Y-96754639D01*
X194946505Y-96753625D01*
X195251778Y-96751717D01*
X195496431Y-96748605D01*
X195688479Y-96743977D01*
X195835936Y-96737522D01*
X195946819Y-96728930D01*
X196029143Y-96717888D01*
X196090923Y-96704087D01*
X196140174Y-96687216D01*
X196166500Y-96675742D01*
X196387039Y-96531339D01*
X196556360Y-96334106D01*
X196662932Y-96101453D01*
X196695667Y-95876672D01*
X196661052Y-95675745D01*
X196568402Y-95466001D01*
X196434509Y-95278234D01*
X196306350Y-95162703D01*
X196131504Y-95041500D01*
X194214078Y-95029678D01*
X192296653Y-95017855D01*
X192284243Y-93798817D01*
X192271834Y-92579778D01*
X192155055Y-92403417D01*
X191974464Y-92191529D01*
X191762610Y-92057301D01*
X191514447Y-91997887D01*
X191429338Y-91994215D01*
X191156910Y-92025633D01*
X190932475Y-92124314D01*
X190747585Y-92294410D01*
X190705500Y-92350064D01*
X190578500Y-92529754D01*
X190557334Y-93764460D01*
X190536167Y-94999167D01*
X189919041Y-95020334D01*
X189675483Y-95029568D01*
X189499860Y-95039757D01*
X189375463Y-95053754D01*
X189285581Y-95074416D01*
X189213505Y-95104597D01*
X189142524Y-95147152D01*
X189130494Y-95155074D01*
X188993022Y-95280663D01*
X188870345Y-95452988D01*
X188779660Y-95641944D01*
X188738162Y-95817425D01*
X188737236Y-95843562D01*
X183391775Y-95843562D01*
X183216612Y-95688291D01*
X182981969Y-95501942D01*
X182765451Y-95354758D01*
X182555373Y-95237835D01*
X182429334Y-95179271D01*
X182111834Y-95041500D01*
X180420374Y-95028643D01*
X178728915Y-95015786D01*
X178388374Y-95122170D01*
X178195311Y-95191193D01*
X178002986Y-95274241D01*
X177849856Y-95354546D01*
X177836939Y-95362567D01*
X177665985Y-95478784D01*
X177461177Y-95629701D01*
X177239703Y-95801422D01*
X177018747Y-95980054D01*
X176815495Y-96151702D01*
X176647134Y-96302474D01*
X176530848Y-96418474D01*
X176530779Y-96418550D01*
X176357794Y-96645370D01*
X176187234Y-96932193D01*
X176032369Y-97255055D01*
X175945410Y-97475667D01*
X175846500Y-97750834D01*
X171747102Y-97750834D01*
X171735333Y-97639942D01*
X171708859Y-97485428D01*
X171674152Y-97350587D01*
X171629816Y-97224586D01*
X171574457Y-97096592D01*
X171522880Y-96988719D01*
X171455226Y-96859673D01*
X171380713Y-96740859D01*
X171289309Y-96620800D01*
X171170987Y-96488018D01*
X171015717Y-96331034D01*
X170813469Y-96138370D01*
X170636152Y-95973899D01*
X170321164Y-95696143D01*
X170041169Y-95478143D01*
X169782045Y-95310689D01*
X169529671Y-95184572D01*
X169292209Y-95097415D01*
X169221520Y-95076955D01*
X169147954Y-95060356D01*
X169062506Y-95047302D01*
X168956168Y-95037477D01*
X168819936Y-95030566D01*
X168644803Y-95026255D01*
X168421762Y-95024227D01*
X168141808Y-95024168D01*
X167795935Y-95025762D01*
X167375137Y-95028694D01*
X167337500Y-95028980D01*
X166914139Y-95032323D01*
X166566532Y-95035605D01*
X166285767Y-95039348D01*
X166062933Y-95044076D01*
X165889119Y-95050312D01*
X165755414Y-95058579D01*
X165652907Y-95069400D01*
X165572686Y-95083297D01*
X165505840Y-95100795D01*
X165443459Y-95122416D01*
X165390167Y-95143277D01*
X165210881Y-95222174D01*
X165030385Y-95318538D01*
X164835042Y-95441216D01*
X164611218Y-95599056D01*
X164345277Y-95800907D01*
X164195544Y-95918495D01*
X163920277Y-96145044D01*
X163704362Y-96345131D01*
X163533905Y-96534765D01*
X163395013Y-96729952D01*
X163273792Y-96946703D01*
X163236105Y-97023990D01*
X163176913Y-97148909D01*
X163126704Y-97259201D01*
X163084738Y-97362821D01*
X163050277Y-97467721D01*
X163022583Y-97581854D01*
X163000917Y-97713175D01*
X162984540Y-97869636D01*
X162972713Y-98059191D01*
X162964698Y-98289793D01*
X162959757Y-98569395D01*
X162957150Y-98905951D01*
X162956139Y-99307415D01*
X162955986Y-99781739D01*
X158817509Y-99781739D01*
X158811913Y-99667290D01*
X158798112Y-99506883D01*
X158779626Y-99382283D01*
X158755639Y-99286510D01*
X158725334Y-99212587D01*
X158687895Y-99153532D01*
X158642504Y-99102368D01*
X158588345Y-99052115D01*
X158524601Y-98995794D01*
X158516267Y-98988294D01*
X158308377Y-98853189D01*
X158075265Y-98788778D01*
X157833502Y-98792120D01*
X157599660Y-98860279D01*
X157390310Y-98990315D01*
X157222024Y-99179289D01*
X157195552Y-99222499D01*
X157092834Y-99401834D01*
X157080650Y-101359750D01*
X157068466Y-103317667D01*
X155336000Y-103317667D01*
X155336000Y-91210334D01*
X153039417Y-91211263D01*
X152537626Y-91211614D01*
X152113374Y-91212381D01*
X151759535Y-91213793D01*
X151468982Y-91216080D01*
X151234587Y-91219469D01*
X151049224Y-91224192D01*
X150905765Y-91230477D01*
X150797084Y-91238553D01*
X150716054Y-91248649D01*
X150655547Y-91260996D01*
X150608437Y-91275822D01*
X150573500Y-91290592D01*
X150354007Y-91434190D01*
X150184949Y-91630217D01*
X150078070Y-91860976D01*
X150044747Y-92087390D01*
X150081011Y-92304377D01*
X150177492Y-92522602D01*
X150317320Y-92710572D01*
X150429537Y-92805692D01*
X150609493Y-92924834D01*
X152083747Y-92936980D01*
X153558000Y-92949126D01*
X153558000Y-103317667D01*
X152086917Y-103318363D01*
X151694955Y-103318688D01*
X151378399Y-103319612D01*
X151127988Y-103321675D01*
X150934459Y-103325419D01*
X150788554Y-103331384D01*
X150681010Y-103340109D01*
X150602566Y-103352136D01*
X150543961Y-103368004D01*
X150495934Y-103388254D01*
X150449225Y-103413426D01*
X150448261Y-103413972D01*
X150246557Y-103571515D01*
X150108123Y-103769709D01*
X150032180Y-103993832D01*
X150017949Y-104229163D01*
X145969986Y-104229163D01*
X145973460Y-104171884D01*
X145974707Y-104055712D01*
X145972720Y-103865216D01*
X145967799Y-103608772D01*
X145960243Y-103294751D01*
X145950352Y-102931529D01*
X145938428Y-102527478D01*
X145924770Y-102090972D01*
X145909678Y-101630386D01*
X145893453Y-101154092D01*
X145876394Y-100670464D01*
X145858803Y-100187877D01*
X145840978Y-99714703D01*
X145823222Y-99259316D01*
X145805832Y-98830090D01*
X145789111Y-98435399D01*
X145773358Y-98083616D01*
X145758873Y-97783115D01*
X145745956Y-97542270D01*
X145734908Y-97369454D01*
X145726163Y-97274019D01*
X145623153Y-96814628D01*
X145447677Y-96391134D01*
X145206238Y-96010282D01*
X144905334Y-95678817D01*
X144551466Y-95403485D01*
X144151136Y-95191031D01*
X143710843Y-95048201D01*
X143550321Y-95016212D01*
X143357643Y-94995497D01*
X143090228Y-94984701D01*
X142757450Y-94984058D01*
X142491988Y-94989734D01*
X142189144Y-95000813D01*
X141928168Y-95017499D01*
X141697066Y-95044056D01*
X141483842Y-95084749D01*
X141276499Y-95143841D01*
X141063042Y-95225598D01*
X140831475Y-95334283D01*
X140569803Y-95474160D01*
X140266030Y-95649494D01*
X139908160Y-95864549D01*
X139736167Y-95969374D01*
X138931834Y-96460757D01*
X138910667Y-96026295D01*
X138892275Y-95776790D01*
X138860296Y-95590848D01*
X138807397Y-95447595D01*
X138726245Y-95326158D01*
X138628696Y-95223663D01*
X138415760Y-95073698D01*
X138182421Y-94997676D01*
X137943050Y-94992348D01*
X137712024Y-95054461D01*
X137503714Y-95180766D01*
X137332495Y-95368011D01*
X137240746Y-95537557D01*
X137230016Y-95570597D01*
X137220501Y-95618570D01*
X137212128Y-95686348D01*
X137204829Y-95778803D01*
X137198531Y-95900807D01*
X137193163Y-96057231D01*
X137188654Y-96252947D01*
X137184934Y-96492826D01*
X137181932Y-96781739D01*
X137179576Y-97124560D01*
X137177796Y-97526159D01*
X137176520Y-97991407D01*
X137175678Y-98525177D01*
X137175198Y-99132340D01*
X137175010Y-99817768D01*
X137175000Y-100049982D01*
X133143784Y-100049982D01*
X133143534Y-99944734D01*
X133132167Y-95634167D01*
X133018427Y-95440696D01*
X132912282Y-95297394D01*
X132778924Y-95164327D01*
X132726755Y-95123918D01*
X132520110Y-95028378D01*
X132281330Y-94993857D01*
X132038165Y-95021518D01*
X131862167Y-95087604D01*
X131684552Y-95220763D01*
X131533687Y-95408712D01*
X131432011Y-95621687D01*
X131415902Y-95679620D01*
X131409251Y-95749945D01*
X131402932Y-95897396D01*
X131397047Y-96114432D01*
X131391695Y-96393513D01*
X131386978Y-96727100D01*
X131382997Y-97107651D01*
X131379852Y-97527626D01*
X131377643Y-97979484D01*
X131376473Y-98455687D01*
X131376322Y-98639834D01*
X131375292Y-101433834D01*
X130308507Y-102111167D01*
X130013753Y-102298192D01*
X129719425Y-102484720D01*
X129439551Y-102661880D01*
X129188156Y-102820798D01*
X128979267Y-102952602D01*
X128826912Y-103048419D01*
X128819470Y-103053084D01*
X128397216Y-103317667D01*
X127907191Y-103316816D01*
X127498962Y-103306492D01*
X127165664Y-103274845D01*
X126899490Y-103218525D01*
X126692637Y-103134183D01*
X126537296Y-103018471D01*
X126425664Y-102868038D01*
X126349933Y-102679535D01*
X126340342Y-102644523D01*
X126332549Y-102578260D01*
X126322391Y-102434338D01*
X126310175Y-102219720D01*
X126296212Y-101941370D01*
X126280809Y-101606254D01*
X126264275Y-101221336D01*
X126246920Y-100793580D01*
X126229051Y-100329950D01*
X126210978Y-99837411D01*
X126193010Y-99322928D01*
X126192814Y-99317167D01*
X126171171Y-98681770D01*
X126152077Y-98125392D01*
X126135194Y-97642437D01*
X126120182Y-97227306D01*
X126106703Y-96874402D01*
X126094417Y-96578126D01*
X126082986Y-96332882D01*
X126072070Y-96133071D01*
X126061331Y-95973096D01*
X126050429Y-95847360D01*
X126039026Y-95750264D01*
X126026781Y-95676210D01*
X126013357Y-95619602D01*
X125998415Y-95574841D01*
X125981614Y-95536330D01*
X125962617Y-95498471D01*
X125961381Y-95496063D01*
X125808328Y-95283404D01*
X125605656Y-95128200D01*
X125369897Y-95036604D01*
X125117583Y-95014771D01*
X124865246Y-95068855D01*
X124840434Y-95078765D01*
X124686429Y-95172055D01*
X124536002Y-95310690D01*
X124414453Y-95467533D01*
X124349748Y-95605069D01*
X124342429Y-95673687D01*
X124339016Y-95813560D01*
X120185996Y-95813560D01*
X120184768Y-95660543D01*
X120191231Y-95099312D01*
X120209306Y-94611170D01*
X120239077Y-94199235D01*
X120280630Y-93866624D01*
X120302870Y-93745233D01*
X120433659Y-93314446D01*
X120637887Y-92922159D01*
X120911872Y-92571927D01*
X121251934Y-92267302D01*
X121654393Y-92011841D01*
X122115567Y-91809098D01*
X122400667Y-91719208D01*
X122859246Y-91616504D01*
X123392620Y-91538929D01*
X123994647Y-91486761D01*
X124659182Y-91460277D01*
X125380085Y-91459754D01*
X126151213Y-91485470D01*
X126761000Y-91522299D01*
X127462344Y-91568105D01*
X128087751Y-91599140D01*
X128644761Y-91614764D01*
X129140915Y-91614337D01*
X129583756Y-91597219D01*
X129980823Y-91562771D01*
X130339659Y-91510352D01*
X130667804Y-91439323D01*
X130972800Y-91349043D01*
X131262187Y-91238874D01*
X131523500Y-91118215D01*
X131723794Y-91026272D01*
X131905492Y-90965003D01*
X132089323Y-90932104D01*
X132296019Y-90925272D01*
X132546310Y-90942204D01*
X132816337Y-90974564D01*
X133078824Y-91013911D01*
X133283270Y-91056175D01*
X133456208Y-91108229D01*
X133624172Y-91176947D01*
X133658131Y-91192651D01*
X134090654Y-91416370D01*
X134485695Y-91668238D01*
X134819020Y-91920732D01*
X134970615Y-92041586D01*
X135072275Y-92115711D01*
X135139286Y-92150365D01*
X135186931Y-92152808D01*
X135230498Y-92130298D01*
X135242353Y-92121763D01*
X135770023Y-91760911D01*
X136287642Y-91461503D01*
X136789393Y-91225791D01*
X137269463Y-91056026D01*
X137722035Y-90954460D01*
X138141295Y-90923343D01*
X138313790Y-90932558D01*
X138482094Y-90953646D01*
X138697317Y-90987306D01*
X138923722Y-91027757D01*
X139023357Y-91047373D01*
X139453547Y-91135132D01*
X139848857Y-91005256D01*
X140620774Y-90786038D01*
X141366833Y-90645307D01*
X142092769Y-90583000D01*
X142804321Y-90599056D01*
X143507225Y-90693412D01*
X144207218Y-90866004D01*
X144481053Y-90954641D01*
X144805152Y-91079134D01*
X145156291Y-91235289D01*
X145500236Y-91406790D01*
X145802751Y-91577324D01*
X145852763Y-91608297D01*
X145972260Y-91681941D01*
X146058567Y-91731901D01*
X146092134Y-91747126D01*
X146101510Y-91704985D01*
X146121870Y-91595683D01*
X146150258Y-91435568D01*
X146183720Y-91240991D01*
X146185330Y-91231500D01*
X146331141Y-90587692D01*
X146541463Y-89985088D01*
X146812611Y-89428393D01*
X147140901Y-88922308D01*
X147522647Y-88471536D01*
X147954165Y-88080781D01*
X148431769Y-87754745D01*
X148951775Y-87498131D01*
X149176500Y-87414036D01*
X149298470Y-87372712D01*
X149410915Y-87336374D01*
X149519894Y-87304698D01*
X149631465Y-87277360D01*
X149751687Y-87254037D01*
X149886617Y-87234403D01*
X150042314Y-87218134D01*
X150224838Y-87204908D01*
X150440245Y-87194399D01*
X150694595Y-87186284D01*
X150993945Y-87180239D01*
X151344355Y-87175938D01*
X151751882Y-87173060D01*
X152222585Y-87171279D01*
X152762523Y-87170271D01*
X153377753Y-87169712D01*
X153748500Y-87169480D01*
X154381123Y-87169169D01*
X154934768Y-87169128D01*
X155415125Y-87169474D01*
G36*
X167790563Y-96777351D02*
X168084311Y-96778330D01*
X168313428Y-96780748D01*
X168487933Y-96785246D01*
X168617845Y-96792466D01*
X168713180Y-96803051D01*
X168783958Y-96817642D01*
X168840197Y-96836883D01*
X168891914Y-96861415D01*
X168913412Y-96872765D01*
X169056313Y-96963116D01*
X169230597Y-97094072D01*
X169418587Y-97249958D01*
X169602607Y-97415097D01*
X169764977Y-97573812D01*
X169888022Y-97710428D01*
X169941000Y-97784030D01*
X169978694Y-97851582D01*
X170006531Y-97918174D01*
X170026308Y-97998089D01*
X170039826Y-98105608D01*
X170048882Y-98255015D01*
X170055277Y-98460593D01*
X170060779Y-98734968D01*
X170074724Y-99507667D01*
X164727403Y-99507667D01*
X164741285Y-98713917D01*
X164747559Y-98422747D01*
X164755616Y-98203259D01*
X164766695Y-98042469D01*
X164782031Y-97927393D01*
X164802864Y-97845050D01*
X164829983Y-97783268D01*
X164906697Y-97680884D01*
X165036700Y-97545833D01*
X165202953Y-97392594D01*
X165388421Y-97235645D01*
X165576064Y-97089465D01*
X165748846Y-96968531D01*
X165877000Y-96893524D01*
X166109834Y-96777167D01*
X167422167Y-96777167D01*
X167790563Y-96777351D01*
X167790563Y-96777351D01*
G37*
X167790563Y-96777351D02*
X168084311Y-96778330D01*
X168313428Y-96780748D01*
X168487933Y-96785246D01*
X168617845Y-96792466D01*
X168713180Y-96803051D01*
X168783958Y-96817642D01*
X168840197Y-96836883D01*
X168891914Y-96861415D01*
X168913412Y-96872765D01*
X169056313Y-96963116D01*
X169230597Y-97094072D01*
X169418587Y-97249958D01*
X169602607Y-97415097D01*
X169764977Y-97573812D01*
X169888022Y-97710428D01*
X169941000Y-97784030D01*
X169978694Y-97851582D01*
X170006531Y-97918174D01*
X170026308Y-97998089D01*
X170039826Y-98105608D01*
X170048882Y-98255015D01*
X170055277Y-98460593D01*
X170060779Y-98734968D01*
X170074724Y-99507667D01*
X164727403Y-99507667D01*
X164741285Y-98713917D01*
X164747559Y-98422747D01*
X164755616Y-98203259D01*
X164766695Y-98042469D01*
X164782031Y-97927393D01*
X164802864Y-97845050D01*
X164829983Y-97783268D01*
X164906697Y-97680884D01*
X165036700Y-97545833D01*
X165202953Y-97392594D01*
X165388421Y-97235645D01*
X165576064Y-97089465D01*
X165748846Y-96968531D01*
X165877000Y-96893524D01*
X166109834Y-96777167D01*
X167422167Y-96777167D01*
X167790563Y-96777351D01*
G36*
X181001351Y-96778917D02*
X181257608Y-96785446D01*
X181463190Y-96799604D01*
X181629426Y-96824285D01*
X181767645Y-96862383D01*
X181889174Y-96916793D01*
X182005343Y-96990408D01*
X182127480Y-97086124D01*
X182266913Y-97206835D01*
X182386020Y-97312302D01*
X182569761Y-97477562D01*
X182708866Y-97616112D01*
X182809876Y-97744080D01*
X182879334Y-97877594D01*
X182923782Y-98032785D01*
X182949763Y-98225782D01*
X182963819Y-98472712D01*
X182971723Y-98756250D01*
X182989108Y-99507667D01*
X177640635Y-99507667D01*
X177653734Y-98689491D01*
X177658763Y-98405464D01*
X177664506Y-98192883D01*
X177672520Y-98038534D01*
X177684360Y-97929201D01*
X177701583Y-97851669D01*
X177725744Y-97792721D01*
X177758400Y-97739143D01*
X177767125Y-97726408D01*
X177859850Y-97617664D01*
X178003928Y-97477492D01*
X178180438Y-97321687D01*
X178370461Y-97166048D01*
X178555077Y-97026370D01*
X178715367Y-96918450D01*
X178777283Y-96883000D01*
X178979167Y-96777167D01*
X180291500Y-96777167D01*
X180683092Y-96777122D01*
X181001351Y-96778917D01*
X181001351Y-96778917D01*
G37*
X181001351Y-96778917D02*
X181257608Y-96785446D01*
X181463190Y-96799604D01*
X181629426Y-96824285D01*
X181767645Y-96862383D01*
X181889174Y-96916793D01*
X182005343Y-96990408D01*
X182127480Y-97086124D01*
X182266913Y-97206835D01*
X182386020Y-97312302D01*
X182569761Y-97477562D01*
X182708866Y-97616112D01*
X182809876Y-97744080D01*
X182879334Y-97877594D01*
X182923782Y-98032785D01*
X182949763Y-98225782D01*
X182963819Y-98472712D01*
X182971723Y-98756250D01*
X182989108Y-99507667D01*
X177640635Y-99507667D01*
X177653734Y-98689491D01*
X177658763Y-98405464D01*
X177664506Y-98192883D01*
X177672520Y-98038534D01*
X177684360Y-97929201D01*
X177701583Y-97851669D01*
X177725744Y-97792721D01*
X177758400Y-97739143D01*
X177767125Y-97726408D01*
X177859850Y-97617664D01*
X178003928Y-97477492D01*
X178180438Y-97321687D01*
X178370461Y-97166048D01*
X178555077Y-97026370D01*
X178715367Y-96918450D01*
X178777283Y-96883000D01*
X178979167Y-96777167D01*
X180291500Y-96777167D01*
X180683092Y-96777122D01*
X181001351Y-96778917D01*
D11*
M02*
