G04 #@! TF.FileFunction,Soldermask,Bot*
%FSLAX46Y46*%
G04 Gerber Fmt 4.6, Leading zero omitted, Abs format (unit mm)*
G04 Created by KiCad (PCBNEW 4.0.7) date 07/12/18 15:29:07*
%MOMM*%
%LPD*%
G01*
G04 APERTURE LIST*
%ADD10C,0.100000*%
%ADD11C,0.010000*%
%ADD12C,2.100000*%
%ADD13O,2.100000X2.100000*%
%ADD14R,1.600000X1.300000*%
G04 APERTURE END LIST*
D10*
D11*
G36*
X111327377Y-101365684D02*
X111537362Y-101279140D01*
X111747907Y-101122399D01*
X111757399Y-101113878D01*
X111838724Y-101040112D01*
X111904917Y-100974225D01*
X111957669Y-100906889D01*
X111998668Y-100828775D01*
X112029605Y-100730555D01*
X112052169Y-100602898D01*
X112068050Y-100436477D01*
X112078938Y-100221963D01*
X112086521Y-99950026D01*
X112092490Y-99611338D01*
X112098000Y-99233333D01*
X112119167Y-97772833D01*
X114214667Y-97750187D01*
X114214667Y-99119219D01*
X114215338Y-99515347D01*
X114217610Y-99836097D01*
X114221866Y-100090751D01*
X114228492Y-100288591D01*
X114237873Y-100438895D01*
X114250394Y-100550947D01*
X114266441Y-100634026D01*
X114279348Y-100678080D01*
X114406900Y-100937706D01*
X114584982Y-101139513D01*
X114801320Y-101282462D01*
X115043638Y-101365516D01*
X115299664Y-101387637D01*
X115557124Y-101347787D01*
X115803742Y-101244928D01*
X116027246Y-101078022D01*
X116215361Y-100846031D01*
X116217882Y-100842000D01*
X116242613Y-100799330D01*
X116262671Y-100752800D01*
X116278703Y-100693211D01*
X116291358Y-100611362D01*
X116301286Y-100498055D01*
X116309134Y-100344090D01*
X116315553Y-100140267D01*
X116321190Y-99877386D01*
X116326695Y-99546249D01*
X116331334Y-99233333D01*
X116352500Y-97772833D01*
X117051000Y-97751666D01*
X117337449Y-97741389D01*
X117554774Y-97727356D01*
X117718516Y-97705114D01*
X117844214Y-97670209D01*
X117947410Y-97618186D01*
X118043644Y-97544591D01*
X118148454Y-97444971D01*
X118159442Y-97433972D01*
X118330205Y-97225251D01*
X118427891Y-97005543D01*
X118462953Y-96750040D01*
X118463458Y-96712512D01*
X118425159Y-96417151D01*
X118310836Y-96157041D01*
X118122871Y-95937317D01*
X118091501Y-95910633D01*
X117960226Y-95809658D01*
X117838749Y-95736591D01*
X117709449Y-95687027D01*
X117554703Y-95656562D01*
X117356891Y-95640789D01*
X117098390Y-95635304D01*
X116988860Y-95635000D01*
X116373667Y-95635000D01*
X116373667Y-93264333D01*
X116913417Y-93263298D01*
X117138969Y-93259437D01*
X117352261Y-93249696D01*
X117529024Y-93235554D01*
X117643667Y-93218795D01*
X117900385Y-93118906D01*
X118126862Y-92951518D01*
X118307454Y-92732530D01*
X118426520Y-92477839D01*
X118446611Y-92402698D01*
X118464132Y-92141309D01*
X118409318Y-91876271D01*
X118291126Y-91627596D01*
X118118515Y-91415295D01*
X117945995Y-91284345D01*
X117869958Y-91241732D01*
X117798858Y-91210779D01*
X117717230Y-91189271D01*
X117609607Y-91174994D01*
X117460523Y-91165735D01*
X117254512Y-91159277D01*
X117040417Y-91154682D01*
X116331334Y-91140530D01*
X116331334Y-89724572D01*
X116331130Y-89318512D01*
X116329516Y-88987481D01*
X116324983Y-88721841D01*
X116316024Y-88511956D01*
X116301132Y-88348187D01*
X116278799Y-88220898D01*
X116247517Y-88120450D01*
X116205780Y-88037207D01*
X116152080Y-87961530D01*
X116084910Y-87883782D01*
X116034888Y-87829282D01*
X115812198Y-87644836D01*
X115559694Y-87531837D01*
X115291954Y-87490348D01*
X115023553Y-87520433D01*
X114769067Y-87622154D01*
X114543071Y-87795575D01*
X114517174Y-87822705D01*
X114440084Y-87910739D01*
X114377285Y-87997362D01*
X114327322Y-88092095D01*
X114288738Y-88204460D01*
X114260078Y-88343975D01*
X114239885Y-88520162D01*
X114226704Y-88742540D01*
X114219078Y-89020631D01*
X114215551Y-89363954D01*
X114214668Y-89782030D01*
X114214667Y-89800683D01*
X114214667Y-91147666D01*
X112098000Y-91147666D01*
X112098000Y-89728140D01*
X112097731Y-89323145D01*
X112096046Y-88993093D01*
X112091634Y-88728259D01*
X112083179Y-88518921D01*
X112069370Y-88355354D01*
X112048893Y-88227834D01*
X112020434Y-88126639D01*
X111982679Y-88042043D01*
X111934316Y-87964323D01*
X111874032Y-87883755D01*
X111843682Y-87845265D01*
X111652678Y-87669355D01*
X111412348Y-87550083D01*
X111141397Y-87493690D01*
X110858533Y-87506418D01*
X110838919Y-87510030D01*
X110615709Y-87590165D01*
X110400897Y-87732606D01*
X110222015Y-87917185D01*
X110162243Y-88005767D01*
X110044834Y-88205500D01*
X110032208Y-89676583D01*
X110019583Y-91147666D01*
X109391947Y-91147666D01*
X109030833Y-91156500D01*
X108741369Y-91186178D01*
X108512079Y-91241468D01*
X108331489Y-91327137D01*
X108188122Y-91447953D01*
X108070502Y-91608681D01*
X108009646Y-91721892D01*
X107912015Y-92010015D01*
X107897104Y-92298067D01*
X107963639Y-92576438D01*
X108110346Y-92835516D01*
X108166288Y-92904056D01*
X108280650Y-93020470D01*
X108400941Y-93107656D01*
X108542027Y-93170096D01*
X108718778Y-93212273D01*
X108946059Y-93238669D01*
X109238739Y-93253765D01*
X109335750Y-93256612D01*
X109981334Y-93273380D01*
X109981334Y-95635000D01*
X112098000Y-95635000D01*
X112098000Y-93264333D01*
X114214667Y-93264333D01*
X114214667Y-95635000D01*
X112098000Y-95635000D01*
X109981334Y-95635000D01*
X109981334Y-95677333D01*
X109314584Y-95678263D01*
X109011571Y-95681985D01*
X108777940Y-95694856D01*
X108598563Y-95720864D01*
X108458311Y-95763997D01*
X108342058Y-95828246D01*
X108234674Y-95917598D01*
X108173729Y-95979080D01*
X108018110Y-96190880D01*
X107929445Y-96434390D01*
X107901709Y-96721808D01*
X107936933Y-97021447D01*
X108043101Y-97275088D01*
X108220948Y-97483864D01*
X108471214Y-97648908D01*
X108520834Y-97672616D01*
X108601609Y-97703219D01*
X108698226Y-97724834D01*
X108826301Y-97738919D01*
X109001452Y-97746934D01*
X109239294Y-97750337D01*
X109356917Y-97750737D01*
X110023667Y-97751666D01*
X110024597Y-99180416D01*
X110025141Y-99593988D01*
X110027311Y-99932325D01*
X110032793Y-100204863D01*
X110043278Y-100421034D01*
X110060454Y-100590272D01*
X110086010Y-100722010D01*
X110121636Y-100825682D01*
X110169020Y-100910720D01*
X110229851Y-100986559D01*
X110305818Y-101062631D01*
X110372678Y-101124536D01*
X110578365Y-101276565D01*
X110802364Y-101362578D01*
X111069860Y-101391918D01*
X111093943Y-101392097D01*
X111327377Y-101365684D01*
X111327377Y-101365684D01*
G37*
X111327377Y-101365684D02*
X111537362Y-101279140D01*
X111747907Y-101122399D01*
X111757399Y-101113878D01*
X111838724Y-101040112D01*
X111904917Y-100974225D01*
X111957669Y-100906889D01*
X111998668Y-100828775D01*
X112029605Y-100730555D01*
X112052169Y-100602898D01*
X112068050Y-100436477D01*
X112078938Y-100221963D01*
X112086521Y-99950026D01*
X112092490Y-99611338D01*
X112098000Y-99233333D01*
X112119167Y-97772833D01*
X114214667Y-97750187D01*
X114214667Y-99119219D01*
X114215338Y-99515347D01*
X114217610Y-99836097D01*
X114221866Y-100090751D01*
X114228492Y-100288591D01*
X114237873Y-100438895D01*
X114250394Y-100550947D01*
X114266441Y-100634026D01*
X114279348Y-100678080D01*
X114406900Y-100937706D01*
X114584982Y-101139513D01*
X114801320Y-101282462D01*
X115043638Y-101365516D01*
X115299664Y-101387637D01*
X115557124Y-101347787D01*
X115803742Y-101244928D01*
X116027246Y-101078022D01*
X116215361Y-100846031D01*
X116217882Y-100842000D01*
X116242613Y-100799330D01*
X116262671Y-100752800D01*
X116278703Y-100693211D01*
X116291358Y-100611362D01*
X116301286Y-100498055D01*
X116309134Y-100344090D01*
X116315553Y-100140267D01*
X116321190Y-99877386D01*
X116326695Y-99546249D01*
X116331334Y-99233333D01*
X116352500Y-97772833D01*
X117051000Y-97751666D01*
X117337449Y-97741389D01*
X117554774Y-97727356D01*
X117718516Y-97705114D01*
X117844214Y-97670209D01*
X117947410Y-97618186D01*
X118043644Y-97544591D01*
X118148454Y-97444971D01*
X118159442Y-97433972D01*
X118330205Y-97225251D01*
X118427891Y-97005543D01*
X118462953Y-96750040D01*
X118463458Y-96712512D01*
X118425159Y-96417151D01*
X118310836Y-96157041D01*
X118122871Y-95937317D01*
X118091501Y-95910633D01*
X117960226Y-95809658D01*
X117838749Y-95736591D01*
X117709449Y-95687027D01*
X117554703Y-95656562D01*
X117356891Y-95640789D01*
X117098390Y-95635304D01*
X116988860Y-95635000D01*
X116373667Y-95635000D01*
X116373667Y-93264333D01*
X116913417Y-93263298D01*
X117138969Y-93259437D01*
X117352261Y-93249696D01*
X117529024Y-93235554D01*
X117643667Y-93218795D01*
X117900385Y-93118906D01*
X118126862Y-92951518D01*
X118307454Y-92732530D01*
X118426520Y-92477839D01*
X118446611Y-92402698D01*
X118464132Y-92141309D01*
X118409318Y-91876271D01*
X118291126Y-91627596D01*
X118118515Y-91415295D01*
X117945995Y-91284345D01*
X117869958Y-91241732D01*
X117798858Y-91210779D01*
X117717230Y-91189271D01*
X117609607Y-91174994D01*
X117460523Y-91165735D01*
X117254512Y-91159277D01*
X117040417Y-91154682D01*
X116331334Y-91140530D01*
X116331334Y-89724572D01*
X116331130Y-89318512D01*
X116329516Y-88987481D01*
X116324983Y-88721841D01*
X116316024Y-88511956D01*
X116301132Y-88348187D01*
X116278799Y-88220898D01*
X116247517Y-88120450D01*
X116205780Y-88037207D01*
X116152080Y-87961530D01*
X116084910Y-87883782D01*
X116034888Y-87829282D01*
X115812198Y-87644836D01*
X115559694Y-87531837D01*
X115291954Y-87490348D01*
X115023553Y-87520433D01*
X114769067Y-87622154D01*
X114543071Y-87795575D01*
X114517174Y-87822705D01*
X114440084Y-87910739D01*
X114377285Y-87997362D01*
X114327322Y-88092095D01*
X114288738Y-88204460D01*
X114260078Y-88343975D01*
X114239885Y-88520162D01*
X114226704Y-88742540D01*
X114219078Y-89020631D01*
X114215551Y-89363954D01*
X114214668Y-89782030D01*
X114214667Y-89800683D01*
X114214667Y-91147666D01*
X112098000Y-91147666D01*
X112098000Y-89728140D01*
X112097731Y-89323145D01*
X112096046Y-88993093D01*
X112091634Y-88728259D01*
X112083179Y-88518921D01*
X112069370Y-88355354D01*
X112048893Y-88227834D01*
X112020434Y-88126639D01*
X111982679Y-88042043D01*
X111934316Y-87964323D01*
X111874032Y-87883755D01*
X111843682Y-87845265D01*
X111652678Y-87669355D01*
X111412348Y-87550083D01*
X111141397Y-87493690D01*
X110858533Y-87506418D01*
X110838919Y-87510030D01*
X110615709Y-87590165D01*
X110400897Y-87732606D01*
X110222015Y-87917185D01*
X110162243Y-88005767D01*
X110044834Y-88205500D01*
X110032208Y-89676583D01*
X110019583Y-91147666D01*
X109391947Y-91147666D01*
X109030833Y-91156500D01*
X108741369Y-91186178D01*
X108512079Y-91241468D01*
X108331489Y-91327137D01*
X108188122Y-91447953D01*
X108070502Y-91608681D01*
X108009646Y-91721892D01*
X107912015Y-92010015D01*
X107897104Y-92298067D01*
X107963639Y-92576438D01*
X108110346Y-92835516D01*
X108166288Y-92904056D01*
X108280650Y-93020470D01*
X108400941Y-93107656D01*
X108542027Y-93170096D01*
X108718778Y-93212273D01*
X108946059Y-93238669D01*
X109238739Y-93253765D01*
X109335750Y-93256612D01*
X109981334Y-93273380D01*
X109981334Y-95635000D01*
X112098000Y-95635000D01*
X112098000Y-93264333D01*
X114214667Y-93264333D01*
X114214667Y-95635000D01*
X112098000Y-95635000D01*
X109981334Y-95635000D01*
X109981334Y-95677333D01*
X109314584Y-95678263D01*
X109011571Y-95681985D01*
X108777940Y-95694856D01*
X108598563Y-95720864D01*
X108458311Y-95763997D01*
X108342058Y-95828246D01*
X108234674Y-95917598D01*
X108173729Y-95979080D01*
X108018110Y-96190880D01*
X107929445Y-96434390D01*
X107901709Y-96721808D01*
X107936933Y-97021447D01*
X108043101Y-97275088D01*
X108220948Y-97483864D01*
X108471214Y-97648908D01*
X108520834Y-97672616D01*
X108601609Y-97703219D01*
X108698226Y-97724834D01*
X108826301Y-97738919D01*
X109001452Y-97746934D01*
X109239294Y-97750337D01*
X109356917Y-97750737D01*
X110023667Y-97751666D01*
X110024597Y-99180416D01*
X110025141Y-99593988D01*
X110027311Y-99932325D01*
X110032793Y-100204863D01*
X110043278Y-100421034D01*
X110060454Y-100590272D01*
X110086010Y-100722010D01*
X110121636Y-100825682D01*
X110169020Y-100910720D01*
X110229851Y-100986559D01*
X110305818Y-101062631D01*
X110372678Y-101124536D01*
X110578365Y-101276565D01*
X110802364Y-101362578D01*
X111069860Y-101391918D01*
X111093943Y-101392097D01*
X111327377Y-101365684D01*
D12*
X133930000Y-83990000D03*
D13*
X133930000Y-86530000D03*
X131390000Y-83990000D03*
X131390000Y-86530000D03*
D14*
X126490000Y-92370000D03*
X124290000Y-92370000D03*
X112090000Y-94490000D03*
X109890000Y-94490000D03*
M02*
