G04 #@! TF.FileFunction,Profile,NP*
%FSLAX46Y46*%
G04 Gerber Fmt 4.6, Leading zero omitted, Abs format (unit mm)*
G04 Created by KiCad (PCBNEW 4.0.7) date 07/12/18 16:26:43*
%MOMM*%
%LPD*%
G01*
G04 APERTURE LIST*
%ADD10C,0.100000*%
G04 APERTURE END LIST*
D10*
X133049720Y-78282406D02*
X132584777Y-78285267D01*
X132584777Y-78285267D02*
X132121327Y-78302593D01*
X132121327Y-78302593D02*
X131661195Y-78334489D01*
X131661195Y-78334489D02*
X131206209Y-78381056D01*
X131206209Y-78381056D02*
X130758193Y-78442397D01*
X130758193Y-78442397D02*
X130537370Y-78478640D01*
X130537370Y-78478640D02*
X130318975Y-78518615D01*
X130318975Y-78518615D02*
X130103235Y-78562334D01*
X130103235Y-78562334D02*
X129890379Y-78609811D01*
X129890379Y-78609811D02*
X129680636Y-78661059D01*
X129680636Y-78661059D02*
X129474233Y-78716090D01*
X129474233Y-78716090D02*
X129271399Y-78774917D01*
X129271399Y-78774917D02*
X129072362Y-78837553D01*
X129072362Y-78837553D02*
X128877351Y-78904010D01*
X128877351Y-78904010D02*
X128686593Y-78974303D01*
X128686593Y-78974303D02*
X128500317Y-79048442D01*
X128500317Y-79048442D02*
X128318752Y-79126442D01*
X128318752Y-79126442D02*
X128142125Y-79208315D01*
X128142125Y-79208315D02*
X127970664Y-79294073D01*
X127970664Y-79294073D02*
X127804599Y-79383730D01*
X127804599Y-79383730D02*
X127644156Y-79477299D01*
X127644156Y-79477299D02*
X127489566Y-79574792D01*
X127489566Y-79574792D02*
X127341055Y-79676222D01*
X127341055Y-79676222D02*
X127198852Y-79781602D01*
X127198852Y-79781602D02*
X127063185Y-79890945D01*
X127063185Y-79890945D02*
X126934283Y-80004264D01*
X126934283Y-80004264D02*
X126812374Y-80121570D01*
X126812374Y-80121570D02*
X126728163Y-80211241D01*
X126728163Y-80211241D02*
X126647883Y-80306343D01*
X126647883Y-80306343D02*
X126571467Y-80406726D01*
X126571467Y-80406726D02*
X126498845Y-80512242D01*
X126498845Y-80512242D02*
X126429948Y-80622741D01*
X126429948Y-80622741D02*
X126364709Y-80738073D01*
X126364709Y-80738073D02*
X126303057Y-80858089D01*
X126303057Y-80858089D02*
X126244925Y-80982640D01*
X126244925Y-80982640D02*
X126190244Y-81111576D01*
X126190244Y-81111576D02*
X126138944Y-81244749D01*
X126138944Y-81244749D02*
X126090958Y-81382008D01*
X126090958Y-81382008D02*
X126046217Y-81523204D01*
X126046217Y-81523204D02*
X126004651Y-81668188D01*
X126004651Y-81668188D02*
X125966193Y-81816810D01*
X125966193Y-81816810D02*
X125898323Y-82124373D01*
X125898323Y-82124373D02*
X125842056Y-82444696D01*
X125842056Y-82444696D02*
X125796844Y-82776586D01*
X125796844Y-82776586D02*
X125762137Y-83118847D01*
X125762137Y-83118847D02*
X125737384Y-83470284D01*
X125737384Y-83470284D02*
X125722037Y-83829701D01*
X125722037Y-83829701D02*
X125715545Y-84195904D01*
X125715545Y-84195904D02*
X125717359Y-84567698D01*
X125717359Y-84567698D02*
X125726929Y-84943887D01*
X125726929Y-84943887D02*
X125743705Y-85323277D01*
X125743705Y-85323277D02*
X125767138Y-85704673D01*
X125767138Y-85704673D02*
X125796677Y-86086878D01*
X125796677Y-86086878D02*
X125831774Y-86468699D01*
X125831774Y-86468699D02*
X125871878Y-86848940D01*
X125871878Y-86848940D02*
X125916440Y-87226406D01*
X125916440Y-87226406D02*
X125964910Y-87599903D01*
X125964910Y-87599903D02*
X126016738Y-87968234D01*
X126016738Y-87968234D02*
X126128270Y-88684620D01*
X126128270Y-88684620D02*
X126246639Y-89366006D01*
X126246639Y-89366006D02*
X126367447Y-90002829D01*
X126367447Y-90002829D02*
X126486295Y-90585530D01*
X126486295Y-90585530D02*
X125739130Y-90546804D01*
X125739130Y-90546804D02*
X125362212Y-90532832D01*
X125362212Y-90532832D02*
X124983943Y-90524432D01*
X124983943Y-90524432D02*
X124604978Y-90523088D01*
X124604978Y-90523088D02*
X124225973Y-90530284D01*
X124225973Y-90530284D02*
X123847581Y-90547503D01*
X123847581Y-90547503D02*
X123470459Y-90576230D01*
X123470459Y-90576230D02*
X123349612Y-90245650D01*
X123349612Y-90245650D02*
X123221759Y-89917211D01*
X123221759Y-89917211D02*
X123086766Y-89591368D01*
X123086766Y-89591368D02*
X122944498Y-89268576D01*
X122944498Y-89268576D02*
X122794822Y-88949291D01*
X122794822Y-88949291D02*
X122637602Y-88633967D01*
X122637602Y-88633967D02*
X122472706Y-88323060D01*
X122472706Y-88323060D02*
X122299998Y-88017025D01*
X122299998Y-88017025D02*
X122119344Y-87716317D01*
X122119344Y-87716317D02*
X121930611Y-87421391D01*
X121930611Y-87421391D02*
X121733664Y-87132702D01*
X121733664Y-87132702D02*
X121528368Y-86850705D01*
X121528368Y-86850705D02*
X121314590Y-86575855D01*
X121314590Y-86575855D02*
X121092196Y-86308608D01*
X121092196Y-86308608D02*
X120861051Y-86049419D01*
X120861051Y-86049419D02*
X120621020Y-85798742D01*
X120621020Y-85798742D02*
X120341478Y-85527921D01*
X120341478Y-85527921D02*
X120051671Y-85268556D01*
X120051671Y-85268556D02*
X119902983Y-85143403D01*
X119902983Y-85143403D02*
X119751807Y-85021392D01*
X119751807Y-85021392D02*
X119598170Y-84902618D01*
X119598170Y-84902618D02*
X119442098Y-84787173D01*
X119442098Y-84787173D02*
X119283616Y-84675150D01*
X119283616Y-84675150D02*
X119122751Y-84566643D01*
X119122751Y-84566643D02*
X118959529Y-84461745D01*
X118959529Y-84461745D02*
X118793977Y-84360548D01*
X118793977Y-84360548D02*
X118626120Y-84263146D01*
X118626120Y-84263146D02*
X118455984Y-84169631D01*
X118455984Y-84169631D02*
X118283596Y-84080098D01*
X118283596Y-84080098D02*
X118108982Y-83994639D01*
X118108982Y-83994639D02*
X117932168Y-83913346D01*
X117932168Y-83913346D02*
X117753181Y-83836314D01*
X117753181Y-83836314D02*
X117572045Y-83763635D01*
X117572045Y-83763635D02*
X117388789Y-83695402D01*
X117388789Y-83695402D02*
X117203437Y-83631708D01*
X117203437Y-83631708D02*
X117016016Y-83572647D01*
X117016016Y-83572647D02*
X116826552Y-83518312D01*
X116826552Y-83518312D02*
X116635072Y-83468795D01*
X116635072Y-83468795D02*
X116441600Y-83424189D01*
X116441600Y-83424189D02*
X116246165Y-83384589D01*
X116246165Y-83384589D02*
X116048791Y-83350086D01*
X116048791Y-83350086D02*
X115849505Y-83320774D01*
X115849505Y-83320774D02*
X115648334Y-83296746D01*
X115648334Y-83296746D02*
X115445302Y-83278095D01*
X115445302Y-83278095D02*
X115240437Y-83264914D01*
X115240437Y-83264914D02*
X115033765Y-83257296D01*
X115033765Y-83257296D02*
X115030147Y-83257296D01*
X115030147Y-83257296D02*
X114778105Y-83257243D01*
X114778105Y-83257243D02*
X114523418Y-83267573D01*
X114523418Y-83267573D02*
X114266300Y-83287672D01*
X114266300Y-83287672D02*
X114006964Y-83316921D01*
X114006964Y-83316921D02*
X113745624Y-83354705D01*
X113745624Y-83354705D02*
X113482495Y-83400406D01*
X113482495Y-83400406D02*
X113217789Y-83453408D01*
X113217789Y-83453408D02*
X112951721Y-83513095D01*
X112951721Y-83513095D02*
X112948104Y-83513095D01*
X112948104Y-83513095D02*
X112834243Y-83502932D01*
X112834243Y-83502932D02*
X112695573Y-83480755D01*
X112695573Y-83480755D02*
X112532785Y-83453274D01*
X112532785Y-83453274D02*
X112346571Y-83427202D01*
X112346571Y-83427202D02*
X112137621Y-83409251D01*
X112137621Y-83409251D02*
X112024836Y-83405418D01*
X112024836Y-83405418D02*
X111906627Y-83406132D01*
X111906627Y-83406132D02*
X111783080Y-83412232D01*
X111783080Y-83412232D02*
X111654281Y-83424556D01*
X111654281Y-83424556D02*
X111520317Y-83443945D01*
X111520317Y-83443945D02*
X111381274Y-83471237D01*
X111381274Y-83471237D02*
X111325464Y-83485189D01*
X111325464Y-83485189D02*
X111001684Y-83587670D01*
X111001684Y-83587670D02*
X110685800Y-83700056D01*
X110685800Y-83700056D02*
X110377771Y-83822099D01*
X110377771Y-83822099D02*
X110077557Y-83953552D01*
X110077557Y-83953552D02*
X109785116Y-84094165D01*
X109785116Y-84094165D02*
X109500409Y-84243691D01*
X109500409Y-84243691D02*
X109223394Y-84401882D01*
X109223394Y-84401882D02*
X108954032Y-84568489D01*
X108954032Y-84568489D02*
X108692281Y-84743263D01*
X108692281Y-84743263D02*
X108438101Y-84925958D01*
X108438101Y-84925958D02*
X108191451Y-85116324D01*
X108191451Y-85116324D02*
X107952290Y-85314113D01*
X107952290Y-85314113D02*
X107720579Y-85519078D01*
X107720579Y-85519078D02*
X107496276Y-85730969D01*
X107496276Y-85730969D02*
X107279341Y-85949539D01*
X107279341Y-85949539D02*
X107069732Y-86174540D01*
X107069732Y-86174540D02*
X106867411Y-86405722D01*
X106867411Y-86405722D02*
X106672335Y-86642838D01*
X106672335Y-86642838D02*
X106484465Y-86885641D01*
X106484465Y-86885641D02*
X106303759Y-87133880D01*
X106303759Y-87133880D02*
X106130178Y-87387309D01*
X106130178Y-87387309D02*
X105963680Y-87645679D01*
X105963680Y-87645679D02*
X105804225Y-87908741D01*
X105804225Y-87908741D02*
X105651772Y-88176248D01*
X105651772Y-88176248D02*
X105506281Y-88447952D01*
X105506281Y-88447952D02*
X105367711Y-88723603D01*
X105367711Y-88723603D02*
X105236021Y-89002955D01*
X105236021Y-89002955D02*
X105111171Y-89285758D01*
X105111171Y-89285758D02*
X104993121Y-89571764D01*
X104993121Y-89571764D02*
X104881829Y-89860725D01*
X104881829Y-89860725D02*
X104777255Y-90152394D01*
X104777255Y-90152394D02*
X104679358Y-90446521D01*
X104679358Y-90446521D02*
X104587855Y-90742972D01*
X104587855Y-90742972D02*
X104502449Y-91041654D01*
X104502449Y-91041654D02*
X104423083Y-91342384D01*
X104423083Y-91342384D02*
X104349698Y-91644982D01*
X104349698Y-91644982D02*
X104282236Y-91949265D01*
X104282236Y-91949265D02*
X104220638Y-92255051D01*
X104220638Y-92255051D02*
X104164847Y-92562159D01*
X104164847Y-92562159D02*
X104114803Y-92870407D01*
X104114803Y-92870407D02*
X104070449Y-93179613D01*
X104070449Y-93179613D02*
X104031726Y-93489597D01*
X104031726Y-93489597D02*
X103998577Y-93800175D01*
X103998577Y-93800175D02*
X103970942Y-94111166D01*
X103970942Y-94111166D02*
X103948764Y-94422389D01*
X103948764Y-94422389D02*
X103931984Y-94733662D01*
X103931984Y-94733662D02*
X103920544Y-95044802D01*
X103920544Y-95044802D02*
X103914386Y-95355629D01*
X103914386Y-95355629D02*
X103913451Y-95665961D01*
X103913451Y-95665961D02*
X103917682Y-95975615D01*
X103917682Y-95975615D02*
X103927019Y-96284411D01*
X103927019Y-96284411D02*
X103941405Y-96592166D01*
X103941405Y-96592166D02*
X103960781Y-96898699D01*
X103960781Y-96898699D02*
X103985088Y-97203828D01*
X103985088Y-97203828D02*
X104014270Y-97507371D01*
X104014270Y-97507371D02*
X104048267Y-97809147D01*
X104048267Y-97809147D02*
X104087021Y-98108974D01*
X104087021Y-98108974D02*
X104130474Y-98406670D01*
X104130474Y-98406670D02*
X104178568Y-98702053D01*
X104178568Y-98702053D02*
X104231244Y-98994942D01*
X104231244Y-98994942D02*
X104288444Y-99285155D01*
X104288444Y-99285155D02*
X104350109Y-99572510D01*
X104350109Y-99572510D02*
X104416183Y-99856826D01*
X104416183Y-99856826D02*
X104486605Y-100137920D01*
X104486605Y-100137920D02*
X104509728Y-100210936D01*
X104509728Y-100210936D02*
X104539315Y-100281581D01*
X104539315Y-100281581D02*
X104725108Y-100671887D01*
X104725108Y-100671887D02*
X104918723Y-101059277D01*
X104918723Y-101059277D02*
X105120406Y-101442933D01*
X105120406Y-101442933D02*
X105330400Y-101822036D01*
X105330400Y-101822036D02*
X105548950Y-102195770D01*
X105548950Y-102195770D02*
X105776301Y-102563315D01*
X105776301Y-102563315D02*
X106012696Y-102923853D01*
X106012696Y-102923853D02*
X106258382Y-103276568D01*
X106258382Y-103276568D02*
X106513602Y-103620640D01*
X106513602Y-103620640D02*
X106778601Y-103955253D01*
X106778601Y-103955253D02*
X107053624Y-104279587D01*
X107053624Y-104279587D02*
X107338914Y-104592825D01*
X107338914Y-104592825D02*
X107485486Y-104745027D01*
X107485486Y-104745027D02*
X107634717Y-104894149D01*
X107634717Y-104894149D02*
X107786637Y-105040087D01*
X107786637Y-105040087D02*
X107941277Y-105182740D01*
X107941277Y-105182740D02*
X108098667Y-105322006D01*
X108098667Y-105322006D02*
X108258839Y-105457782D01*
X108258839Y-105457782D02*
X108421822Y-105589966D01*
X108421822Y-105589966D02*
X108587647Y-105718456D01*
X108587647Y-105718456D02*
X108753923Y-105841138D01*
X108753923Y-105841138D02*
X108923228Y-105959687D01*
X108923228Y-105959687D02*
X109095527Y-106073998D01*
X109095527Y-106073998D02*
X109270787Y-106183964D01*
X109270787Y-106183964D02*
X109448972Y-106289478D01*
X109448972Y-106289478D02*
X109630050Y-106390435D01*
X109630050Y-106390435D02*
X109813985Y-106486727D01*
X109813985Y-106486727D02*
X110000743Y-106578249D01*
X110000743Y-106578249D02*
X110190291Y-106664893D01*
X110190291Y-106664893D02*
X110382594Y-106746553D01*
X110382594Y-106746553D02*
X110577617Y-106823123D01*
X110577617Y-106823123D02*
X110775327Y-106894497D01*
X110775327Y-106894497D02*
X110975689Y-106960567D01*
X110975689Y-106960567D02*
X111178669Y-107021228D01*
X111178669Y-107021228D02*
X111384233Y-107076372D01*
X111384233Y-107076372D02*
X111592346Y-107125894D01*
X111592346Y-107125894D02*
X111802975Y-107169687D01*
X111802975Y-107169687D02*
X112016085Y-107207644D01*
X112016085Y-107207644D02*
X112231642Y-107239659D01*
X112231642Y-107239659D02*
X112449612Y-107265626D01*
X112449612Y-107265626D02*
X112669960Y-107285438D01*
X112669960Y-107285438D02*
X112892653Y-107298989D01*
X112892653Y-107298989D02*
X113117656Y-107306172D01*
X113117656Y-107306172D02*
X113344934Y-107306880D01*
X113344934Y-107306880D02*
X113574454Y-107301008D01*
X113574454Y-107301008D02*
X113806182Y-107288448D01*
X113806182Y-107288448D02*
X114040083Y-107269095D01*
X114040083Y-107269095D02*
X114276123Y-107242841D01*
X114276123Y-107242841D02*
X114514267Y-107209581D01*
X114514267Y-107209581D02*
X114754482Y-107169208D01*
X114754482Y-107169208D02*
X114996734Y-107121615D01*
X114996734Y-107121615D02*
X115240987Y-107066696D01*
X115240987Y-107066696D02*
X115423777Y-107069012D01*
X115423777Y-107069012D02*
X115604369Y-107066559D01*
X115604369Y-107066559D02*
X115782777Y-107059430D01*
X115782777Y-107059430D02*
X115959020Y-107047721D01*
X115959020Y-107047721D02*
X116133112Y-107031525D01*
X116133112Y-107031525D02*
X116305072Y-107010936D01*
X116305072Y-107010936D02*
X116474914Y-106986048D01*
X116474914Y-106986048D02*
X116642656Y-106956954D01*
X116642656Y-106956954D02*
X116808314Y-106923750D01*
X116808314Y-106923750D02*
X116971904Y-106886528D01*
X116971904Y-106886528D02*
X117133443Y-106845383D01*
X117133443Y-106845383D02*
X117292947Y-106800409D01*
X117292947Y-106800409D02*
X117450432Y-106751700D01*
X117450432Y-106751700D02*
X117605916Y-106699349D01*
X117605916Y-106699349D02*
X117910943Y-106584099D01*
X117910943Y-106584099D02*
X118208159Y-106455411D01*
X118208159Y-106455411D02*
X118497696Y-106314038D01*
X118497696Y-106314038D02*
X118779684Y-106160730D01*
X118779684Y-106160730D02*
X119054256Y-105996239D01*
X119054256Y-105996239D02*
X119321542Y-105821317D01*
X119321542Y-105821317D02*
X119581674Y-105636716D01*
X119581674Y-105636716D02*
X119834783Y-105443188D01*
X119834783Y-105443188D02*
X120081002Y-105241484D01*
X120081002Y-105241484D02*
X120208603Y-105429685D01*
X120208603Y-105429685D02*
X120340127Y-105614549D01*
X120340127Y-105614549D02*
X120475510Y-105796054D01*
X120475510Y-105796054D02*
X120614687Y-105974177D01*
X120614687Y-105974177D02*
X120757592Y-106148896D01*
X120757592Y-106148896D02*
X120904161Y-106320188D01*
X120904161Y-106320188D02*
X121054328Y-106488029D01*
X121054328Y-106488029D02*
X121208029Y-106652398D01*
X121208029Y-106652398D02*
X121365199Y-106813272D01*
X121365199Y-106813272D02*
X121525772Y-106970629D01*
X121525772Y-106970629D02*
X121689684Y-107124444D01*
X121689684Y-107124444D02*
X121856870Y-107274697D01*
X121856870Y-107274697D02*
X122027264Y-107421364D01*
X122027264Y-107421364D02*
X122200803Y-107564422D01*
X122200803Y-107564422D02*
X122377419Y-107703849D01*
X122377419Y-107703849D02*
X122557050Y-107839623D01*
X122557050Y-107839623D02*
X122739629Y-107971720D01*
X122739629Y-107971720D02*
X122925092Y-108100118D01*
X122925092Y-108100118D02*
X123113374Y-108224794D01*
X123113374Y-108224794D02*
X123304409Y-108345726D01*
X123304409Y-108345726D02*
X123498133Y-108462891D01*
X123498133Y-108462891D02*
X123694482Y-108576267D01*
X123694482Y-108576267D02*
X123893388Y-108685830D01*
X123893388Y-108685830D02*
X124094789Y-108791557D01*
X124094789Y-108791557D02*
X124298619Y-108893428D01*
X124298619Y-108893428D02*
X124504812Y-108991418D01*
X124504812Y-108991418D02*
X124713304Y-109085505D01*
X124713304Y-109085505D02*
X124924030Y-109175666D01*
X124924030Y-109175666D02*
X125136925Y-109261879D01*
X125136925Y-109261879D02*
X125351924Y-109344122D01*
X125351924Y-109344122D02*
X125568962Y-109422370D01*
X125568962Y-109422370D02*
X125787974Y-109496603D01*
X125787974Y-109496603D02*
X126008895Y-109566796D01*
X126008895Y-109566796D02*
X126231659Y-109632928D01*
X126231659Y-109632928D02*
X126456203Y-109694976D01*
X126456203Y-109694976D02*
X126682460Y-109752917D01*
X126682460Y-109752917D02*
X126910367Y-109806728D01*
X126910367Y-109806728D02*
X127139857Y-109856387D01*
X127139857Y-109856387D02*
X127370867Y-109901871D01*
X127370867Y-109901871D02*
X127603330Y-109943158D01*
X127603330Y-109943158D02*
X127837183Y-109980225D01*
X127837183Y-109980225D02*
X128072359Y-110013049D01*
X128072359Y-110013049D02*
X128308795Y-110041607D01*
X128308795Y-110041607D02*
X128546425Y-110065878D01*
X128546425Y-110065878D02*
X128785184Y-110085837D01*
X128785184Y-110085837D02*
X129025007Y-110101464D01*
X129025007Y-110101464D02*
X129265829Y-110112734D01*
X129265829Y-110112734D02*
X129507585Y-110119625D01*
X129507585Y-110119625D02*
X129750210Y-110122115D01*
X129750210Y-110122115D02*
X129993639Y-110120181D01*
X129993639Y-110120181D02*
X130237808Y-110113800D01*
X130237808Y-110113800D02*
X130482651Y-110102950D01*
X130482651Y-110102950D02*
X130728103Y-110087608D01*
X130728103Y-110087608D02*
X130974099Y-110067751D01*
X130974099Y-110067751D02*
X131220574Y-110043357D01*
X131220574Y-110043357D02*
X131467464Y-110014403D01*
X131467464Y-110014403D02*
X131714702Y-109980866D01*
X131714702Y-109980866D02*
X131962225Y-109942724D01*
X131962225Y-109942724D02*
X132209968Y-109899955D01*
X132209968Y-109899955D02*
X132457864Y-109852534D01*
X132457864Y-109852534D02*
X132705850Y-109800440D01*
X132705850Y-109800440D02*
X132953860Y-109743651D01*
X132953860Y-109743651D02*
X133201830Y-109682142D01*
X133201830Y-109682142D02*
X133449693Y-109615893D01*
X133449693Y-109615893D02*
X133524624Y-109591399D01*
X133524624Y-109591399D02*
X133596971Y-109560084D01*
X133596971Y-109560084D02*
X133734748Y-109487432D01*
X133734748Y-109487432D02*
X133867267Y-109408022D01*
X133867267Y-109408022D02*
X133995559Y-109323155D01*
X133995559Y-109323155D02*
X134120661Y-109234129D01*
X134120661Y-109234129D02*
X134365425Y-109048806D01*
X134365425Y-109048806D02*
X134609830Y-108862452D01*
X134609830Y-108862452D02*
X134755089Y-108987899D01*
X134755089Y-108987899D02*
X134899191Y-109114632D01*
X134899191Y-109114632D02*
X135046665Y-109237102D01*
X135046665Y-109237102D02*
X135123083Y-109295004D01*
X135123083Y-109295004D02*
X135202042Y-109349759D01*
X135202042Y-109349759D02*
X135282963Y-109397188D01*
X135282963Y-109397188D02*
X135368343Y-109435335D01*
X135368343Y-109435335D02*
X135457389Y-109463897D01*
X135457389Y-109463897D02*
X135549308Y-109482569D01*
X135549308Y-109482569D02*
X135944052Y-109532780D01*
X135944052Y-109532780D02*
X136328315Y-109567611D01*
X136328315Y-109567611D02*
X136702478Y-109588385D01*
X136702478Y-109588385D02*
X137066922Y-109596426D01*
X137066922Y-109596426D02*
X137422028Y-109593057D01*
X137422028Y-109593057D02*
X137768176Y-109579600D01*
X137768176Y-109579600D02*
X138105748Y-109557379D01*
X138105748Y-109557379D02*
X138435125Y-109527717D01*
X138435125Y-109527717D02*
X138756687Y-109491936D01*
X138756687Y-109491936D02*
X139070816Y-109451360D01*
X139070816Y-109451360D02*
X139678297Y-109361115D01*
X139678297Y-109361115D02*
X140260616Y-109267564D01*
X140260616Y-109267564D02*
X140820821Y-109181294D01*
X140820821Y-109181294D02*
X141093474Y-109143591D01*
X141093474Y-109143591D02*
X141361956Y-109110304D01*
X141361956Y-109110304D02*
X141627296Y-109082508D01*
X141627296Y-109082508D02*
X141890520Y-109061279D01*
X141890520Y-109061279D02*
X142152656Y-109047693D01*
X142152656Y-109047693D02*
X142414732Y-109042826D01*
X142414732Y-109042826D02*
X142677776Y-109047755D01*
X142677776Y-109047755D02*
X142942815Y-109063555D01*
X142942815Y-109063555D02*
X143210876Y-109091303D01*
X143210876Y-109091303D02*
X143482989Y-109132075D01*
X143482989Y-109132075D02*
X143760180Y-109186946D01*
X143760180Y-109186946D02*
X144043476Y-109256993D01*
X144043476Y-109256993D02*
X144333906Y-109343292D01*
X144333906Y-109343292D02*
X144632498Y-109446918D01*
X144632498Y-109446918D02*
X144940278Y-109568949D01*
X144940278Y-109568949D02*
X145258275Y-109710460D01*
X145258275Y-109710460D02*
X145340469Y-109743918D01*
X145340469Y-109743918D02*
X145425003Y-109768480D01*
X145425003Y-109768480D02*
X145511173Y-109784129D01*
X145511173Y-109784129D02*
X145598275Y-109790845D01*
X145598275Y-109790845D02*
X145685608Y-109788612D01*
X145685608Y-109788612D02*
X145772467Y-109777410D01*
X145772467Y-109777410D02*
X145858151Y-109757223D01*
X145858151Y-109757223D02*
X145941956Y-109728031D01*
X145941956Y-109728031D02*
X146130111Y-109645008D01*
X146130111Y-109645008D02*
X146310142Y-109554362D01*
X146310142Y-109554362D02*
X146483391Y-109457369D01*
X146483391Y-109457369D02*
X146651198Y-109355307D01*
X146651198Y-109355307D02*
X146814905Y-109249450D01*
X146814905Y-109249450D02*
X146975854Y-109141076D01*
X146975854Y-109141076D02*
X147294844Y-108921880D01*
X147294844Y-108921880D02*
X147510114Y-109038178D01*
X147510114Y-109038178D02*
X147726795Y-109149998D01*
X147726795Y-109149998D02*
X147944817Y-109257358D01*
X147944817Y-109257358D02*
X148164106Y-109360273D01*
X148164106Y-109360273D02*
X148384590Y-109458762D01*
X148384590Y-109458762D02*
X148606197Y-109552842D01*
X148606197Y-109552842D02*
X148828856Y-109642529D01*
X148828856Y-109642529D02*
X149052494Y-109727842D01*
X149052494Y-109727842D02*
X149277038Y-109808796D01*
X149277038Y-109808796D02*
X149502417Y-109885410D01*
X149502417Y-109885410D02*
X149728558Y-109957701D01*
X149728558Y-109957701D02*
X149955390Y-110025685D01*
X149955390Y-110025685D02*
X150182840Y-110089380D01*
X150182840Y-110089380D02*
X150410836Y-110148803D01*
X150410836Y-110148803D02*
X150639306Y-110203972D01*
X150639306Y-110203972D02*
X150868177Y-110254902D01*
X150868177Y-110254902D02*
X151097378Y-110301612D01*
X151097378Y-110301612D02*
X151326836Y-110344119D01*
X151326836Y-110344119D02*
X151556480Y-110382440D01*
X151556480Y-110382440D02*
X151786236Y-110416592D01*
X151786236Y-110416592D02*
X152016034Y-110446592D01*
X152016034Y-110446592D02*
X152245800Y-110472457D01*
X152245800Y-110472457D02*
X152475463Y-110494205D01*
X152475463Y-110494205D02*
X152704950Y-110511853D01*
X152704950Y-110511853D02*
X152934189Y-110525418D01*
X152934189Y-110525418D02*
X153163109Y-110534917D01*
X153163109Y-110534917D02*
X153391636Y-110540367D01*
X153391636Y-110540367D02*
X153619700Y-110541785D01*
X153619700Y-110541785D02*
X153847227Y-110539189D01*
X153847227Y-110539189D02*
X154074145Y-110532596D01*
X154074145Y-110532596D02*
X154300383Y-110522023D01*
X154300383Y-110522023D02*
X154525868Y-110507487D01*
X154525868Y-110507487D02*
X154750528Y-110489005D01*
X154750528Y-110489005D02*
X154974291Y-110466595D01*
X154974291Y-110466595D02*
X155197084Y-110440273D01*
X155197084Y-110440273D02*
X155418836Y-110410057D01*
X155418836Y-110410057D02*
X155639475Y-110375964D01*
X155639475Y-110375964D02*
X155858927Y-110338011D01*
X155858927Y-110338011D02*
X156077122Y-110296216D01*
X156077122Y-110296216D02*
X156293986Y-110250595D01*
X156293986Y-110250595D02*
X156509449Y-110201165D01*
X156509449Y-110201165D02*
X156723437Y-110147945D01*
X156723437Y-110147945D02*
X156935878Y-110090950D01*
X156935878Y-110090950D02*
X157146701Y-110030199D01*
X157146701Y-110030199D02*
X157355833Y-109965708D01*
X157355833Y-109965708D02*
X157563201Y-109897494D01*
X157563201Y-109897494D02*
X157768735Y-109825575D01*
X157768735Y-109825575D02*
X157972361Y-109749968D01*
X157972361Y-109749968D02*
X158174008Y-109670691D01*
X158174008Y-109670691D02*
X158373603Y-109587759D01*
X158373603Y-109587759D02*
X158571074Y-109501190D01*
X158571074Y-109501190D02*
X158766350Y-109411003D01*
X158766350Y-109411003D02*
X158959357Y-109317213D01*
X158959357Y-109317213D02*
X159150024Y-109219837D01*
X159150024Y-109219837D02*
X159338278Y-109118894D01*
X159338278Y-109118894D02*
X159524048Y-109014400D01*
X159524048Y-109014400D02*
X159707261Y-108906373D01*
X159707261Y-108906373D02*
X159887845Y-108794829D01*
X159887845Y-108794829D02*
X160065728Y-108679786D01*
X160065728Y-108679786D02*
X160240838Y-108561260D01*
X160240838Y-108561260D02*
X160413102Y-108439270D01*
X160413102Y-108439270D02*
X160582449Y-108313832D01*
X160582449Y-108313832D02*
X160748806Y-108184964D01*
X160748806Y-108184964D02*
X160912102Y-108052682D01*
X160912102Y-108052682D02*
X161076429Y-108192718D01*
X161076429Y-108192718D02*
X161244466Y-108328520D01*
X161244466Y-108328520D02*
X161416179Y-108459972D01*
X161416179Y-108459972D02*
X161591531Y-108586957D01*
X161591531Y-108586957D02*
X161770489Y-108709361D01*
X161770489Y-108709361D02*
X161953018Y-108827066D01*
X161953018Y-108827066D02*
X162139083Y-108939956D01*
X162139083Y-108939956D02*
X162328649Y-109047915D01*
X162328649Y-109047915D02*
X162521682Y-109150828D01*
X162521682Y-109150828D02*
X162718147Y-109248577D01*
X162718147Y-109248577D02*
X162918008Y-109341048D01*
X162918008Y-109341048D02*
X163121232Y-109428123D01*
X163121232Y-109428123D02*
X163327784Y-109509686D01*
X163327784Y-109509686D02*
X163537628Y-109585622D01*
X163537628Y-109585622D02*
X163750731Y-109655814D01*
X163750731Y-109655814D02*
X163967057Y-109720146D01*
X163967057Y-109720146D02*
X164186571Y-109778502D01*
X164186571Y-109778502D02*
X164409239Y-109830766D01*
X164409239Y-109830766D02*
X164635027Y-109876821D01*
X164635027Y-109876821D02*
X164863899Y-109916553D01*
X164863899Y-109916553D02*
X165095820Y-109949843D01*
X165095820Y-109949843D02*
X165330756Y-109976577D01*
X165330756Y-109976577D02*
X165568672Y-109996637D01*
X165568672Y-109996637D02*
X165809534Y-110009909D01*
X165809534Y-110009909D02*
X166053307Y-110016276D01*
X166053307Y-110016276D02*
X166299955Y-110015621D01*
X166299955Y-110015621D02*
X166549444Y-110007829D01*
X166549444Y-110007829D02*
X166801740Y-109992783D01*
X166801740Y-109992783D02*
X167056808Y-109970367D01*
X167056808Y-109970367D02*
X167314612Y-109940466D01*
X167314612Y-109940466D02*
X167575119Y-109902962D01*
X167575119Y-109902962D02*
X167838292Y-109857741D01*
X167838292Y-109857741D02*
X168087942Y-109903824D01*
X168087942Y-109903824D02*
X168334173Y-109942614D01*
X168334173Y-109942614D02*
X168576968Y-109974219D01*
X168576968Y-109974219D02*
X168816306Y-109998745D01*
X168816306Y-109998745D02*
X169052170Y-110016298D01*
X169052170Y-110016298D02*
X169284542Y-110026986D01*
X169284542Y-110026986D02*
X169513401Y-110030916D01*
X169513401Y-110030916D02*
X169738730Y-110028195D01*
X169738730Y-110028195D02*
X169960510Y-110018929D01*
X169960510Y-110018929D02*
X170178722Y-110003226D01*
X170178722Y-110003226D02*
X170393348Y-109981192D01*
X170393348Y-109981192D02*
X170604369Y-109952934D01*
X170604369Y-109952934D02*
X170811766Y-109918560D01*
X170811766Y-109918560D02*
X171015520Y-109878175D01*
X171015520Y-109878175D02*
X171215613Y-109831888D01*
X171215613Y-109831888D02*
X171412027Y-109779804D01*
X171412027Y-109779804D02*
X171604742Y-109722031D01*
X171604742Y-109722031D02*
X171793740Y-109658676D01*
X171793740Y-109658676D02*
X171979002Y-109589846D01*
X171979002Y-109589846D02*
X172160509Y-109515647D01*
X172160509Y-109515647D02*
X172338243Y-109436187D01*
X172338243Y-109436187D02*
X172512186Y-109351572D01*
X172512186Y-109351572D02*
X172682318Y-109261909D01*
X172682318Y-109261909D02*
X172848620Y-109167305D01*
X172848620Y-109167305D02*
X173011075Y-109067868D01*
X173011075Y-109067868D02*
X173169663Y-108963703D01*
X173169663Y-108963703D02*
X173324366Y-108854919D01*
X173324366Y-108854919D02*
X173475165Y-108741621D01*
X173475165Y-108741621D02*
X173622042Y-108623917D01*
X173622042Y-108623917D02*
X173764977Y-108501913D01*
X173764977Y-108501913D02*
X173903952Y-108375717D01*
X173903952Y-108375717D02*
X174038948Y-108245436D01*
X174038948Y-108245436D02*
X174201707Y-108374297D01*
X174201707Y-108374297D02*
X174367825Y-108499146D01*
X174367825Y-108499146D02*
X174537274Y-108619879D01*
X174537274Y-108619879D02*
X174710022Y-108736390D01*
X174710022Y-108736390D02*
X174886041Y-108848574D01*
X174886041Y-108848574D02*
X175065300Y-108956327D01*
X175065300Y-108956327D02*
X175247770Y-109059542D01*
X175247770Y-109059542D02*
X175433419Y-109158114D01*
X175433419Y-109158114D02*
X175622219Y-109251939D01*
X175622219Y-109251939D02*
X175814139Y-109340911D01*
X175814139Y-109340911D02*
X176009150Y-109424926D01*
X176009150Y-109424926D02*
X176207221Y-109503877D01*
X176207221Y-109503877D02*
X176408322Y-109577661D01*
X176408322Y-109577661D02*
X176612424Y-109646171D01*
X176612424Y-109646171D02*
X176819496Y-109709302D01*
X176819496Y-109709302D02*
X177029508Y-109766950D01*
X177029508Y-109766950D02*
X177242431Y-109819010D01*
X177242431Y-109819010D02*
X177458235Y-109865375D01*
X177458235Y-109865375D02*
X177676889Y-109905941D01*
X177676889Y-109905941D02*
X177898364Y-109940603D01*
X177898364Y-109940603D02*
X178122629Y-109969256D01*
X178122629Y-109969256D02*
X178349655Y-109991794D01*
X178349655Y-109991794D02*
X178579411Y-110008112D01*
X178579411Y-110008112D02*
X178811868Y-110018106D01*
X178811868Y-110018106D02*
X179046996Y-110021669D01*
X179046996Y-110021669D02*
X179284764Y-110018698D01*
X179284764Y-110018698D02*
X179525144Y-110009086D01*
X179525144Y-110009086D02*
X179768104Y-109992728D01*
X179768104Y-109992728D02*
X180013614Y-109969520D01*
X180013614Y-109969520D02*
X180261646Y-109939356D01*
X180261646Y-109939356D02*
X180512168Y-109902131D01*
X180512168Y-109902131D02*
X180765151Y-109857741D01*
X180765151Y-109857741D02*
X181050376Y-109908634D01*
X181050376Y-109908634D02*
X181331032Y-109949889D01*
X181331032Y-109949889D02*
X181607097Y-109981674D01*
X181607097Y-109981674D02*
X181878550Y-110004155D01*
X181878550Y-110004155D02*
X182145369Y-110017502D01*
X182145369Y-110017502D02*
X182407534Y-110021881D01*
X182407534Y-110021881D02*
X182665022Y-110017460D01*
X182665022Y-110017460D02*
X182917812Y-110004408D01*
X182917812Y-110004408D02*
X183165883Y-109982890D01*
X183165883Y-109982890D02*
X183409214Y-109953076D01*
X183409214Y-109953076D02*
X183647782Y-109915133D01*
X183647782Y-109915133D02*
X183881568Y-109869228D01*
X183881568Y-109869228D02*
X184110548Y-109815530D01*
X184110548Y-109815530D02*
X184334702Y-109754206D01*
X184334702Y-109754206D02*
X184554009Y-109685423D01*
X184554009Y-109685423D02*
X184768446Y-109609349D01*
X184768446Y-109609349D02*
X184977993Y-109526153D01*
X184977993Y-109526153D02*
X185182628Y-109436001D01*
X185182628Y-109436001D02*
X185382330Y-109339062D01*
X185382330Y-109339062D02*
X185577077Y-109235502D01*
X185577077Y-109235502D02*
X185766848Y-109125490D01*
X185766848Y-109125490D02*
X185951621Y-109009194D01*
X185951621Y-109009194D02*
X186131375Y-108886781D01*
X186131375Y-108886781D02*
X186306089Y-108758418D01*
X186306089Y-108758418D02*
X186475742Y-108624274D01*
X186475742Y-108624274D02*
X186640311Y-108484516D01*
X186640311Y-108484516D02*
X186799775Y-108339312D01*
X186799775Y-108339312D02*
X186954113Y-108188829D01*
X186954113Y-108188829D02*
X187103304Y-108033236D01*
X187103304Y-108033236D02*
X187247327Y-107872699D01*
X187247327Y-107872699D02*
X187386158Y-107707387D01*
X187386158Y-107707387D02*
X187519779Y-107537466D01*
X187519779Y-107537466D02*
X187745186Y-107716552D01*
X187745186Y-107716552D02*
X187976251Y-107888499D01*
X187976251Y-107888499D02*
X188212713Y-108053266D01*
X188212713Y-108053266D02*
X188454315Y-108210813D01*
X188454315Y-108210813D02*
X188700797Y-108361099D01*
X188700797Y-108361099D02*
X188951900Y-108504083D01*
X188951900Y-108504083D02*
X189207365Y-108639724D01*
X189207365Y-108639724D02*
X189466935Y-108767982D01*
X189466935Y-108767982D02*
X189730349Y-108888815D01*
X189730349Y-108888815D02*
X189997349Y-109002182D01*
X189997349Y-109002182D02*
X190267676Y-109108044D01*
X190267676Y-109108044D02*
X190541071Y-109206359D01*
X190541071Y-109206359D02*
X190817275Y-109297086D01*
X190817275Y-109297086D02*
X191096030Y-109380184D01*
X191096030Y-109380184D02*
X191377077Y-109455613D01*
X191377077Y-109455613D02*
X191660156Y-109523332D01*
X191660156Y-109523332D02*
X191945009Y-109583300D01*
X191945009Y-109583300D02*
X192231377Y-109635476D01*
X192231377Y-109635476D02*
X192519001Y-109679820D01*
X192519001Y-109679820D02*
X192807623Y-109716290D01*
X192807623Y-109716290D02*
X193096983Y-109744846D01*
X193096983Y-109744846D02*
X193386823Y-109765446D01*
X193386823Y-109765446D02*
X193676883Y-109778051D01*
X193676883Y-109778051D02*
X193966905Y-109782619D01*
X193966905Y-109782619D02*
X194256630Y-109779110D01*
X194256630Y-109779110D02*
X194545799Y-109767482D01*
X194545799Y-109767482D02*
X194834154Y-109747694D01*
X194834154Y-109747694D02*
X195121435Y-109719707D01*
X195121435Y-109719707D02*
X195407383Y-109683479D01*
X195407383Y-109683479D02*
X195691740Y-109638970D01*
X195691740Y-109638970D02*
X195974247Y-109586138D01*
X195974247Y-109586138D02*
X196254645Y-109524942D01*
X196254645Y-109524942D02*
X196561826Y-109447473D01*
X196561826Y-109447473D02*
X196865738Y-109359544D01*
X196865738Y-109359544D02*
X197165879Y-109261061D01*
X197165879Y-109261061D02*
X197461744Y-109151928D01*
X197461744Y-109151928D02*
X197752832Y-109032048D01*
X197752832Y-109032048D02*
X198038641Y-108901327D01*
X198038641Y-108901327D02*
X198318666Y-108759668D01*
X198318666Y-108759668D02*
X198592407Y-108606977D01*
X198592407Y-108606977D02*
X198859359Y-108443157D01*
X198859359Y-108443157D02*
X199119020Y-108268112D01*
X199119020Y-108268112D02*
X199370888Y-108081748D01*
X199370888Y-108081748D02*
X199614460Y-107883968D01*
X199614460Y-107883968D02*
X199849233Y-107674676D01*
X199849233Y-107674676D02*
X200074704Y-107453778D01*
X200074704Y-107453778D02*
X200290371Y-107221177D01*
X200290371Y-107221177D02*
X200495731Y-106976777D01*
X200495731Y-106976777D02*
X200594270Y-106850167D01*
X200594270Y-106850167D02*
X200689818Y-106720681D01*
X200689818Y-106720681D02*
X200782329Y-106588341D01*
X200782329Y-106588341D02*
X200871756Y-106453168D01*
X200871756Y-106453168D02*
X200958054Y-106315184D01*
X200958054Y-106315184D02*
X201041176Y-106174411D01*
X201041176Y-106174411D02*
X201121076Y-106030871D01*
X201121076Y-106030871D02*
X201197708Y-105884586D01*
X201197708Y-105884586D02*
X201271026Y-105735576D01*
X201271026Y-105735576D02*
X201340984Y-105583865D01*
X201340984Y-105583865D02*
X201407535Y-105429473D01*
X201407535Y-105429473D02*
X201470633Y-105272423D01*
X201470633Y-105272423D02*
X201530232Y-105112735D01*
X201530232Y-105112735D02*
X201586287Y-104950432D01*
X201586287Y-104950432D02*
X201638750Y-104785536D01*
X201638750Y-104785536D02*
X201687577Y-104618069D01*
X201687577Y-104618069D02*
X201732719Y-104448051D01*
X201732719Y-104448051D02*
X201774133Y-104275505D01*
X201774133Y-104275505D02*
X201811770Y-104100452D01*
X201811770Y-104100452D02*
X201845586Y-103922915D01*
X201845586Y-103922915D02*
X201875533Y-103742914D01*
X201875533Y-103742914D02*
X201901567Y-103560473D01*
X201901567Y-103560473D02*
X201923640Y-103375611D01*
X201923640Y-103375611D02*
X201941707Y-103188352D01*
X201941707Y-103188352D02*
X201955721Y-102998717D01*
X201955721Y-102998717D02*
X201965636Y-102806727D01*
X201965636Y-102806727D02*
X201971406Y-102612405D01*
X201971406Y-102612405D02*
X201972986Y-102415772D01*
X201972986Y-102415772D02*
X201970328Y-102216849D01*
X201970328Y-102216849D02*
X201963386Y-102015659D01*
X201963386Y-102015659D02*
X201952116Y-101812224D01*
X201952116Y-101812224D02*
X201936469Y-101606564D01*
X201936469Y-101606564D02*
X201920347Y-101498726D01*
X201920347Y-101498726D02*
X201890733Y-101394246D01*
X201890733Y-101394246D02*
X201848072Y-101294380D01*
X201848072Y-101294380D02*
X201792808Y-101200386D01*
X201792808Y-101200386D02*
X201701590Y-101058821D01*
X201701590Y-101058821D02*
X201616760Y-100911924D01*
X201616760Y-100911924D02*
X201538023Y-100759875D01*
X201538023Y-100759875D02*
X201465085Y-100602853D01*
X201465085Y-100602853D02*
X201397653Y-100441039D01*
X201397653Y-100441039D02*
X201335432Y-100274610D01*
X201335432Y-100274610D02*
X201278128Y-100103746D01*
X201278128Y-100103746D02*
X201225448Y-99928628D01*
X201225448Y-99928628D02*
X201177097Y-99749433D01*
X201177097Y-99749433D02*
X201132780Y-99566342D01*
X201132780Y-99566342D02*
X201092205Y-99379534D01*
X201092205Y-99379534D02*
X201055077Y-99189187D01*
X201055077Y-99189187D02*
X200989986Y-98798598D01*
X200989986Y-98798598D02*
X200935155Y-98396010D01*
X200935155Y-98396010D02*
X200888231Y-97982857D01*
X200888231Y-97982857D02*
X200846862Y-97560575D01*
X200846862Y-97560575D02*
X200771382Y-96694359D01*
X200771382Y-96694359D02*
X200732565Y-96253296D01*
X200732565Y-96253296D02*
X200689894Y-95808842D01*
X200689894Y-95808842D02*
X200641016Y-95362431D01*
X200641016Y-95362431D02*
X200583580Y-94915500D01*
X200583580Y-94915500D02*
X200550534Y-94692013D01*
X200550534Y-94692013D02*
X200513550Y-94468487D01*
X200513550Y-94468487D02*
X200472112Y-94245248D01*
X200472112Y-94245248D02*
X200425703Y-94022626D01*
X200425703Y-94022626D02*
X200373808Y-93800950D01*
X200373808Y-93800950D02*
X200315910Y-93580546D01*
X200315910Y-93580546D02*
X200251494Y-93361745D01*
X200251494Y-93361745D02*
X200180042Y-93144874D01*
X200180042Y-93144874D02*
X200101039Y-92930262D01*
X200101039Y-92930262D02*
X200013968Y-92718237D01*
X200013968Y-92718237D02*
X199918314Y-92509128D01*
X199918314Y-92509128D02*
X199813560Y-92303263D01*
X199813560Y-92303263D02*
X199699190Y-92100970D01*
X199699190Y-92100970D02*
X199574687Y-91902577D01*
X199574687Y-91902577D02*
X199439536Y-91708414D01*
X199439536Y-91708414D02*
X199293221Y-91518809D01*
X199293221Y-91518809D02*
X199148427Y-91350537D01*
X199148427Y-91350537D02*
X198993076Y-91189173D01*
X198993076Y-91189173D02*
X198827269Y-91034747D01*
X198827269Y-91034747D02*
X198651110Y-90887287D01*
X198651110Y-90887287D02*
X198464703Y-90746824D01*
X198464703Y-90746824D02*
X198268150Y-90613386D01*
X198268150Y-90613386D02*
X198061555Y-90487003D01*
X198061555Y-90487003D02*
X197845021Y-90367705D01*
X197845021Y-90367705D02*
X197618651Y-90255521D01*
X197618651Y-90255521D02*
X197382549Y-90150480D01*
X197382549Y-90150480D02*
X197136818Y-90052612D01*
X197136818Y-90052612D02*
X196881560Y-89961946D01*
X196881560Y-89961946D02*
X196616880Y-89878511D01*
X196616880Y-89878511D02*
X196342881Y-89802338D01*
X196342881Y-89802338D02*
X196059665Y-89733455D01*
X196059665Y-89733455D02*
X195767336Y-89671893D01*
X195767336Y-89671893D02*
X195660084Y-89508986D01*
X195660084Y-89508986D02*
X195547690Y-89349949D01*
X195547690Y-89349949D02*
X195430301Y-89194909D01*
X195430301Y-89194909D02*
X195308064Y-89043991D01*
X195308064Y-89043991D02*
X195181125Y-88897319D01*
X195181125Y-88897319D02*
X195049632Y-88755020D01*
X195049632Y-88755020D02*
X194913730Y-88617219D01*
X194913730Y-88617219D02*
X194773568Y-88484041D01*
X194773568Y-88484041D02*
X194629291Y-88355611D01*
X194629291Y-88355611D02*
X194481046Y-88232055D01*
X194481046Y-88232055D02*
X194328980Y-88113499D01*
X194328980Y-88113499D02*
X194173240Y-88000067D01*
X194173240Y-88000067D02*
X194013972Y-87891886D01*
X194013972Y-87891886D02*
X193851324Y-87789080D01*
X193851324Y-87789080D02*
X193685442Y-87691775D01*
X193685442Y-87691775D02*
X193516473Y-87600096D01*
X193516473Y-87600096D02*
X193344564Y-87514169D01*
X193344564Y-87514169D02*
X193169861Y-87434119D01*
X193169861Y-87434119D02*
X192992511Y-87360072D01*
X192992511Y-87360072D02*
X192812661Y-87292152D01*
X192812661Y-87292152D02*
X192630457Y-87230486D01*
X192630457Y-87230486D02*
X192446047Y-87175198D01*
X192446047Y-87175198D02*
X192259578Y-87126415D01*
X192259578Y-87126415D02*
X192071195Y-87084261D01*
X192071195Y-87084261D02*
X191881046Y-87048861D01*
X191881046Y-87048861D02*
X191689278Y-87020343D01*
X191689278Y-87020343D02*
X191496037Y-86998829D01*
X191496037Y-86998829D02*
X191301470Y-86984447D01*
X191301470Y-86984447D02*
X191105724Y-86977321D01*
X191105724Y-86977321D02*
X190908945Y-86977577D01*
X190908945Y-86977577D02*
X190711281Y-86985340D01*
X190711281Y-86985340D02*
X190512877Y-87000736D01*
X190512877Y-87000736D02*
X190418310Y-87014690D01*
X190418310Y-87014690D02*
X190213401Y-87062122D01*
X190213401Y-87062122D02*
X190010519Y-87116860D01*
X190010519Y-87116860D02*
X189809709Y-87178729D01*
X189809709Y-87178729D02*
X189611013Y-87247554D01*
X189611013Y-87247554D02*
X189414477Y-87323160D01*
X189414477Y-87323160D02*
X189220144Y-87405371D01*
X189220144Y-87405371D02*
X189028057Y-87494013D01*
X189028057Y-87494013D02*
X188838259Y-87588911D01*
X188838259Y-87588911D02*
X188650796Y-87689889D01*
X188650796Y-87689889D02*
X188465710Y-87796772D01*
X188465710Y-87796772D02*
X188283045Y-87909385D01*
X188283045Y-87909385D02*
X188102845Y-88027554D01*
X188102845Y-88027554D02*
X187925153Y-88151102D01*
X187925153Y-88151102D02*
X187750014Y-88279855D01*
X187750014Y-88279855D02*
X187577470Y-88413638D01*
X187577470Y-88413638D02*
X187407566Y-88552275D01*
X187407566Y-88552275D02*
X187240346Y-88695592D01*
X187240346Y-88695592D02*
X187075852Y-88843414D01*
X187075852Y-88843414D02*
X186914130Y-88995564D01*
X186914130Y-88995564D02*
X186755221Y-89151869D01*
X186755221Y-89151869D02*
X186599171Y-89312153D01*
X186599171Y-89312153D02*
X186446022Y-89476241D01*
X186446022Y-89476241D02*
X186295819Y-89643958D01*
X186295819Y-89643958D02*
X186148606Y-89815128D01*
X186148606Y-89815128D02*
X186004425Y-89989577D01*
X186004425Y-89989577D02*
X185863321Y-90167130D01*
X185863321Y-90167130D02*
X185725337Y-90347611D01*
X185725337Y-90347611D02*
X185590517Y-90530845D01*
X185590517Y-90530845D02*
X185458905Y-90716658D01*
X185458905Y-90716658D02*
X185330544Y-90904874D01*
X185330544Y-90904874D02*
X185083752Y-91287814D01*
X185083752Y-91287814D02*
X184889898Y-91171618D01*
X184889898Y-91171618D02*
X184693738Y-91061197D01*
X184693738Y-91061197D02*
X184495371Y-90956468D01*
X184495371Y-90956468D02*
X184294898Y-90857353D01*
X184294898Y-90857353D02*
X184092417Y-90763768D01*
X184092417Y-90763768D02*
X183888029Y-90675635D01*
X183888029Y-90675635D02*
X183681832Y-90592872D01*
X183681832Y-90592872D02*
X183473928Y-90515398D01*
X183473928Y-90515398D02*
X183264415Y-90443132D01*
X183264415Y-90443132D02*
X183053393Y-90375994D01*
X183053393Y-90375994D02*
X182840962Y-90313903D01*
X182840962Y-90313903D02*
X182627222Y-90256777D01*
X182627222Y-90256777D02*
X182412272Y-90204536D01*
X182412272Y-90204536D02*
X182196212Y-90157100D01*
X182196212Y-90157100D02*
X181979141Y-90114386D01*
X181979141Y-90114386D02*
X181761160Y-90076315D01*
X181761160Y-90076315D02*
X181542367Y-90042806D01*
X181542367Y-90042806D02*
X181322864Y-90013778D01*
X181322864Y-90013778D02*
X181102748Y-89989149D01*
X181102748Y-89989149D02*
X180882121Y-89968840D01*
X180882121Y-89968840D02*
X180661081Y-89952769D01*
X180661081Y-89952769D02*
X180439729Y-89940855D01*
X180439729Y-89940855D02*
X180218163Y-89933018D01*
X180218163Y-89933018D02*
X179996485Y-89929177D01*
X179996485Y-89929177D02*
X179553187Y-89933158D01*
X179553187Y-89933158D02*
X179110631Y-89952153D01*
X179110631Y-89952153D02*
X178669617Y-89985513D01*
X178669617Y-89985513D02*
X178230940Y-90032594D01*
X178230940Y-90032594D02*
X178042156Y-90049539D01*
X178042156Y-90049539D02*
X177855964Y-90070505D01*
X177855964Y-90070505D02*
X177672342Y-90095419D01*
X177672342Y-90095419D02*
X177491269Y-90124206D01*
X177491269Y-90124206D02*
X177312724Y-90156792D01*
X177312724Y-90156792D02*
X177136686Y-90193103D01*
X177136686Y-90193103D02*
X176963133Y-90233066D01*
X176963133Y-90233066D02*
X176792044Y-90276607D01*
X176792044Y-90276607D02*
X176623397Y-90323651D01*
X176623397Y-90323651D02*
X176457172Y-90374124D01*
X176457172Y-90374124D02*
X176131901Y-90485063D01*
X176131901Y-90485063D02*
X175816060Y-90608833D01*
X175816060Y-90608833D02*
X175509478Y-90744841D01*
X175509478Y-90744841D02*
X175211986Y-90892496D01*
X175211986Y-90892496D02*
X174923413Y-91051206D01*
X174923413Y-91051206D02*
X174643589Y-91220379D01*
X174643589Y-91220379D02*
X174372343Y-91399424D01*
X174372343Y-91399424D02*
X174109506Y-91587749D01*
X174109506Y-91587749D02*
X173854906Y-91784763D01*
X173854906Y-91784763D02*
X173608373Y-91989872D01*
X173608373Y-91989872D02*
X173369738Y-92202487D01*
X173369738Y-92202487D02*
X173159793Y-92018294D01*
X173159793Y-92018294D02*
X172945645Y-91842746D01*
X172945645Y-91842746D02*
X172727449Y-91675728D01*
X172727449Y-91675728D02*
X172505362Y-91517128D01*
X172505362Y-91517128D02*
X172279539Y-91366829D01*
X172279539Y-91366829D02*
X172050135Y-91224719D01*
X172050135Y-91224719D02*
X171817306Y-91090682D01*
X171817306Y-91090682D02*
X171581209Y-90964604D01*
X171581209Y-90964604D02*
X171341999Y-90846372D01*
X171341999Y-90846372D02*
X171099832Y-90735871D01*
X171099832Y-90735871D02*
X170854863Y-90632986D01*
X170854863Y-90632986D02*
X170607248Y-90537604D01*
X170607248Y-90537604D02*
X170357144Y-90449610D01*
X170357144Y-90449610D02*
X170104705Y-90368889D01*
X170104705Y-90368889D02*
X169850088Y-90295329D01*
X169850088Y-90295329D02*
X169593448Y-90228813D01*
X169593448Y-90228813D02*
X169334941Y-90169229D01*
X169334941Y-90169229D02*
X169074723Y-90116461D01*
X169074723Y-90116461D02*
X168812949Y-90070396D01*
X168812949Y-90070396D02*
X168549776Y-90030920D01*
X168549776Y-90030920D02*
X168285359Y-89997917D01*
X168285359Y-89997917D02*
X168019854Y-89971274D01*
X168019854Y-89971274D02*
X167753416Y-89950877D01*
X167753416Y-89950877D02*
X167486202Y-89936610D01*
X167486202Y-89936610D02*
X167218367Y-89928361D01*
X167218367Y-89928361D02*
X166950067Y-89926014D01*
X166950067Y-89926014D02*
X166681457Y-89929456D01*
X166681457Y-89929456D02*
X166412694Y-89938572D01*
X166412694Y-89938572D02*
X166143933Y-89953248D01*
X166143933Y-89953248D02*
X165875330Y-89973370D01*
X165875330Y-89973370D02*
X165607041Y-89998823D01*
X165607041Y-89998823D02*
X165339221Y-90029493D01*
X165339221Y-90029493D02*
X165136297Y-90047575D01*
X165136297Y-90047575D02*
X164935939Y-90069857D01*
X164935939Y-90069857D02*
X164738151Y-90096277D01*
X164738151Y-90096277D02*
X164542936Y-90126775D01*
X164542936Y-90126775D02*
X164350298Y-90161290D01*
X164350298Y-90161290D02*
X164160238Y-90199763D01*
X164160238Y-90199763D02*
X163972761Y-90242134D01*
X163972761Y-90242134D02*
X163787870Y-90288341D01*
X163787870Y-90288341D02*
X163605567Y-90338325D01*
X163605567Y-90338325D02*
X163425857Y-90392025D01*
X163425857Y-90392025D02*
X163248741Y-90449381D01*
X163248741Y-90449381D02*
X163074224Y-90510333D01*
X163074224Y-90510333D02*
X162902308Y-90574820D01*
X162902308Y-90574820D02*
X162732996Y-90642783D01*
X162732996Y-90642783D02*
X162566293Y-90714160D01*
X162566293Y-90714160D02*
X162402200Y-90788892D01*
X162402200Y-90788892D02*
X162240721Y-90866918D01*
X162240721Y-90866918D02*
X162081859Y-90948178D01*
X162081859Y-90948178D02*
X161925618Y-91032612D01*
X161925618Y-91032612D02*
X161772000Y-91120159D01*
X161772000Y-91120159D02*
X161472648Y-91304353D01*
X161472648Y-91304353D02*
X161183827Y-91500276D01*
X161183827Y-91500276D02*
X160905564Y-91707447D01*
X160905564Y-91707447D02*
X160637883Y-91925383D01*
X160637883Y-91925383D02*
X160380810Y-92153602D01*
X160380810Y-92153602D02*
X160134369Y-92391621D01*
X160134369Y-92391621D02*
X160043411Y-91738165D01*
X160043411Y-91738165D02*
X159945097Y-91089394D01*
X159945097Y-91089394D02*
X159839745Y-90441519D01*
X159839745Y-90441519D02*
X159727676Y-89790749D01*
X159727676Y-89790749D02*
X159675743Y-89515050D01*
X159675743Y-89515050D02*
X159616456Y-89241871D01*
X159616456Y-89241871D02*
X159548076Y-88971854D01*
X159548076Y-88971854D02*
X159468862Y-88705639D01*
X159468862Y-88705639D02*
X159377073Y-88443870D01*
X159377073Y-88443870D02*
X159325920Y-88314853D01*
X159325920Y-88314853D02*
X159270970Y-88187188D01*
X159270970Y-88187188D02*
X159212007Y-88060955D01*
X159212007Y-88060955D02*
X159148812Y-87936234D01*
X159148812Y-87936234D02*
X159081168Y-87813106D01*
X159081168Y-87813106D02*
X159008858Y-87691650D01*
X159008858Y-87691650D02*
X158931304Y-87572314D01*
X158931304Y-87572314D02*
X158848122Y-87455662D01*
X158848122Y-87455662D02*
X158759385Y-87341958D01*
X158759385Y-87341958D02*
X158665167Y-87231461D01*
X158665167Y-87231461D02*
X158565540Y-87124434D01*
X158565540Y-87124434D02*
X158460576Y-87021138D01*
X158460576Y-87021138D02*
X158350350Y-86921834D01*
X158350350Y-86921834D02*
X158234934Y-86826785D01*
X158234934Y-86826785D02*
X158114401Y-86736251D01*
X158114401Y-86736251D02*
X157988824Y-86650494D01*
X157988824Y-86650494D02*
X157858276Y-86569776D01*
X157858276Y-86569776D02*
X157722829Y-86494357D01*
X157722829Y-86494357D02*
X157582558Y-86424500D01*
X157582558Y-86424500D02*
X157437534Y-86360466D01*
X157437534Y-86360466D02*
X157287830Y-86302516D01*
X157287830Y-86302516D02*
X157133521Y-86250912D01*
X157133521Y-86250912D02*
X157069181Y-86233533D01*
X157069181Y-86233533D02*
X157003780Y-86221251D01*
X157003780Y-86221251D02*
X156937621Y-86214109D01*
X156937621Y-86214109D02*
X156871004Y-86212153D01*
X156871004Y-86212153D02*
X156033460Y-86218105D01*
X156033460Y-86218105D02*
X155193089Y-86217542D01*
X155193089Y-86217542D02*
X153504165Y-86207495D01*
X153504165Y-86207495D02*
X152655763Y-86203325D01*
X152655763Y-86203325D02*
X151804836Y-86203266D01*
X151804836Y-86203266D02*
X150951459Y-86209974D01*
X150951459Y-86209974D02*
X150095707Y-86226107D01*
X150095707Y-86226107D02*
X149946902Y-86229400D01*
X149946902Y-86229400D02*
X149799675Y-86236595D01*
X149799675Y-86236595D02*
X149510084Y-86262438D01*
X149510084Y-86262438D02*
X149227190Y-86303120D01*
X149227190Y-86303120D02*
X148951246Y-86358124D01*
X148951246Y-86358124D02*
X148682508Y-86426935D01*
X148682508Y-86426935D02*
X148421229Y-86509036D01*
X148421229Y-86509036D02*
X148167665Y-86603911D01*
X148167665Y-86603911D02*
X147922070Y-86711044D01*
X147922070Y-86711044D02*
X147684699Y-86829919D01*
X147684699Y-86829919D02*
X147455807Y-86960019D01*
X147455807Y-86960019D02*
X147235647Y-87100828D01*
X147235647Y-87100828D02*
X147024474Y-87251831D01*
X147024474Y-87251831D02*
X146822544Y-87412511D01*
X146822544Y-87412511D02*
X146630110Y-87582351D01*
X146630110Y-87582351D02*
X146447428Y-87760836D01*
X146447428Y-87760836D02*
X146274751Y-87947449D01*
X146274751Y-87947449D02*
X146161717Y-88081325D01*
X146161717Y-88081325D02*
X146054730Y-88218805D01*
X146054730Y-88218805D02*
X145953572Y-88359700D01*
X145953572Y-88359700D02*
X145858023Y-88503817D01*
X145858023Y-88503817D02*
X145767863Y-88650966D01*
X145767863Y-88650966D02*
X145682874Y-88800955D01*
X145682874Y-88800955D02*
X145602837Y-88953593D01*
X145602837Y-88953593D02*
X145527532Y-89108689D01*
X145527532Y-89108689D02*
X145456739Y-89266052D01*
X145456739Y-89266052D02*
X145390241Y-89425490D01*
X145390241Y-89425490D02*
X145327817Y-89586813D01*
X145327817Y-89586813D02*
X145269248Y-89749829D01*
X145269248Y-89749829D02*
X145162799Y-90080175D01*
X145162799Y-90080175D02*
X145069140Y-90414999D01*
X145069140Y-90414999D02*
X144771863Y-90280860D01*
X144771863Y-90280860D02*
X144468593Y-90158943D01*
X144468593Y-90158943D02*
X144159519Y-90049609D01*
X144159519Y-90049609D02*
X143844833Y-89953221D01*
X143844833Y-89953221D02*
X143524723Y-89870143D01*
X143524723Y-89870143D02*
X143199380Y-89800738D01*
X143199380Y-89800738D02*
X142868994Y-89745369D01*
X142868994Y-89745369D02*
X142533755Y-89704398D01*
X142533755Y-89704398D02*
X142193854Y-89678189D01*
X142193854Y-89678189D02*
X141849480Y-89667104D01*
X141849480Y-89667104D02*
X141500824Y-89671507D01*
X141500824Y-89671507D02*
X141148075Y-89691761D01*
X141148075Y-89691761D02*
X140970226Y-89707945D01*
X140970226Y-89707945D02*
X140791424Y-89728228D01*
X140791424Y-89728228D02*
X140611695Y-89752655D01*
X140611695Y-89752655D02*
X140431061Y-89781272D01*
X140431061Y-89781272D02*
X140249547Y-89814124D01*
X140249547Y-89814124D02*
X140067176Y-89851256D01*
X140067176Y-89851256D02*
X139883972Y-89892714D01*
X139883972Y-89892714D02*
X139699959Y-89938542D01*
X139699959Y-89938542D02*
X139796343Y-89445058D01*
X139796343Y-89445058D02*
X139896959Y-88888919D01*
X139896959Y-88888919D02*
X139997257Y-88280122D01*
X139997257Y-88280122D02*
X140092687Y-87628661D01*
X140092687Y-87628661D02*
X140178698Y-86944532D01*
X140178698Y-86944532D02*
X140216750Y-86593340D01*
X140216750Y-86593340D02*
X140250740Y-86237730D01*
X140250740Y-86237730D02*
X140280101Y-85878949D01*
X140280101Y-85878949D02*
X140304263Y-85518248D01*
X140304263Y-85518248D02*
X140322658Y-85156877D01*
X140322658Y-85156877D02*
X140334716Y-84796084D01*
X140334716Y-84796084D02*
X140339870Y-84437119D01*
X140339870Y-84437119D02*
X140337549Y-84081231D01*
X140337549Y-84081231D02*
X140327187Y-83729670D01*
X140327187Y-83729670D02*
X140308212Y-83383685D01*
X140308212Y-83383685D02*
X140280058Y-83044525D01*
X140280058Y-83044525D02*
X140242155Y-82713440D01*
X140242155Y-82713440D02*
X140193934Y-82391680D01*
X140193934Y-82391680D02*
X140134826Y-82080493D01*
X140134826Y-82080493D02*
X140064264Y-81781128D01*
X140064264Y-81781128D02*
X139981677Y-81494837D01*
X139981677Y-81494837D02*
X139935697Y-81356983D01*
X139935697Y-81356983D02*
X139886497Y-81222867D01*
X139886497Y-81222867D02*
X139834007Y-81092643D01*
X139834007Y-81092643D02*
X139778156Y-80966468D01*
X139778156Y-80966468D02*
X139718872Y-80844498D01*
X139718872Y-80844498D02*
X139656084Y-80726889D01*
X139656084Y-80726889D02*
X139589722Y-80613798D01*
X139589722Y-80613798D02*
X139519713Y-80505381D01*
X139519713Y-80505381D02*
X139445988Y-80401793D01*
X139445988Y-80401793D02*
X139368474Y-80303191D01*
X139368474Y-80303191D02*
X139287101Y-80209732D01*
X139287101Y-80209732D02*
X139201798Y-80121570D01*
X139201798Y-80121570D02*
X139085142Y-80012538D01*
X139085142Y-80012538D02*
X138961325Y-79906706D01*
X138961325Y-79906706D02*
X138830577Y-79804087D01*
X138830577Y-79804087D02*
X138693124Y-79704694D01*
X138693124Y-79704694D02*
X138549197Y-79608538D01*
X138549197Y-79608538D02*
X138399022Y-79515634D01*
X138399022Y-79515634D02*
X138242829Y-79425993D01*
X138242829Y-79425993D02*
X138080845Y-79339628D01*
X138080845Y-79339628D02*
X137913299Y-79256551D01*
X137913299Y-79256551D02*
X137740420Y-79176775D01*
X137740420Y-79176775D02*
X137562435Y-79100314D01*
X137562435Y-79100314D02*
X137379572Y-79027178D01*
X137379572Y-79027178D02*
X137192061Y-78957382D01*
X137192061Y-78957382D02*
X137000130Y-78890937D01*
X137000130Y-78890937D02*
X136804006Y-78827856D01*
X136804006Y-78827856D02*
X136603918Y-78768152D01*
X136603918Y-78768152D02*
X136400095Y-78711837D01*
X136400095Y-78711837D02*
X136192764Y-78658925D01*
X136192764Y-78658925D02*
X135982154Y-78609427D01*
X135982154Y-78609427D02*
X135768494Y-78563356D01*
X135768494Y-78563356D02*
X135332934Y-78481545D01*
X135332934Y-78481545D02*
X134887912Y-78413595D01*
X134887912Y-78413595D02*
X134435253Y-78359605D01*
X134435253Y-78359605D02*
X133976783Y-78319676D01*
X133976783Y-78319676D02*
X133514330Y-78293910D01*
X133514330Y-78293910D02*
X133049720Y-78282406D01*
X133049720Y-78282406D02*
X133049720Y-78282406D01*
X133049720Y-78282406D02*
X133049720Y-78282406D01*
M02*
