G04 #@! TF.FileFunction,Soldermask,Top*
%FSLAX46Y46*%
G04 Gerber Fmt 4.6, Leading zero omitted, Abs format (unit mm)*
G04 Created by KiCad (PCBNEW 4.0.7) date 07/12/18 13:46:47*
%MOMM*%
%LPD*%
G01*
G04 APERTURE LIST*
%ADD10C,0.100000*%
%ADD11C,0.010000*%
%ADD12C,2.100000*%
%ADD13O,2.100000X2.100000*%
G04 APERTURE END LIST*
D10*
D11*
G36*
X110877377Y-88104316D02*
X111087362Y-88190860D01*
X111297907Y-88347601D01*
X111307399Y-88356122D01*
X111388724Y-88429888D01*
X111454917Y-88495775D01*
X111507669Y-88563111D01*
X111548668Y-88641225D01*
X111579605Y-88739445D01*
X111602169Y-88867102D01*
X111618050Y-89033523D01*
X111628938Y-89248037D01*
X111636521Y-89519974D01*
X111642490Y-89858662D01*
X111648000Y-90236667D01*
X111669167Y-91697167D01*
X113764667Y-91719813D01*
X113764667Y-90350781D01*
X113765338Y-89954653D01*
X113767610Y-89633903D01*
X113771866Y-89379249D01*
X113778492Y-89181409D01*
X113787873Y-89031105D01*
X113800394Y-88919053D01*
X113816441Y-88835974D01*
X113829348Y-88791920D01*
X113956900Y-88532294D01*
X114134982Y-88330487D01*
X114351320Y-88187538D01*
X114593638Y-88104484D01*
X114849664Y-88082363D01*
X115107124Y-88122213D01*
X115353742Y-88225072D01*
X115577246Y-88391978D01*
X115765361Y-88623969D01*
X115767882Y-88628000D01*
X115792613Y-88670670D01*
X115812671Y-88717200D01*
X115828703Y-88776789D01*
X115841358Y-88858638D01*
X115851286Y-88971945D01*
X115859134Y-89125910D01*
X115865553Y-89329733D01*
X115871190Y-89592614D01*
X115876695Y-89923751D01*
X115881334Y-90236667D01*
X115902500Y-91697167D01*
X116601000Y-91718334D01*
X116887449Y-91728611D01*
X117104774Y-91742644D01*
X117268516Y-91764886D01*
X117394214Y-91799791D01*
X117497410Y-91851814D01*
X117593644Y-91925409D01*
X117698454Y-92025029D01*
X117709442Y-92036028D01*
X117880205Y-92244749D01*
X117977891Y-92464457D01*
X118012953Y-92719960D01*
X118013458Y-92757488D01*
X117975159Y-93052849D01*
X117860836Y-93312959D01*
X117672871Y-93532683D01*
X117641501Y-93559367D01*
X117510226Y-93660342D01*
X117388749Y-93733409D01*
X117259449Y-93782973D01*
X117104703Y-93813438D01*
X116906891Y-93829211D01*
X116648390Y-93834696D01*
X116538860Y-93835000D01*
X115923667Y-93835000D01*
X115923667Y-96205667D01*
X116463417Y-96206702D01*
X116688969Y-96210563D01*
X116902261Y-96220304D01*
X117079024Y-96234446D01*
X117193667Y-96251205D01*
X117450385Y-96351094D01*
X117676862Y-96518482D01*
X117857454Y-96737470D01*
X117976520Y-96992161D01*
X117996611Y-97067302D01*
X118014132Y-97328691D01*
X117959318Y-97593729D01*
X117841126Y-97842404D01*
X117668515Y-98054705D01*
X117495995Y-98185655D01*
X117419958Y-98228268D01*
X117348858Y-98259221D01*
X117267230Y-98280729D01*
X117159607Y-98295006D01*
X117010523Y-98304265D01*
X116804512Y-98310723D01*
X116590417Y-98315318D01*
X115881334Y-98329470D01*
X115881334Y-99745428D01*
X115881130Y-100151488D01*
X115879516Y-100482519D01*
X115874983Y-100748159D01*
X115866024Y-100958044D01*
X115851132Y-101121813D01*
X115828799Y-101249102D01*
X115797517Y-101349550D01*
X115755780Y-101432793D01*
X115702080Y-101508470D01*
X115634910Y-101586218D01*
X115584888Y-101640718D01*
X115362198Y-101825164D01*
X115109694Y-101938163D01*
X114841954Y-101979652D01*
X114573553Y-101949567D01*
X114319067Y-101847846D01*
X114093071Y-101674425D01*
X114067174Y-101647295D01*
X113990084Y-101559261D01*
X113927285Y-101472638D01*
X113877322Y-101377905D01*
X113838738Y-101265540D01*
X113810078Y-101126025D01*
X113789885Y-100949838D01*
X113776704Y-100727460D01*
X113769078Y-100449369D01*
X113765551Y-100106046D01*
X113764668Y-99687970D01*
X113764667Y-99669317D01*
X113764667Y-98322334D01*
X111648000Y-98322334D01*
X111648000Y-99741860D01*
X111647731Y-100146855D01*
X111646046Y-100476907D01*
X111641634Y-100741741D01*
X111633179Y-100951079D01*
X111619370Y-101114646D01*
X111598893Y-101242166D01*
X111570434Y-101343361D01*
X111532679Y-101427957D01*
X111484316Y-101505677D01*
X111424032Y-101586245D01*
X111393682Y-101624735D01*
X111202678Y-101800645D01*
X110962348Y-101919917D01*
X110691397Y-101976310D01*
X110408533Y-101963582D01*
X110388919Y-101959970D01*
X110165709Y-101879835D01*
X109950897Y-101737394D01*
X109772015Y-101552815D01*
X109712243Y-101464233D01*
X109594834Y-101264500D01*
X109582208Y-99793417D01*
X109569583Y-98322334D01*
X108941947Y-98322334D01*
X108580833Y-98313500D01*
X108291369Y-98283822D01*
X108062079Y-98228532D01*
X107881489Y-98142863D01*
X107738122Y-98022047D01*
X107620502Y-97861319D01*
X107559646Y-97748108D01*
X107462015Y-97459985D01*
X107447104Y-97171933D01*
X107513639Y-96893562D01*
X107660346Y-96634484D01*
X107716288Y-96565944D01*
X107830650Y-96449530D01*
X107950941Y-96362344D01*
X108092027Y-96299904D01*
X108268778Y-96257727D01*
X108496059Y-96231331D01*
X108788739Y-96216235D01*
X108885750Y-96213388D01*
X109531334Y-96196620D01*
X109531334Y-93835000D01*
X111648000Y-93835000D01*
X111648000Y-96205667D01*
X113764667Y-96205667D01*
X113764667Y-93835000D01*
X111648000Y-93835000D01*
X109531334Y-93835000D01*
X109531334Y-93792667D01*
X108864584Y-93791737D01*
X108561571Y-93788015D01*
X108327940Y-93775144D01*
X108148563Y-93749136D01*
X108008311Y-93706003D01*
X107892058Y-93641754D01*
X107784674Y-93552402D01*
X107723729Y-93490920D01*
X107568110Y-93279120D01*
X107479445Y-93035610D01*
X107451709Y-92748192D01*
X107486933Y-92448553D01*
X107593101Y-92194912D01*
X107770948Y-91986136D01*
X108021214Y-91821092D01*
X108070834Y-91797384D01*
X108151609Y-91766781D01*
X108248226Y-91745166D01*
X108376301Y-91731081D01*
X108551452Y-91723066D01*
X108789294Y-91719663D01*
X108906917Y-91719263D01*
X109573667Y-91718334D01*
X109574597Y-90289584D01*
X109575141Y-89876012D01*
X109577311Y-89537675D01*
X109582793Y-89265137D01*
X109593278Y-89048966D01*
X109610454Y-88879728D01*
X109636010Y-88747990D01*
X109671636Y-88644318D01*
X109719020Y-88559280D01*
X109779851Y-88483441D01*
X109855818Y-88407369D01*
X109922678Y-88345464D01*
X110128365Y-88193435D01*
X110352364Y-88107422D01*
X110619860Y-88078082D01*
X110643943Y-88077903D01*
X110877377Y-88104316D01*
X110877377Y-88104316D01*
G37*
X110877377Y-88104316D02*
X111087362Y-88190860D01*
X111297907Y-88347601D01*
X111307399Y-88356122D01*
X111388724Y-88429888D01*
X111454917Y-88495775D01*
X111507669Y-88563111D01*
X111548668Y-88641225D01*
X111579605Y-88739445D01*
X111602169Y-88867102D01*
X111618050Y-89033523D01*
X111628938Y-89248037D01*
X111636521Y-89519974D01*
X111642490Y-89858662D01*
X111648000Y-90236667D01*
X111669167Y-91697167D01*
X113764667Y-91719813D01*
X113764667Y-90350781D01*
X113765338Y-89954653D01*
X113767610Y-89633903D01*
X113771866Y-89379249D01*
X113778492Y-89181409D01*
X113787873Y-89031105D01*
X113800394Y-88919053D01*
X113816441Y-88835974D01*
X113829348Y-88791920D01*
X113956900Y-88532294D01*
X114134982Y-88330487D01*
X114351320Y-88187538D01*
X114593638Y-88104484D01*
X114849664Y-88082363D01*
X115107124Y-88122213D01*
X115353742Y-88225072D01*
X115577246Y-88391978D01*
X115765361Y-88623969D01*
X115767882Y-88628000D01*
X115792613Y-88670670D01*
X115812671Y-88717200D01*
X115828703Y-88776789D01*
X115841358Y-88858638D01*
X115851286Y-88971945D01*
X115859134Y-89125910D01*
X115865553Y-89329733D01*
X115871190Y-89592614D01*
X115876695Y-89923751D01*
X115881334Y-90236667D01*
X115902500Y-91697167D01*
X116601000Y-91718334D01*
X116887449Y-91728611D01*
X117104774Y-91742644D01*
X117268516Y-91764886D01*
X117394214Y-91799791D01*
X117497410Y-91851814D01*
X117593644Y-91925409D01*
X117698454Y-92025029D01*
X117709442Y-92036028D01*
X117880205Y-92244749D01*
X117977891Y-92464457D01*
X118012953Y-92719960D01*
X118013458Y-92757488D01*
X117975159Y-93052849D01*
X117860836Y-93312959D01*
X117672871Y-93532683D01*
X117641501Y-93559367D01*
X117510226Y-93660342D01*
X117388749Y-93733409D01*
X117259449Y-93782973D01*
X117104703Y-93813438D01*
X116906891Y-93829211D01*
X116648390Y-93834696D01*
X116538860Y-93835000D01*
X115923667Y-93835000D01*
X115923667Y-96205667D01*
X116463417Y-96206702D01*
X116688969Y-96210563D01*
X116902261Y-96220304D01*
X117079024Y-96234446D01*
X117193667Y-96251205D01*
X117450385Y-96351094D01*
X117676862Y-96518482D01*
X117857454Y-96737470D01*
X117976520Y-96992161D01*
X117996611Y-97067302D01*
X118014132Y-97328691D01*
X117959318Y-97593729D01*
X117841126Y-97842404D01*
X117668515Y-98054705D01*
X117495995Y-98185655D01*
X117419958Y-98228268D01*
X117348858Y-98259221D01*
X117267230Y-98280729D01*
X117159607Y-98295006D01*
X117010523Y-98304265D01*
X116804512Y-98310723D01*
X116590417Y-98315318D01*
X115881334Y-98329470D01*
X115881334Y-99745428D01*
X115881130Y-100151488D01*
X115879516Y-100482519D01*
X115874983Y-100748159D01*
X115866024Y-100958044D01*
X115851132Y-101121813D01*
X115828799Y-101249102D01*
X115797517Y-101349550D01*
X115755780Y-101432793D01*
X115702080Y-101508470D01*
X115634910Y-101586218D01*
X115584888Y-101640718D01*
X115362198Y-101825164D01*
X115109694Y-101938163D01*
X114841954Y-101979652D01*
X114573553Y-101949567D01*
X114319067Y-101847846D01*
X114093071Y-101674425D01*
X114067174Y-101647295D01*
X113990084Y-101559261D01*
X113927285Y-101472638D01*
X113877322Y-101377905D01*
X113838738Y-101265540D01*
X113810078Y-101126025D01*
X113789885Y-100949838D01*
X113776704Y-100727460D01*
X113769078Y-100449369D01*
X113765551Y-100106046D01*
X113764668Y-99687970D01*
X113764667Y-99669317D01*
X113764667Y-98322334D01*
X111648000Y-98322334D01*
X111648000Y-99741860D01*
X111647731Y-100146855D01*
X111646046Y-100476907D01*
X111641634Y-100741741D01*
X111633179Y-100951079D01*
X111619370Y-101114646D01*
X111598893Y-101242166D01*
X111570434Y-101343361D01*
X111532679Y-101427957D01*
X111484316Y-101505677D01*
X111424032Y-101586245D01*
X111393682Y-101624735D01*
X111202678Y-101800645D01*
X110962348Y-101919917D01*
X110691397Y-101976310D01*
X110408533Y-101963582D01*
X110388919Y-101959970D01*
X110165709Y-101879835D01*
X109950897Y-101737394D01*
X109772015Y-101552815D01*
X109712243Y-101464233D01*
X109594834Y-101264500D01*
X109582208Y-99793417D01*
X109569583Y-98322334D01*
X108941947Y-98322334D01*
X108580833Y-98313500D01*
X108291369Y-98283822D01*
X108062079Y-98228532D01*
X107881489Y-98142863D01*
X107738122Y-98022047D01*
X107620502Y-97861319D01*
X107559646Y-97748108D01*
X107462015Y-97459985D01*
X107447104Y-97171933D01*
X107513639Y-96893562D01*
X107660346Y-96634484D01*
X107716288Y-96565944D01*
X107830650Y-96449530D01*
X107950941Y-96362344D01*
X108092027Y-96299904D01*
X108268778Y-96257727D01*
X108496059Y-96231331D01*
X108788739Y-96216235D01*
X108885750Y-96213388D01*
X109531334Y-96196620D01*
X109531334Y-93835000D01*
X111648000Y-93835000D01*
X111648000Y-96205667D01*
X113764667Y-96205667D01*
X113764667Y-93835000D01*
X111648000Y-93835000D01*
X109531334Y-93835000D01*
X109531334Y-93792667D01*
X108864584Y-93791737D01*
X108561571Y-93788015D01*
X108327940Y-93775144D01*
X108148563Y-93749136D01*
X108008311Y-93706003D01*
X107892058Y-93641754D01*
X107784674Y-93552402D01*
X107723729Y-93490920D01*
X107568110Y-93279120D01*
X107479445Y-93035610D01*
X107451709Y-92748192D01*
X107486933Y-92448553D01*
X107593101Y-92194912D01*
X107770948Y-91986136D01*
X108021214Y-91821092D01*
X108070834Y-91797384D01*
X108151609Y-91766781D01*
X108248226Y-91745166D01*
X108376301Y-91731081D01*
X108551452Y-91723066D01*
X108789294Y-91719663D01*
X108906917Y-91719263D01*
X109573667Y-91718334D01*
X109574597Y-90289584D01*
X109575141Y-89876012D01*
X109577311Y-89537675D01*
X109582793Y-89265137D01*
X109593278Y-89048966D01*
X109610454Y-88879728D01*
X109636010Y-88747990D01*
X109671636Y-88644318D01*
X109719020Y-88559280D01*
X109779851Y-88483441D01*
X109855818Y-88407369D01*
X109922678Y-88345464D01*
X110128365Y-88193435D01*
X110352364Y-88107422D01*
X110619860Y-88078082D01*
X110643943Y-88077903D01*
X110877377Y-88104316D01*
D12*
X133930000Y-83990000D03*
D13*
X133930000Y-86530000D03*
X131390000Y-83990000D03*
X131390000Y-86530000D03*
M02*
