G04 #@! TF.FileFunction,Soldermask,Top*
%FSLAX46Y46*%
G04 Gerber Fmt 4.6, Leading zero omitted, Abs format (unit mm)*
G04 Created by KiCad (PCBNEW 4.0.7) date 07/12/18 16:26:43*
%MOMM*%
%LPD*%
G01*
G04 APERTURE LIST*
%ADD10C,0.100000*%
%ADD11C,0.010000*%
%ADD12C,2.100000*%
%ADD13O,2.100000X2.100000*%
G04 APERTURE END LIST*
D10*
D11*
G36*
X111327377Y-87504316D02*
X111537362Y-87590860D01*
X111747907Y-87747601D01*
X111757399Y-87756122D01*
X111838724Y-87829888D01*
X111904917Y-87895775D01*
X111957669Y-87963111D01*
X111998668Y-88041225D01*
X112029605Y-88139445D01*
X112052169Y-88267102D01*
X112068050Y-88433523D01*
X112078938Y-88648037D01*
X112086521Y-88919974D01*
X112092490Y-89258662D01*
X112098000Y-89636667D01*
X112119167Y-91097167D01*
X114214667Y-91119813D01*
X114214667Y-89750781D01*
X114215338Y-89354653D01*
X114217610Y-89033903D01*
X114221866Y-88779249D01*
X114228492Y-88581409D01*
X114237873Y-88431105D01*
X114250394Y-88319053D01*
X114266441Y-88235974D01*
X114279348Y-88191920D01*
X114406900Y-87932294D01*
X114584982Y-87730487D01*
X114801320Y-87587538D01*
X115043638Y-87504484D01*
X115299664Y-87482363D01*
X115557124Y-87522213D01*
X115803742Y-87625072D01*
X116027246Y-87791978D01*
X116215361Y-88023969D01*
X116217882Y-88028000D01*
X116242613Y-88070670D01*
X116262671Y-88117200D01*
X116278703Y-88176789D01*
X116291358Y-88258638D01*
X116301286Y-88371945D01*
X116309134Y-88525910D01*
X116315553Y-88729733D01*
X116321190Y-88992614D01*
X116326695Y-89323751D01*
X116331334Y-89636667D01*
X116352500Y-91097167D01*
X117051000Y-91118334D01*
X117337449Y-91128611D01*
X117554774Y-91142644D01*
X117718516Y-91164886D01*
X117844214Y-91199791D01*
X117947410Y-91251814D01*
X118043644Y-91325409D01*
X118148454Y-91425029D01*
X118159442Y-91436028D01*
X118330205Y-91644749D01*
X118427891Y-91864457D01*
X118462953Y-92119960D01*
X118463458Y-92157488D01*
X118425159Y-92452849D01*
X118310836Y-92712959D01*
X118122871Y-92932683D01*
X118091501Y-92959367D01*
X117960226Y-93060342D01*
X117838749Y-93133409D01*
X117709449Y-93182973D01*
X117554703Y-93213438D01*
X117356891Y-93229211D01*
X117098390Y-93234696D01*
X116988860Y-93235000D01*
X116373667Y-93235000D01*
X116373667Y-95605667D01*
X116913417Y-95606702D01*
X117138969Y-95610563D01*
X117352261Y-95620304D01*
X117529024Y-95634446D01*
X117643667Y-95651205D01*
X117900385Y-95751094D01*
X118126862Y-95918482D01*
X118307454Y-96137470D01*
X118426520Y-96392161D01*
X118446611Y-96467302D01*
X118464132Y-96728691D01*
X118409318Y-96993729D01*
X118291126Y-97242404D01*
X118118515Y-97454705D01*
X117945995Y-97585655D01*
X117869958Y-97628268D01*
X117798858Y-97659221D01*
X117717230Y-97680729D01*
X117609607Y-97695006D01*
X117460523Y-97704265D01*
X117254512Y-97710723D01*
X117040417Y-97715318D01*
X116331334Y-97729470D01*
X116331334Y-99145428D01*
X116331130Y-99551488D01*
X116329516Y-99882519D01*
X116324983Y-100148159D01*
X116316024Y-100358044D01*
X116301132Y-100521813D01*
X116278799Y-100649102D01*
X116247517Y-100749550D01*
X116205780Y-100832793D01*
X116152080Y-100908470D01*
X116084910Y-100986218D01*
X116034888Y-101040718D01*
X115812198Y-101225164D01*
X115559694Y-101338163D01*
X115291954Y-101379652D01*
X115023553Y-101349567D01*
X114769067Y-101247846D01*
X114543071Y-101074425D01*
X114517174Y-101047295D01*
X114440084Y-100959261D01*
X114377285Y-100872638D01*
X114327322Y-100777905D01*
X114288738Y-100665540D01*
X114260078Y-100526025D01*
X114239885Y-100349838D01*
X114226704Y-100127460D01*
X114219078Y-99849369D01*
X114215551Y-99506046D01*
X114214668Y-99087970D01*
X114214667Y-99069317D01*
X114214667Y-97722334D01*
X112098000Y-97722334D01*
X112098000Y-99141860D01*
X112097731Y-99546855D01*
X112096046Y-99876907D01*
X112091634Y-100141741D01*
X112083179Y-100351079D01*
X112069370Y-100514646D01*
X112048893Y-100642166D01*
X112020434Y-100743361D01*
X111982679Y-100827957D01*
X111934316Y-100905677D01*
X111874032Y-100986245D01*
X111843682Y-101024735D01*
X111652678Y-101200645D01*
X111412348Y-101319917D01*
X111141397Y-101376310D01*
X110858533Y-101363582D01*
X110838919Y-101359970D01*
X110615709Y-101279835D01*
X110400897Y-101137394D01*
X110222015Y-100952815D01*
X110162243Y-100864233D01*
X110044834Y-100664500D01*
X110032208Y-99193417D01*
X110019583Y-97722334D01*
X109391947Y-97722334D01*
X109030833Y-97713500D01*
X108741369Y-97683822D01*
X108512079Y-97628532D01*
X108331489Y-97542863D01*
X108188122Y-97422047D01*
X108070502Y-97261319D01*
X108009646Y-97148108D01*
X107912015Y-96859985D01*
X107897104Y-96571933D01*
X107963639Y-96293562D01*
X108110346Y-96034484D01*
X108166288Y-95965944D01*
X108280650Y-95849530D01*
X108400941Y-95762344D01*
X108542027Y-95699904D01*
X108718778Y-95657727D01*
X108946059Y-95631331D01*
X109238739Y-95616235D01*
X109335750Y-95613388D01*
X109981334Y-95596620D01*
X109981334Y-93235000D01*
X112098000Y-93235000D01*
X112098000Y-95605667D01*
X114214667Y-95605667D01*
X114214667Y-93235000D01*
X112098000Y-93235000D01*
X109981334Y-93235000D01*
X109981334Y-93192667D01*
X109314584Y-93191737D01*
X109011571Y-93188015D01*
X108777940Y-93175144D01*
X108598563Y-93149136D01*
X108458311Y-93106003D01*
X108342058Y-93041754D01*
X108234674Y-92952402D01*
X108173729Y-92890920D01*
X108018110Y-92679120D01*
X107929445Y-92435610D01*
X107901709Y-92148192D01*
X107936933Y-91848553D01*
X108043101Y-91594912D01*
X108220948Y-91386136D01*
X108471214Y-91221092D01*
X108520834Y-91197384D01*
X108601609Y-91166781D01*
X108698226Y-91145166D01*
X108826301Y-91131081D01*
X109001452Y-91123066D01*
X109239294Y-91119663D01*
X109356917Y-91119263D01*
X110023667Y-91118334D01*
X110024597Y-89689584D01*
X110025141Y-89276012D01*
X110027311Y-88937675D01*
X110032793Y-88665137D01*
X110043278Y-88448966D01*
X110060454Y-88279728D01*
X110086010Y-88147990D01*
X110121636Y-88044318D01*
X110169020Y-87959280D01*
X110229851Y-87883441D01*
X110305818Y-87807369D01*
X110372678Y-87745464D01*
X110578365Y-87593435D01*
X110802364Y-87507422D01*
X111069860Y-87478082D01*
X111093943Y-87477903D01*
X111327377Y-87504316D01*
X111327377Y-87504316D01*
G37*
X111327377Y-87504316D02*
X111537362Y-87590860D01*
X111747907Y-87747601D01*
X111757399Y-87756122D01*
X111838724Y-87829888D01*
X111904917Y-87895775D01*
X111957669Y-87963111D01*
X111998668Y-88041225D01*
X112029605Y-88139445D01*
X112052169Y-88267102D01*
X112068050Y-88433523D01*
X112078938Y-88648037D01*
X112086521Y-88919974D01*
X112092490Y-89258662D01*
X112098000Y-89636667D01*
X112119167Y-91097167D01*
X114214667Y-91119813D01*
X114214667Y-89750781D01*
X114215338Y-89354653D01*
X114217610Y-89033903D01*
X114221866Y-88779249D01*
X114228492Y-88581409D01*
X114237873Y-88431105D01*
X114250394Y-88319053D01*
X114266441Y-88235974D01*
X114279348Y-88191920D01*
X114406900Y-87932294D01*
X114584982Y-87730487D01*
X114801320Y-87587538D01*
X115043638Y-87504484D01*
X115299664Y-87482363D01*
X115557124Y-87522213D01*
X115803742Y-87625072D01*
X116027246Y-87791978D01*
X116215361Y-88023969D01*
X116217882Y-88028000D01*
X116242613Y-88070670D01*
X116262671Y-88117200D01*
X116278703Y-88176789D01*
X116291358Y-88258638D01*
X116301286Y-88371945D01*
X116309134Y-88525910D01*
X116315553Y-88729733D01*
X116321190Y-88992614D01*
X116326695Y-89323751D01*
X116331334Y-89636667D01*
X116352500Y-91097167D01*
X117051000Y-91118334D01*
X117337449Y-91128611D01*
X117554774Y-91142644D01*
X117718516Y-91164886D01*
X117844214Y-91199791D01*
X117947410Y-91251814D01*
X118043644Y-91325409D01*
X118148454Y-91425029D01*
X118159442Y-91436028D01*
X118330205Y-91644749D01*
X118427891Y-91864457D01*
X118462953Y-92119960D01*
X118463458Y-92157488D01*
X118425159Y-92452849D01*
X118310836Y-92712959D01*
X118122871Y-92932683D01*
X118091501Y-92959367D01*
X117960226Y-93060342D01*
X117838749Y-93133409D01*
X117709449Y-93182973D01*
X117554703Y-93213438D01*
X117356891Y-93229211D01*
X117098390Y-93234696D01*
X116988860Y-93235000D01*
X116373667Y-93235000D01*
X116373667Y-95605667D01*
X116913417Y-95606702D01*
X117138969Y-95610563D01*
X117352261Y-95620304D01*
X117529024Y-95634446D01*
X117643667Y-95651205D01*
X117900385Y-95751094D01*
X118126862Y-95918482D01*
X118307454Y-96137470D01*
X118426520Y-96392161D01*
X118446611Y-96467302D01*
X118464132Y-96728691D01*
X118409318Y-96993729D01*
X118291126Y-97242404D01*
X118118515Y-97454705D01*
X117945995Y-97585655D01*
X117869958Y-97628268D01*
X117798858Y-97659221D01*
X117717230Y-97680729D01*
X117609607Y-97695006D01*
X117460523Y-97704265D01*
X117254512Y-97710723D01*
X117040417Y-97715318D01*
X116331334Y-97729470D01*
X116331334Y-99145428D01*
X116331130Y-99551488D01*
X116329516Y-99882519D01*
X116324983Y-100148159D01*
X116316024Y-100358044D01*
X116301132Y-100521813D01*
X116278799Y-100649102D01*
X116247517Y-100749550D01*
X116205780Y-100832793D01*
X116152080Y-100908470D01*
X116084910Y-100986218D01*
X116034888Y-101040718D01*
X115812198Y-101225164D01*
X115559694Y-101338163D01*
X115291954Y-101379652D01*
X115023553Y-101349567D01*
X114769067Y-101247846D01*
X114543071Y-101074425D01*
X114517174Y-101047295D01*
X114440084Y-100959261D01*
X114377285Y-100872638D01*
X114327322Y-100777905D01*
X114288738Y-100665540D01*
X114260078Y-100526025D01*
X114239885Y-100349838D01*
X114226704Y-100127460D01*
X114219078Y-99849369D01*
X114215551Y-99506046D01*
X114214668Y-99087970D01*
X114214667Y-99069317D01*
X114214667Y-97722334D01*
X112098000Y-97722334D01*
X112098000Y-99141860D01*
X112097731Y-99546855D01*
X112096046Y-99876907D01*
X112091634Y-100141741D01*
X112083179Y-100351079D01*
X112069370Y-100514646D01*
X112048893Y-100642166D01*
X112020434Y-100743361D01*
X111982679Y-100827957D01*
X111934316Y-100905677D01*
X111874032Y-100986245D01*
X111843682Y-101024735D01*
X111652678Y-101200645D01*
X111412348Y-101319917D01*
X111141397Y-101376310D01*
X110858533Y-101363582D01*
X110838919Y-101359970D01*
X110615709Y-101279835D01*
X110400897Y-101137394D01*
X110222015Y-100952815D01*
X110162243Y-100864233D01*
X110044834Y-100664500D01*
X110032208Y-99193417D01*
X110019583Y-97722334D01*
X109391947Y-97722334D01*
X109030833Y-97713500D01*
X108741369Y-97683822D01*
X108512079Y-97628532D01*
X108331489Y-97542863D01*
X108188122Y-97422047D01*
X108070502Y-97261319D01*
X108009646Y-97148108D01*
X107912015Y-96859985D01*
X107897104Y-96571933D01*
X107963639Y-96293562D01*
X108110346Y-96034484D01*
X108166288Y-95965944D01*
X108280650Y-95849530D01*
X108400941Y-95762344D01*
X108542027Y-95699904D01*
X108718778Y-95657727D01*
X108946059Y-95631331D01*
X109238739Y-95616235D01*
X109335750Y-95613388D01*
X109981334Y-95596620D01*
X109981334Y-93235000D01*
X112098000Y-93235000D01*
X112098000Y-95605667D01*
X114214667Y-95605667D01*
X114214667Y-93235000D01*
X112098000Y-93235000D01*
X109981334Y-93235000D01*
X109981334Y-93192667D01*
X109314584Y-93191737D01*
X109011571Y-93188015D01*
X108777940Y-93175144D01*
X108598563Y-93149136D01*
X108458311Y-93106003D01*
X108342058Y-93041754D01*
X108234674Y-92952402D01*
X108173729Y-92890920D01*
X108018110Y-92679120D01*
X107929445Y-92435610D01*
X107901709Y-92148192D01*
X107936933Y-91848553D01*
X108043101Y-91594912D01*
X108220948Y-91386136D01*
X108471214Y-91221092D01*
X108520834Y-91197384D01*
X108601609Y-91166781D01*
X108698226Y-91145166D01*
X108826301Y-91131081D01*
X109001452Y-91123066D01*
X109239294Y-91119663D01*
X109356917Y-91119263D01*
X110023667Y-91118334D01*
X110024597Y-89689584D01*
X110025141Y-89276012D01*
X110027311Y-88937675D01*
X110032793Y-88665137D01*
X110043278Y-88448966D01*
X110060454Y-88279728D01*
X110086010Y-88147990D01*
X110121636Y-88044318D01*
X110169020Y-87959280D01*
X110229851Y-87883441D01*
X110305818Y-87807369D01*
X110372678Y-87745464D01*
X110578365Y-87593435D01*
X110802364Y-87507422D01*
X111069860Y-87478082D01*
X111093943Y-87477903D01*
X111327377Y-87504316D01*
D12*
X133930000Y-83990000D03*
D13*
X133930000Y-86530000D03*
X131390000Y-83990000D03*
X131390000Y-86530000D03*
M02*
