<?xml version="1.0" standalone="no"?>
 <!DOCTYPE svg PUBLIC "-//W3C//DTD SVG 1.1//EN" 
 "http://www.w3.org/Graphics/SVG/1.1/DTD/svg11.dtd"> 
<svg xmlns="http://www.w3.org/2000/svg" version="1.1" 
    width="11.651cm" height="4.67106cm" viewBox="0 0 45870 18390 ">
<title>SVG Picture created as un1eet_sao-brd.svg date 2018/07/26 12:59:42 </title>
  <desc>Picture generated by PCBNEW </desc>
<g style="fill:#000000; fill-opacity:1;stroke:#000000; stroke-opacity:1;
stroke-linecap:round; stroke-linejoin:round; "
 transform="translate(0 0) scale(1 1)">
</g>
<g style="fill:#000000; fill-opacity:0.0; 
stroke:#000000; stroke-width:-0.000393701; stroke-opacity:1; 
stroke-linecap:round; stroke-linejoin:round;">
</g>
<g style="fill:#000000; fill-opacity:1.0; 
stroke:#000000; stroke-width:0; stroke-opacity:1; 
stroke-linecap:round; stroke-linejoin:round;">
<circle cx="16253.9" cy="6411.03" r="334.646" /> 
</g>
<g style="fill:#000000; fill-opacity:1.0; 
stroke:#000000; stroke-width:39.3701; stroke-opacity:1; 
stroke-linecap:round; stroke-linejoin:round;">
</g>
<g style="fill:#000000; fill-opacity:1.0; 
stroke:#000000; stroke-width:669.291; stroke-opacity:1; 
stroke-linecap:round; stroke-linejoin:round;">
</g>
<g style="fill:#000000; fill-opacity:0.0; 
stroke:#000000; stroke-width:669.291; stroke-opacity:1; 
stroke-linecap:round; stroke-linejoin:round;">
<path d="M16253 7411
L16253 7411
" />
<path d="M15253 6411
L15253 6411
" />
<path d="M15253 7411
L15253 7411
" />
</g>
<g style="fill:#000000; fill-opacity:1.0; 
stroke:#000000; stroke-width:100; stroke-opacity:1; 
stroke-linecap:round; stroke-linejoin:round;">
<polyline style="fill-rule:evenodd;"
points="16079,4437
16253,4447
16425,4462
16594,4482
16760,4508
16924,4538
17002,4555
17080,4574
17157,4593
17232,4614
17305,4636
17377,4659
17446,4683
17514,4708
17580,4735
17644,4762
17705,4790
17764,4820
17821,4850
17875,4881
17926,4912
17975,4945
18020,4978
18063,5012
18103,5046
18140,5080
18164,5105
18187,5131
18209,5159
18231,5190
18252,5223
18272,5258
18292,5295
18311,5334
18329,5375
18347,5418
18363,5463
18378,5508
18407,5609
18432,5715
18454,5826
18471,5943
18485,6065
18495,6190
18502,6319
18506,6451
18507,6585
18505,6721
18501,6859
18494,6996
18484,7134
18473,7272
18460,7408
18446,7542
18412,7807
18376,8058
18337,8293
18298,8508
18260,8701
18260,8707
18258,8713
18261,8759
18261,8806
18263,8812
18263,8818
18283,8860
18301,8903
18306,8907
18308,8913
18343,8944
18376,8977
18382,8980
18386,8984
18430,8999
18473,9017
18479,9017
18485,9019
18532,9017
18579,9017
18584,9014
18590,9014
18660,8997
18726,8982
18792,8968
18858,8956
18923,8946
18988,8937
19053,8930
19115,8924
19243,8917
19369,8915
19492,8919
19614,8929
19734,8943
19852,8963
19969,8988
20083,9018
20196,9052
20307,9092
20416,9135
20528,9186
20548,9190
20566,9200
20599,9202
20630,9210
20651,9206
20671,9208
20702,9198
20734,9192
20752,9181
20771,9175
20796,9154
20824,9137
20835,9120
20851,9107
20866,9077
20885,9051
20889,9031
20899,9013
20934,8886
20973,8765
20993,8708
21016,8651
21039,8595
21064,8540
21090,8486
21117,8434
21146,8383
21177,8333
21209,8284
21243,8237
21279,8191
21316,8147
21375,8083
21437,8023
21502,7965
21571,7910
21643,7859
21718,7811
21796,7767
21876,7726
21960,7690
22046,7657
22135,7629
22227,7606
22321,7587
22418,7573
22520,7564
22569,7562
22623,7561
22958,7554
23292,7552
23625,7552
23958,7553
24623,7557
24624,7557
24624,7557
24955,7557
24956,7557
24957,7557
25282,7555
25293,7555
25298,7556
25303,7557
25311,7559
25358,7575
25405,7593
25451,7613
25495,7635
25537,7659
25578,7684
25618,7711
25655,7739
25692,7769
25726,7800
25759,7833
25790,7866
25820,7901
25847,7936
25873,7973
25898,8010
25921,8050
25944,8090
25964,8131
25984,8173
26003,8216
26019,8258
26051,8350
26079,8443
26104,8540
26125,8639
26145,8742
26188,8995
26229,9247
26267,9500
26303,9755
26313,9786
26319,9817
26331,9835
26338,9855
26359,9879
26376,9906
26393,9918
26407,9933
26436,9947
26463,9966
26483,9970
26502,9979
26534,9981
26565,9988
26586,9984
26607,9985
26637,9975
26669,9969
26687,9958
26707,9951
26731,9930
26757,9912
26850,9822
26943,9740
27039,9662
27140,9587
27243,9517
27352,9450
27406,9419
27462,9389
27519,9359
27577,9331
27636,9305
27696,9279
27757,9254
27819,9231
27882,9209
27946,9189
28011,9169
28077,9151
28144,9134
28212,9119
28280,9105
28350,9093
28421,9081
28493,9072
28566,9064
28643,9057
28646,9056
28650,9056
28753,9044
28853,9035
28953,9027
29054,9022
29154,9019
29254,9017
29354,9018
29453,9021
29552,9026
29651,9034
29749,9044
29847,9056
29943,9071
30040,9088
30135,9107
30230,9129
30324,9153
30417,9180
30509,9209
30600,9241
30690,9276
30779,9313
30867,9353
30953,9396
31039,9442
31123,9490
31206,9542
31287,9596
31368,9653
31446,9714
31524,9777
31603,9847
31634,9865
31663,9887
31680,9891
31694,9899
31730,9904
31765,9913
31782,9911
31798,9913
31834,9903
31870,9898
31884,9890
31900,9886
31929,9864
31960,9845
32051,9764
32141,9690
32233,9618
32328,9550
32426,9485
32527,9424
32631,9367
32738,9314
32848,9265
32961,9221
33079,9181
33137,9163
33198,9146
33259,9131
33321,9116
33385,9103
33449,9091
33514,9081
33580,9072
33648,9065
33719,9058
33721,9057
33723,9058
33892,9040
34057,9027
34222,9020
34389,9018
34470,9020
34552,9023
34634,9027
34716,9033
34798,9041
34879,9050
34960,9061
35041,9073
35121,9087
35201,9103
35280,9120
35359,9139
35437,9160
35515,9183
35592,9207
35668,9233
35743,9262
35818,9292
35892,9324
35966,9358
36038,9393
36110,9431
36181,9471
36254,9515
36299,9531
36344,9549
36349,9549
36353,9550
36401,9548
36450,9547
36454,9546
36458,9545
36502,9525
36546,9505
36549,9502
36553,9500
36586,9464
36619,9430
36715,9282
36762,9213
36811,9144
36861,9075
36912,9008
36965,8942
37018,8878
37073,8814
37128,8752
37184,8692
37242,8633
37300,8576
37359,8520
37420,8466
37481,8414
37542,8363
37605,8315
37668,8268
37732,8224
37797,8181
37862,8141
37928,8103
37995,8067
38062,8033
38130,8002
38199,7973
38268,7946
38337,7922
38407,7901
38478,7882
38543,7867
38560,7864
38624,7859
38692,7856
38759,7856
38826,7859
38892,7864
38958,7871
39024,7881
39089,7893
39154,7907
39218,7924
39282,7943
39345,7965
39407,7988
39468,8014
39528,8041
39588,8071
39647,8103
39704,8137
39761,8172
39816,8210
39870,8249
39923,8291
39975,8334
40025,8378
40074,8425
40121,8473
40167,8522
40211,8573
40254,8626
40295,8680
40334,8735
40374,8796
40410,8833
40446,8870
40447,8870
40447,8871
40495,8891
40543,8911
40654,8935
40757,8960
40857,8987
40952,9017
41043,9050
41130,9084
41213,9121
41292,9160
41367,9202
41437,9245
41504,9290
41566,9337
41625,9386
41680,9437
41730,9490
41778,9545
41827,9609
41873,9675
41915,9742
41954,9811
41990,9882
42023,9954
42054,10028
42081,10104
42107,10180
42130,10259
42151,10338
42169,10419
42186,10500
42202,10583
42215,10666
42228,10749
42250,10920
42269,11091
42285,11263
42300,11436
42330,11777
42330,11778
42330,11780
42346,11946
42347,11948
42347,11950
42365,12113
42366,12116
42366,12119
42388,12277
42389,12281
42389,12285
42415,12439
42416,12442
42416,12446
42430,12521
42432,12524
42432,12527
42448,12600
42449,12603
42449,12606
42466,12678
42468,12682
42468,12685
42487,12756
42489,12759
42489,12763
42510,12832
42512,12836
42513,12840
42535,12908
42538,12912
42538,12916
42563,12982
42566,12986
42567,12991
42593,13055
42596,13059
42597,13065
42626,13126
42630,13131
42631,13137
42662,13197
42666,13202
42668,13208
42702,13265
42706,13270
42708,13277
42741,13328
42752,13345
42755,13353
42757,13361
42759,13376
42765,13445
42769,13519
42771,13593
42772,13665
42772,13737
42770,13808
42766,13877
42761,13946
42754,14014
42746,14080
42737,14146
42726,14211
42714,14274
42701,14337
42686,14399
42670,14459
42652,14519
42634,14578
42614,14635
42593,14692
42570,14748
42547,14802
42522,14856
42496,14908
42469,14960
42441,15010
42412,15060
42382,15108
42350,15156
42318,15202
42284,15248
42251,15291
42177,15378
42101,15460
42022,15538
41939,15612
41852,15682
41763,15749
41670,15811
41575,15869
41477,15924
41376,15975
41273,16022
41168,16066
41061,16105
40952,16141
40841,16173
40729,16201
40627,16223
40523,16243
40419,16259
40314,16272
40209,16283
40103,16290
39997,16294
39890,16295
39784,16294
39677,16289
39570,16281
39464,16271
39357,16258
39251,16241
39146,16222
39041,16200
38937,16175
38833,16147
38731,16117
38629,16083
38528,16047
38429,16008
38331,15966
38234,15922
38139,15875
38046,15825
37954,15773
37864,15718
37775,15661
37689,15601
37605,15538
37519,15470
37519,15470
37518,15469
37472,15446
37426,15422
37425,15422
37425,15422
37373,15418
37321,15413
37320,15413
37320,15413
37270,15430
37221,15445
37220,15446
37220,15446
37180,15480
37141,15513
37140,15514
37140,15514
37090,15578
37041,15636
36990,15693
36937,15748
36883,15801
36827,15851
36770,15900
36710,15947
36649,15992
36587,16035
36522,16076
36456,16114
36388,16150
36318,16184
36247,16215
36174,16244
36099,16271
36022,16295
35943,16317
35863,16336
35780,16352
35696,16365
35610,16376
35521,16383
35431,16388
35339,16390
35245,16388
35149,16383
35050,16375
34950,16364
34848,16348
34740,16329
34693,16330
34646,16329
34550,16346
34458,16360
34368,16371
34278,16379
34190,16385
34103,16388
34016,16390
33931,16388
33847,16385
33764,16379
33682,16371
33602,16360
33522,16348
33443,16333
33366,16317
33289,16298
33214,16277
33140,16255
33067,16230
32994,16203
32923,16175
32853,16145
32784,16113
32717,16079
32650,16044
32584,16007
32520,15968
32456,15928
32394,15886
32333,15842
32273,15797
32212,15748
32181,15733
32152,15713
32134,15709
32118,15701
32083,15698
32049,15690
32031,15693
32013,15692
31980,15703
31946,15709
31930,15719
31913,15724
31886,15747
31857,15766
31807,15814
31758,15858
31708,15901
31657,15942
31604,15982
31550,16020
31495,16056
31439,16091
31381,16124
31321,16155
31261,16184
31199,16212
31135,16238
31071,16262
31004,16284
30937,16304
30868,16323
30797,16339
30725,16353
30652,16365
30577,16375
30501,16383
30423,16389
30344,16392
30263,16393
30181,16392
30097,16388
30012,16382
29925,16373
29837,16361
29747,16347
29652,16329
29605,16330
29557,16329
29457,16346
29362,16360
29268,16371
29175,16379
29083,16384
28993,16387
28904,16387
28815,16385
28728,16380
28642,16373
28558,16363
28474,16351
28392,16337
28311,16321
28231,16302
28152,16281
28074,16258
27998,16233
27923,16205
27849,16176
27776,16145
27704,16112
27633,16077
27564,16040
27496,16001
27429,15960
27363,15918
27299,15874
27236,15828
27174,15781
27113,15732
27051,15679
27027,15665
27005,15647
26981,15640
26959,15627
26931,15624
26904,15616
26880,15618
26855,15615
26828,15623
26800,15625
26778,15637
26754,15644
26731,15661
26706,15674
26644,15725
26584,15772
26522,15818
26458,15863
26394,15906
26329,15948
26263,15989
26195,16029
26127,16067
26057,16105
25987,16140
25916,16175
25844,16208
25771,16240
25697,16271
25623,16300
25547,16328
25471,16355
25394,16380
25317,16404
25239,16427
25160,16448
25080,16468
25000,16486
24920,16503
24838,16518
24757,16533
24675,16545
24592,16556
24509,16566
24426,16575
24342,16582
24258,16587
24174,16591
24089,16593
24005,16594
23919,16594
23834,16592
23749,16588
23663,16583
23578,16577
23492,16568
23406,16559
23321,16548
23235,16535
23149,16521
23064,16505
22978,16487
22893,16468
22808,16448
22723,16426
22638,16402
22553,16376
22469,16349
22385,16321
22301,16291
22218,16259
22134,16225
22052,16190
21970,16154
21888,16115
21807,16075
21726,16034
21643,15989
21603,15977
21564,15961
21553,15961
21543,15958
21501,15962
21459,15962
21449,15967
21438,15968
21401,15987
21362,16004
21238,16090
21178,16130
21118,16168
21060,16204
21001,16237
20941,16267
20884,16292
20874,16296
20867,16297
20861,16298
20854,16298
20847,16298
20841,16297
20834,16295
20819,16289
20698,16235
20692,16233
20688,16230
20566,16182
20561,16181
20555,16178
20438,16137
20432,16137
20426,16134
20312,16100
20306,16099
20300,16096
20188,16069
20182,16068
20176,16066
20067,16044
20060,16044
20054,16042
19947,16026
19941,16027
19935,16025
19829,16014
19824,16014
19818,16013
19713,16007
19708,16007
19702,16006
19599,16004
19594,16005
19589,16004
19486,16006
19481,16007
19477,16006
19373,16012
19370,16013
19366,16012
19262,16021
19259,16022
19256,16021
19151,16032
19149,16033
19146,16033
19040,16046
19039,16046
19037,16046
18929,16061
18927,16062
18925,16062
18705,16096
18704,16096
18703,16096
18475,16133
18240,16168
18121,16183
18000,16196
17876,16208
17750,16216
17622,16221
17490,16222
17355,16219
17217,16211
17076,16199
16935,16181
16923,16178
16916,16176
16910,16173
16899,16167
16881,16155
16861,16139
16810,16097
16756,16050
16755,16049
16754,16048
16697,15999
16675,15986
16657,15970
16630,15961
16606,15947
16581,15944
16557,15936
16529,15937
16501,15934
16477,15941
16452,15942
16427,15954
16400,15962
16380,15977
16358,15988
16262,16061
16169,16132
16127,16162
16085,16189
16044,16214
16006,16234
15998,16237
15988,16241
15899,16264
15806,16287
15714,16309
15621,16328
15528,16346
15435,16362
15343,16376
15250,16389
15158,16400
15065,16409
14974,16416
14882,16422
14790,16426
14699,16428
14608,16429
14517,16428
14427,16426
14337,16421
14248,16416
14159,16408
14070,16399
13982,16388
13894,16376
13807,16362
13721,16347
13635,16330
13549,16312
13464,16292
13380,16270
13297,16247
13214,16222
13132,16196
13051,16169
12970,16140
12890,16109
12811,16077
12733,16044
12656,16009
12580,15973
12504,15935
12430,15896
12356,15855
12284,15813
12212,15770
12141,15725
12072,15679
12004,15632
11936,15583
11870,15533
11805,15482
11741,15429
11678,15375
11617,15320
11556,15263
11497,15206
11440,15146
11383,15086
11328,15024
11274,14961
11222,14897
11171,14832
11121,14765
11073,14697
11024,14626
11015,14617
11010,14606
10978,14581
10949,14552
10938,14547
10928,14540
10889,14528
10852,14512
10839,14512
10828,14509
10787,14513
10747,14513
10735,14518
10723,14519
10687,14538
10650,14554
10641,14563
10630,14569
10537,14645
10444,14716
10350,14783
10254,14846
10155,14905
10054,14960
9951,15010
9845,15056
9736,15097
9682,15115
9627,15132
9571,15148
9514,15163
9456,15176
9398,15188
9339,15198
9279,15207
9218,15214
9157,15220
9094,15224
9031,15226
8967,15227
8899,15226
8868,15232
8836,15233
8744,15254
8656,15271
8568,15286
8482,15298
8397,15307
8312,15314
8229,15319
8146,15321
8064,15320
7983,15318
7904,15313
7825,15306
7746,15297
7669,15285
7593,15272
7518,15256
7443,15238
7370,15218
7297,15197
7225,15173
7155,15148
7085,15120
7016,15091
6948,15060
6881,15027
6815,14992
6750,14956
6685,14918
6622,14878
6560,14837
6499,14794
6439,14750
6378,14703
6319,14655
6260,14605
6202,14554
6146,14502
6090,14448
6035,14393
5981,14337
5875,14220
5772,14100
5674,13975
5578,13846
5486,13714
5397,13578
5311,13439
5228,13298
5148,13154
5072,13008
4998,12860
4929,12714
4924,12704
4921,12694
4896,12594
4871,12487
4848,12378
4826,12268
4806,12157
4788,12045
4771,11932
4757,11819
4744,11704
4733,11589
4723,11473
4716,11357
4711,11240
4707,11123
4706,11006
4706,10888
4708,10770
4713,10653
4719,10535
4727,10417
4738,10299
4750,10182
4765,10064
4782,9947
4801,9831
4822,9715
4845,9600
4870,9485
4898,9371
4928,9258
4960,9146
4994,9035
5031,8925
5070,8816
5111,8708
5155,8601
5202,8496
5251,8392
5302,8290
5356,8189
5413,8090
5472,7993
5533,7897
5597,7804
5664,7712
5733,7623
5804,7536
5879,7451
5955,7369
6035,7289
6117,7212
6201,7137
6288,7065
6378,6995
6471,6929
6566,6865
6664,6805
6765,6747
6869,6693
6975,6641
7085,6593
7197,6549
7312,6508
7427,6471
7435,6470
7476,6461
7516,6456
7554,6452
7590,6450
7626,6450
7658,6451
7726,6457
7788,6466
7848,6476
7850,6476
7851,6476
7905,6485
7915,6485
7924,6487
7969,6491
7981,6490
7993,6492
7994,6492
8023,6487
8053,6486
8155,6463
8253,6444
8349,6427
8444,6413
8537,6403
8629,6395
8719,6392
8809,6392
8882,6394
8955,6399
9028,6406
9099,6414
9171,6425
9241,6437
9311,6451
9380,6467
9449,6485
9517,6504
9584,6526
9650,6548
9716,6573
9781,6599
9845,6627
9909,6656
9972,6687
10034,6719
10096,6753
10156,6788
10216,6825
10275,6863
10334,6902
10391,6943
10448,6985
10504,7028
10559,7073
10613,7118
10720,7213
10822,7313
10910,7404
10995,7499
11077,7598
11155,7699
11231,7803
11304,7910
11374,8020
11442,8132
11506,8246
11568,8362
11627,8480
11683,8600
11736,8722
11787,8845
11836,8969
11882,9096
11891,9110
11895,9125
11918,9154
11937,9186
11950,9195
11960,9208
11992,9226
12022,9248
12037,9252
12051,9260
12088,9264
12124,9273
12140,9271
12156,9272
12300,9261
12442,9255
12584,9252
12728,9253
12872,9256
13017,9261
13309,9277
13343,9272
13377,9271
13394,9264
13413,9261
13442,9244
13474,9231
13487,9217
13503,9208
13524,9180
13548,9156
13555,9138
13566,9123
13575,9090
13588,9059
13587,9040
13592,9021
13587,8987
13587,8953
13541,8726
13494,8479
13448,8215
13405,7937
13385,7796
13366,7652
13354,7551
14686,7551
14753,7712
14906,7881
15113,7978
15203,7931
15203,7461
14734,7461
14686,7551
13354,7551
13349,7506
13333,7360
13320,7213
13309,7067
13300,6921
13293,6777
13290,6634
13289,6493
13291,6411
14657,6411
14702,6634
14829,6824
14963,6914
14906,6940
14753,7109
14686,7270
14734,7361
15203,7361
15203,7353
15303,7353
15303,7361
15311,7361
15311,7461
15303,7461
15303,7931
15394,7978
15600,7881
15754,7712
15754,7712
15829,7824
16018,7951
16242,7995
16265,7995
16489,7951
16678,7824
16805,7634
16849,7411
16805,7187
16678,6997
16558,6917
16584,6906
16749,6742
16838,6527
16838,6295
16749,6080
16585,5915
16370,5826
16138,5826
15923,5915
15758,6079
15748,6102
15678,5997
15489,5870
15265,5826
15242,5826
15018,5870
14829,5997
14702,6187
14657,6411
13291,6411
13291,6356
13297,6221
13306,6091
13319,5965
13336,5844
13356,5728
13380,5618
13393,5567
13408,5517
13423,5469
13439,5423
13456,5378
13474,5336
13493,5296
13512,5258
13532,5223
13553,5189
13575,5158
13597,5129
13619,5102
13643,5077
13682,5040
13724,5003
13768,4967
13816,4932
13866,4898
13919,4864
13974,4832
14032,4801
14092,4771
14154,4742
14219,4714
14286,4688
14354,4662
14425,4638
14497,4616
14571,4594
14647,4574
14724,4555
14803,4537
14883,4521
14964,4506
15045,4493
15213,4470
15383,4453
15556,4441
15730,4434
15904,4433
16079,4437
" /> 
</g>
<g style="fill:#FFFFFF; fill-opacity:1.0; 
stroke:#FFFFFF; stroke-width:100; stroke-opacity:1; 
stroke-linecap:round; stroke-linejoin:round;">
</g>
<g style="fill:#FFFFFF; fill-opacity:1.0; 
stroke:#FFFFFF; stroke-width:0; stroke-opacity:1; 
stroke-linecap:round; stroke-linejoin:round;">
<circle cx="16253.9" cy="6411.03" r="196.85" /> 
</g>
<g style="fill:#FFFFFF; fill-opacity:1.0; 
stroke:#FFFFFF; stroke-width:39.3701; stroke-opacity:1; 
stroke-linecap:round; stroke-linejoin:round;">
</g>
<g style="fill:#FFFFFF; fill-opacity:1.0; 
stroke:#FFFFFF; stroke-width:0; stroke-opacity:1; 
stroke-linecap:round; stroke-linejoin:round;">
<circle cx="16253.9" cy="7411.03" r="196.85" /> 
</g>
<g style="fill:#FFFFFF; fill-opacity:1.0; 
stroke:#FFFFFF; stroke-width:39.3701; stroke-opacity:1; 
stroke-linecap:round; stroke-linejoin:round;">
</g>
<g style="fill:#FFFFFF; fill-opacity:1.0; 
stroke:#FFFFFF; stroke-width:0; stroke-opacity:1; 
stroke-linecap:round; stroke-linejoin:round;">
<circle cx="15253.9" cy="6411.03" r="196.85" /> 
</g>
<g style="fill:#FFFFFF; fill-opacity:1.0; 
stroke:#FFFFFF; stroke-width:39.3701; stroke-opacity:1; 
stroke-linecap:round; stroke-linejoin:round;">
</g>
<g style="fill:#FFFFFF; fill-opacity:1.0; 
stroke:#FFFFFF; stroke-width:0; stroke-opacity:1; 
stroke-linecap:round; stroke-linejoin:round;">
<circle cx="15253.9" cy="7411.03" r="196.85" /> 
</g>
<g style="fill:#FFFFFF; fill-opacity:1.0; 
stroke:#FFFFFF; stroke-width:39.3701; stroke-opacity:1; 
stroke-linecap:round; stroke-linejoin:round;">
</g>
<g style="fill:#000000; fill-opacity:1.0; 
stroke:#000000; stroke-width:39.3701; stroke-opacity:1; 
stroke-linecap:round; stroke-linejoin:round;">
</g> 
</svg>
